<?xml version="1.0" encoding="UTF-8" standalone="no"?><!DOCTYPE svg PUBLIC "-//W3C//DTD SVG 1.1//EN" "http://www.w3.org/Graphics/SVG/1.1/DTD/svg11.dtd"><svg width="100%" height="100%" viewBox="0 0 57 52" version="1.1" xmlns="http://www.w3.org/2000/svg" xmlns:xlink="http://www.w3.org/1999/xlink" xml:space="preserve" xmlns:serif="http://www.serif.com/" style="fill-rule:evenodd;clip-rule:evenodd;stroke-linejoin:round;stroke-miterlimit:2;"><path d="M31.569,1.421l2.522,0l22.03,38.157l-0,0.001l-4.744,8.087l-19.279,-0.004l1.954,3.37l-0.85,0l-1.955,-3.37l-23.914,-0.002l-0.017,0l-1.225,-2.148l-1.518,0l-4.377,-7.581l0.004,-0.002l-0,-0.002l5.616,-9.73l5.197,-2.999l8.598,-14.892l-1.73,-2.993l4.143,-7.174l8.805,0l0.74,1.282Zm-4.36,11.891l-15.208,26.273l14.561,0l-1.683,-2.903l15.865,0.013l-13.535,-23.383Z" style="fill:#131313;"/></svg>