<?xml version="1.0" encoding="UTF-8" standalone="no"?><!DOCTYPE svg PUBLIC "-//W3C//DTD SVG 1.1//EN" "http://www.w3.org/Graphics/SVG/1.1/DTD/svg11.dtd"><svg width="100%" height="100%" viewBox="0 0 56 29" version="1.1" xmlns="http://www.w3.org/2000/svg" xmlns:xlink="http://www.w3.org/1999/xlink" xml:space="preserve" xmlns:serif="http://www.serif.com/" style="fill-rule:evenodd;clip-rule:evenodd;stroke-linejoin:round;stroke-miterlimit:2;"><g><path d="M55.987,0.76l-0,27.896l-13.948,-0l0,-27.896l13.948,0Zm-41.844,27.896l-13.947,-0l-0,-27.896l13.947,0l0,27.896Zm14.471,-2.15l-0.261,-5.016c-0.001,-0.008 -0.001,-0.017 -0.001,-0.025c0,-0.303 0.249,-0.552 0.552,-0.552c0.032,-0 0.063,0.002 0.094,0.008l4.992,0.877l-0.674,-1.86c-0.056,-0.151 -0.009,-0.322 0.116,-0.424l5.469,-4.428l-1.232,-0.576c-0.172,-0.081 -0.257,-0.279 -0.198,-0.459l1.081,-3.324l-3.15,0.668c-0.175,0.037 -0.353,-0.056 -0.424,-0.22l-0.61,-1.436l-2.459,2.639c-0.071,0.075 -0.17,0.117 -0.274,0.117c-0.207,0 -0.377,-0.17 -0.377,-0.377c-0,-0.024 0.002,-0.048 0.006,-0.072l1.186,-6.113l-1.9,1.098c-0.058,0.034 -0.124,0.052 -0.191,0.052c-0.143,-0 -0.274,-0.081 -0.338,-0.209l-1.93,-3.789l-1.929,3.789c-0.064,0.128 -0.195,0.209 -0.338,0.209c-0.067,-0 -0.133,-0.018 -0.191,-0.052l-1.9,-1.098l1.185,6.113c0.005,0.024 0.007,0.048 0.007,0.072c-0,0.207 -0.171,0.377 -0.378,0.377c-0.103,0 -0.203,-0.042 -0.274,-0.117l-2.458,-2.639l-0.61,1.436c-0.071,0.164 -0.249,0.257 -0.425,0.22l-3.15,-0.668l1.081,3.324c0.059,0.18 -0.026,0.378 -0.197,0.459l-1.232,0.576l5.468,4.428c0.126,0.102 0.173,0.273 0.117,0.424l-0.675,1.86l4.993,-0.877c0.031,-0.006 0.062,-0.008 0.093,-0.008c0.303,-0 0.552,0.249 0.552,0.552c0,0.008 0,0.017 -0,0.025l-0.262,5.016l1.046,-0Z" style="fill:#131313;fill-rule:nonzero;"/></g></svg>