<?xml version="1.0" encoding="UTF-8" standalone="no"?>
<!DOCTYPE svg PUBLIC "-//W3C//DTD SVG 1.1//EN" "http://www.w3.org/Graphics/SVG/1.1/DTD/svg11.dtd">
<svg width="100%" height="100%" viewBox="0 0 752 786" version="1.1" xmlns="http://www.w3.org/2000/svg" xmlns:xlink="http://www.w3.org/1999/xlink" xml:space="preserve" xmlns:serif="http://www.serif.com/" style="fill-rule:evenodd;clip-rule:evenodd;stroke-linejoin:round;stroke-miterlimit:2;">
    <g transform="matrix(1,0,0,1,-19992,-6004)">
        <g transform="matrix(1,0,0,1,13197.8,5844.08)">
            <g transform="matrix(1,0,0,1,6250.75,-4310.9)">
                <g transform="matrix(-0.488146,0.872762,-0.872762,-0.488146,6037.33,6231.67)">
                    <g transform="matrix(219.122,0,0,219.122,1191.3,4886.21)">
                        <path d="M0.669,-0.553C0.6,-0.553 0.539,-0.521 0.504,-0.469C0.476,-0.52 0.424,-0.553 0.347,-0.553C0.282,-0.553 0.225,-0.525 0.189,-0.481L0.189,-0.54L0.069,-0.54L0.069,-0L0.206,-0L0.206,-0.327C0.206,-0.389 0.243,-0.432 0.3,-0.432C0.359,-0.432 0.395,-0.39 0.395,-0.319L0.395,-0L0.531,-0L0.531,-0.327C0.531,-0.389 0.568,-0.432 0.625,-0.432C0.684,-0.432 0.72,-0.39 0.72,-0.319L0.72,-0L0.856,-0L0.856,-0.355C0.856,-0.473 0.792,-0.553 0.669,-0.553Z" style="fill:rgb(19,19,19);fill-rule:nonzero;"/>
                    </g>
                </g>
                <g transform="matrix(-0.909195,0.41637,-0.41637,-0.909195,4170.25,9203.25)">
                    <g transform="matrix(219.122,0,0,219.122,1081.57,5056.36)">
                        <path d="M0.501,-0.457C0.463,-0.529 0.385,-0.555 0.29,-0.555C0.16,-0.555 0.086,-0.493 0.059,-0.404L0.182,-0.365C0.199,-0.414 0.25,-0.431 0.29,-0.431C0.354,-0.431 0.383,-0.408 0.389,-0.358C0.288,-0.343 0.21,-0.331 0.158,-0.312C0.071,-0.28 0.04,-0.224 0.04,-0.149C0.04,-0.059 0.104,0.015 0.22,0.015C0.303,0.015 0.356,-0.009 0.404,-0.066L0.404,-0L0.523,-0L0.523,-0.33C0.523,-0.379 0.522,-0.417 0.501,-0.457ZM0.374,-0.164C0.363,-0.141 0.324,-0.092 0.249,-0.092C0.202,-0.092 0.173,-0.114 0.173,-0.151C0.173,-0.178 0.189,-0.197 0.229,-0.213C0.26,-0.224 0.297,-0.232 0.388,-0.247C0.387,-0.221 0.385,-0.187 0.374,-0.164Z" style="fill:rgb(19,19,19);fill-rule:nonzero;"/>
                    </g>
                </g>
                <g transform="matrix(-0.999989,-0.00475693,0.00475693,-0.999989,1901.59,10214.9)">
                    <g transform="matrix(219.122,0,0,219.122,962.943,5105.19)">
                        <path d="M0.238,-0.435L0.394,-0.435L0.394,-0.54L0.238,-0.54L0.238,-0.69L0.102,-0.69L0.102,-0.54L0.01,-0.54L0.01,-0.435L0.102,-0.435L0.102,-0.229C0.102,-0.164 0.097,-0.116 0.124,-0.067C0.168,0.012 0.282,0.021 0.394,-0L0.394,-0.113C0.33,-0.104 0.273,-0.102 0.249,-0.14C0.236,-0.16 0.238,-0.195 0.238,-0.237L0.238,-0.435Z" style="fill:rgb(19,19,19);fill-rule:nonzero;"/>
                    </g>
                </g>
                <g transform="matrix(-0.880769,-0.473546,0.473546,-0.880769,-797.617,10015.8)">
                    <g transform="matrix(219.122,0,0,219.122,862.095,5108.31)">
                        <path d="M0.365,-0.556C0.287,-0.556 0.229,-0.528 0.19,-0.484L0.19,-0.72L0.069,-0.72L0.069,-0L0.207,-0L0.207,-0.274C0.207,-0.408 0.275,-0.428 0.322,-0.428C0.438,-0.428 0.438,-0.304 0.438,-0.255L0.438,-0L0.576,-0L0.576,-0.303C0.576,-0.348 0.576,-0.556 0.365,-0.556Z" style="fill:rgb(19,19,19);fill-rule:nonzero;"/>
                    </g>
                </g>
                <g transform="matrix(-0.520728,-0.853723,0.853723,-0.520728,-3181.04,8293.75)">
                    <g transform="matrix(219.122,0,0,219.122,737.499,5039.78)">
                        <path d="M0.186,-0.232L0.566,-0.232C0.582,-0.428 0.483,-0.555 0.313,-0.555C0.153,-0.555 0.04,-0.44 0.04,-0.263C0.04,-0.101 0.155,0.015 0.321,0.015C0.425,0.015 0.52,-0.042 0.561,-0.141L0.425,-0.18C0.405,-0.136 0.366,-0.112 0.313,-0.112C0.239,-0.112 0.196,-0.155 0.186,-0.232ZM0.319,-0.437C0.384,-0.437 0.418,-0.406 0.428,-0.333L0.19,-0.333C0.204,-0.402 0.246,-0.437 0.319,-0.437Z" style="fill:rgb(19,19,19);fill-rule:nonzero;"/>
                    </g>
                </g>
                <g transform="matrix(0.0491136,-0.998793,0.998793,0.0491136,-4292.11,5346.27)">
                    <g transform="matrix(219.122,0,0,219.122,661.754,4927.31)">
                        <path d="M0.185,-0L0.289,-0L0.407,-0.352L0.516,-0L0.629,-0L0.794,-0.54L0.661,-0.54L0.563,-0.218L0.464,-0.54L0.351,-0.54L0.252,-0.218L0.154,-0.54L0.02,-0.541L0.185,-0Z" style="fill:rgb(19,19,19);fill-rule:nonzero;"/>
                    </g>
                </g>
                <g transform="matrix(0.737978,-0.674825,0.674825,0.737978,-2993.11,1706.1)">
                    <g transform="matrix(219.122,0,0,219.122,700.435,4707.35)">
                        <path d="M0.418,-0.72L0.418,-0.522C0.384,-0.543 0.344,-0.555 0.296,-0.555C0.141,-0.555 0.04,-0.435 0.04,-0.27C0.04,-0.108 0.14,0.015 0.289,0.015C0.349,0.015 0.397,-0.002 0.435,-0.031L0.435,-0L0.555,-0L0.555,-0.72L0.418,-0.72ZM0.311,-0.106C0.223,-0.106 0.184,-0.179 0.184,-0.27C0.184,-0.36 0.225,-0.434 0.316,-0.434C0.401,-0.434 0.435,-0.368 0.435,-0.27C0.435,-0.172 0.402,-0.106 0.311,-0.106Z" style="fill:rgb(19,19,19);fill-rule:nonzero;"/>
                    </g>
                </g>
                <g transform="matrix(0.980895,-0.19454,0.19454,0.980895,-882.348,244.765)">
                    <g transform="matrix(219.122,0,0,219.122,804.977,4614.61)">
                        <path d="M0.186,-0.232L0.566,-0.232C0.582,-0.428 0.483,-0.555 0.313,-0.555C0.153,-0.555 0.04,-0.44 0.04,-0.263C0.04,-0.101 0.155,0.015 0.321,0.015C0.425,0.015 0.52,-0.042 0.561,-0.141L0.425,-0.18C0.405,-0.136 0.366,-0.112 0.313,-0.112C0.239,-0.112 0.196,-0.155 0.186,-0.232ZM0.319,-0.437C0.384,-0.437 0.418,-0.406 0.428,-0.333L0.19,-0.333C0.204,-0.402 0.246,-0.437 0.319,-0.437Z" style="fill:rgb(19,19,19);fill-rule:nonzero;"/>
                    </g>
                </g>
                <g transform="matrix(0.88504,0.465515,-0.465515,0.88504,2252.91,70.924)">
                    <g transform="matrix(219.122,0,0,219.122,982.858,4596.89)">
                        <path d="M0.216,-0L0.352,-0L0.548,-0.54L0.412,-0.54L0.284,-0.166L0.156,-0.54L0.02,-0.54L0.216,-0Z" style="fill:rgb(19,19,19);fill-rule:nonzero;"/>
                    </g>
                </g>
                <g transform="matrix(0.655918,0.754832,-0.754832,0.655918,3892.65,780.246)">
                    <g transform="matrix(219.122,0,0,219.122,1090.49,4659.88)">
                        <path d="M0.08,-0.615L0.216,-0.615L0.216,-0.735L0.08,-0.735L0.08,-0.615ZM0.08,-0L0.216,-0L0.216,-0.54L0.08,-0.54L0.08,-0Z" style="fill:rgb(19,19,19);fill-rule:nonzero;"/>
                    </g>
                </g>
                <g transform="matrix(0.304628,0.952471,-0.952471,0.304628,5275.56,2186.31)">
                    <g transform="matrix(219.122,0,0,219.122,1140.46,4706.2)">
                        <path d="M0.365,-0.556C0.287,-0.556 0.229,-0.528 0.19,-0.484L0.19,-0.54L0.069,-0.54L0.069,-0L0.207,-0L0.207,-0.274C0.207,-0.408 0.275,-0.428 0.322,-0.428C0.438,-0.428 0.438,-0.304 0.438,-0.255L0.438,-0L0.576,-0L0.576,-0.303C0.576,-0.348 0.576,-0.556 0.365,-0.556Z" style="fill:rgb(19,19,19);fill-rule:nonzero;"/>
                    </g>
                </g>
            </g>
        </g>
    </g>
</svg>
