<?xml version="1.0" encoding="UTF-8" standalone="no"?>
<!DOCTYPE svg PUBLIC "-//W3C//DTD SVG 1.1//EN" "http://www.w3.org/Graphics/SVG/1.1/DTD/svg11.dtd">
<svg width="100%" height="100%" viewBox="0 0 752 786" version="1.1" xmlns="http://www.w3.org/2000/svg" xmlns:xlink="http://www.w3.org/1999/xlink" xml:space="preserve" xmlns:serif="http://www.serif.com/" style="fill-rule:evenodd;clip-rule:evenodd;stroke-linejoin:round;stroke-miterlimit:2;">
    <g transform="matrix(1,0,0,1,-19992,-6004)">
        <g transform="matrix(1,0,0,1,13197.8,5844.08)">
            <g transform="matrix(1,0,0,1,6250.75,-4310.9)">
                <g transform="matrix(-0.488146,0.872762,-0.872762,-0.488146,6037.33,6231.67)">
                    <text x="1191.3px" y="4886.21px" style="font-family:'Manrope-ExtraBold', 'Manrope';font-weight:800;font-size:219.122px;fill:rgb(19,19,19);">m</text>
                </g>
                <g transform="matrix(-0.909195,0.41637,-0.41637,-0.909195,4170.25,9203.25)">
                    <text x="1081.58px" y="5056.36px" style="font-family:'Manrope-ExtraBold', 'Manrope';font-weight:800;font-size:219.122px;fill:rgb(19,19,19);">a</text>
                </g>
                <g transform="matrix(-0.999989,-0.00475693,0.00475693,-0.999989,1901.59,10214.9)">
                    <text x="962.943px" y="5105.19px" style="font-family:'Manrope-ExtraBold', 'Manrope';font-weight:800;font-size:219.122px;fill:rgb(19,19,19);">t</text>
                </g>
                <g transform="matrix(-0.880769,-0.473546,0.473546,-0.880769,-797.617,10015.8)">
                    <text x="862.095px" y="5108.31px" style="font-family:'Manrope-ExtraBold', 'Manrope';font-weight:800;font-size:219.122px;fill:rgb(19,19,19);">h</text>
                </g>
                <g transform="matrix(-0.520728,-0.853723,0.853723,-0.520728,-3181.04,8293.75)">
                    <text x="737.499px" y="5039.78px" style="font-family:'Manrope-ExtraBold', 'Manrope';font-weight:800;font-size:219.122px;fill:rgb(19,19,19);">e</text>
                </g>
                <g transform="matrix(0.0491136,-0.998793,0.998793,0.0491136,-4292.11,5346.27)">
                    <text x="661.754px" y="4927.31px" style="font-family:'Manrope-ExtraBold', 'Manrope';font-weight:800;font-size:219.122px;fill:rgb(19,19,19);">w</text>
                </g>
                <g transform="matrix(0.737978,-0.674825,0.674825,0.737978,-2993.11,1706.1)">
                    <text x="700.435px" y="4707.35px" style="font-family:'Manrope-ExtraBold', 'Manrope';font-weight:800;font-size:219.122px;fill:rgb(19,19,19);">d</text>
                </g>
                <g transform="matrix(0.980895,-0.19454,0.19454,0.980895,-882.348,244.765)">
                    <text x="804.977px" y="4614.61px" style="font-family:'Manrope-ExtraBold', 'Manrope';font-weight:800;font-size:219.122px;fill:rgb(19,19,19);">e</text>
                </g>
                <g transform="matrix(0.88504,0.465515,-0.465515,0.88504,2252.91,70.924)">
                    <text x="982.858px" y="4596.89px" style="font-family:'Manrope-ExtraBold', 'Manrope';font-weight:800;font-size:219.122px;fill:rgb(19,19,19);">v</text>
                </g>
                <g transform="matrix(0.655918,0.754832,-0.754832,0.655918,3892.65,780.246)">
                    <text x="1090.49px" y="4659.88px" style="font-family:'Manrope-ExtraBold', 'Manrope';font-weight:800;font-size:219.122px;fill:rgb(19,19,19);">i</text>
                </g>
                <g transform="matrix(0.304628,0.952471,-0.952471,0.304628,5275.56,2186.31)">
                    <text x="1140.46px" y="4706.2px" style="font-family:'Manrope-ExtraBold', 'Manrope';font-weight:800;font-size:219.122px;fill:rgb(19,19,19);">n</text>
                </g>
            </g>
        </g>
    </g>
</svg>
