<?xml version="1.0" encoding="UTF-8" standalone="no"?>
<!DOCTYPE svg PUBLIC "-//W3C//DTD SVG 1.1//EN" "http://www.w3.org/Graphics/SVG/1.1/DTD/svg11.dtd">
<svg width="100%" height="100%" viewBox="0 0 763 763" version="1.1" xmlns="http://www.w3.org/2000/svg" xmlns:xlink="http://www.w3.org/1999/xlink" xml:space="preserve" xmlns:serif="http://www.serif.com/" style="fill-rule:evenodd;clip-rule:evenodd;stroke-linejoin:round;stroke-miterlimit:2;">
    <g transform="matrix(1,0,0,1,-30221,-6003)">
        <g transform="matrix(1,0,0,1,23430.7,5844.08)">
            <g transform="matrix(1,0,0,1,6250.75,-4310.9)">
                <g transform="matrix(-0.316394,0.948628,-0.948628,-0.316394,6182.6,5314.26)">
                    <g transform="matrix(179,0,0,179,1176.5,4884.8)">
                        <path d="M0.281,0.015C0.422,0.015 0.507,-0.052 0.507,-0.163C0.507,-0.247 0.46,-0.291 0.337,-0.323C0.211,-0.355 0.193,-0.364 0.193,-0.392C0.193,-0.423 0.226,-0.441 0.276,-0.438C0.327,-0.434 0.358,-0.41 0.363,-0.37L0.502,-0.395C0.488,-0.493 0.4,-0.555 0.273,-0.555C0.142,-0.555 0.058,-0.489 0.058,-0.385C0.058,-0.302 0.106,-0.26 0.238,-0.226C0.355,-0.195 0.368,-0.188 0.368,-0.156C0.368,-0.122 0.34,-0.102 0.291,-0.102C0.231,-0.102 0.19,-0.132 0.179,-0.183L0.04,-0.162C0.058,-0.049 0.145,0.015 0.281,0.015Z" style="fill:rgb(19,19,19);fill-rule:nonzero;"/>
                    </g>
                </g>
                <g transform="matrix(-0.661524,0.749924,-0.749924,-0.661524,5637.38,7413.71)">
                    <g transform="matrix(179,0,0,179,1145.61,4979.06)">
                        <path d="M0.308,0.015C0.433,0.015 0.522,-0.049 0.553,-0.164L0.414,-0.193C0.398,-0.141 0.369,-0.112 0.308,-0.112C0.226,-0.112 0.184,-0.176 0.184,-0.27C0.184,-0.36 0.222,-0.428 0.308,-0.428C0.358,-0.428 0.401,-0.395 0.417,-0.339L0.553,-0.375C0.529,-0.486 0.437,-0.555 0.31,-0.555C0.145,-0.555 0.04,-0.434 0.04,-0.27C0.04,-0.108 0.14,0.015 0.308,0.015Z" style="fill:rgb(19,19,19);fill-rule:nonzero;"/>
                    </g>
                </g>
                <g transform="matrix(-0.884333,0.466857,-0.466857,-0.884333,4385.35,9026.81)">
                    <g transform="matrix(179,0,0,179,1074.45,5056.66)">
                        <path d="M0.248,-0.514C0.223,-0.499 0.204,-0.478 0.19,-0.453L0.19,-0.54L0.07,-0.54L0.07,-0L0.207,-0L0.207,-0.276C0.207,-0.338 0.233,-0.382 0.281,-0.404C0.313,-0.419 0.357,-0.422 0.387,-0.413L0.387,-0.54C0.338,-0.546 0.287,-0.538 0.248,-0.514Z" style="fill:rgb(19,19,19);fill-rule:nonzero;"/>
                    </g>
                </g>
                <g transform="matrix(-0.990107,0.140315,-0.140315,-0.990107,2727.61,9996.86)">
                    <g transform="matrix(179,0,0,179,1011.38,5094.59)">
                        <path d="M0.313,0.015C0.475,0.015 0.587,-0.102 0.587,-0.27C0.587,-0.437 0.476,-0.555 0.313,-0.555C0.153,-0.555 0.04,-0.439 0.04,-0.27C0.04,-0.103 0.15,0.015 0.313,0.015ZM0.313,-0.112C0.228,-0.112 0.184,-0.173 0.184,-0.27C0.184,-0.364 0.224,-0.428 0.313,-0.428C0.399,-0.428 0.443,-0.366 0.443,-0.27C0.443,-0.177 0.4,-0.112 0.313,-0.112Z" style="fill:rgb(19,19,19);fill-rule:nonzero;"/>
                    </g>
                </g>
                <g transform="matrix(-0.983543,-0.180672,0.180672,-0.983543,862.444,10289.7)">
                    <g transform="matrix(179,0,0,179,899.843,5105.59)">
                        <rect x="0.08" y="-0.735" width="0.136" height="0.735" style="fill:rgb(19,19,19);fill-rule:nonzero;"/>
                    </g>
                </g>
                <g transform="matrix(-0.923863,-0.382722,0.382722,-0.923863,-320.205,10128.1)">
                    <g transform="matrix(179,0,0,179,847.308,5095.89)">
                        <rect x="0.08" y="-0.735" width="0.136" height="0.735" style="fill:rgb(19,19,19);fill-rule:nonzero;"/>
                    </g>
                </g>
                <g transform="matrix(-0.675923,-0.736972,0.736972,-0.675923,-2444.77,9042.19)">
                    <g transform="matrix(179,0,0,179,765.726,5058.63)">
                        <path d="M0.281,0.015C0.422,0.015 0.507,-0.052 0.507,-0.163C0.507,-0.247 0.46,-0.291 0.337,-0.323C0.211,-0.355 0.193,-0.364 0.193,-0.392C0.193,-0.423 0.226,-0.441 0.276,-0.438C0.327,-0.434 0.358,-0.41 0.363,-0.37L0.502,-0.395C0.488,-0.493 0.4,-0.555 0.273,-0.555C0.142,-0.555 0.058,-0.489 0.058,-0.385C0.058,-0.302 0.106,-0.26 0.238,-0.226C0.355,-0.195 0.368,-0.188 0.368,-0.156C0.368,-0.122 0.34,-0.102 0.291,-0.102C0.231,-0.102 0.19,-0.132 0.179,-0.183L0.04,-0.162C0.058,-0.049 0.145,0.015 0.281,0.015Z" style="fill:rgb(19,19,19);fill-rule:nonzero;"/>
                    </g>
                </g>
                <g transform="matrix(-0.333919,-0.942602,0.942602,-0.333919,-3768.38,7308.49)">
                    <g transform="matrix(179,0,0,179,698.052,4985.69)">
                        <path d="M0.308,0.015C0.433,0.015 0.522,-0.049 0.553,-0.164L0.414,-0.193C0.398,-0.141 0.369,-0.112 0.308,-0.112C0.226,-0.112 0.184,-0.176 0.184,-0.27C0.184,-0.36 0.222,-0.428 0.308,-0.428C0.358,-0.428 0.401,-0.395 0.417,-0.339L0.553,-0.375C0.529,-0.486 0.437,-0.555 0.31,-0.555C0.145,-0.555 0.04,-0.434 0.04,-0.27C0.04,-0.108 0.14,0.015 0.308,0.015Z" style="fill:rgb(19,19,19);fill-rule:nonzero;"/>
                    </g>
                </g>
                <g transform="matrix(0.0221944,-0.999754,0.999754,0.0221944,-4234.63,5442.42)">
                    <g transform="matrix(179,0,0,179,664.979,4886.05)">
                        <path d="M0.248,-0.514C0.223,-0.499 0.204,-0.478 0.19,-0.453L0.19,-0.54L0.07,-0.54L0.07,-0L0.207,-0L0.207,-0.276C0.207,-0.338 0.233,-0.382 0.281,-0.404C0.313,-0.419 0.357,-0.422 0.387,-0.413L0.387,-0.54C0.338,-0.546 0.287,-0.538 0.248,-0.514Z" style="fill:rgb(19,19,19);fill-rule:nonzero;"/>
                    </g>
                </g>
                <g transform="matrix(0.358482,-0.933537,0.933537,0.358482,-4067.47,3705.66)">
                    <g transform="matrix(179,0,0,179,662.499,4812.32)">
                        <path d="M0.313,0.015C0.475,0.015 0.587,-0.102 0.587,-0.27C0.587,-0.437 0.476,-0.555 0.313,-0.555C0.153,-0.555 0.04,-0.439 0.04,-0.27C0.04,-0.103 0.15,0.015 0.313,0.015ZM0.313,-0.112C0.228,-0.112 0.184,-0.173 0.184,-0.27C0.184,-0.364 0.224,-0.428 0.313,-0.428C0.399,-0.428 0.443,-0.366 0.443,-0.27C0.443,-0.177 0.4,-0.112 0.313,-0.112Z" style="fill:rgb(19,19,19);fill-rule:nonzero;"/>
                    </g>
                </g>
                <g transform="matrix(0.637725,-0.770264,0.770264,0.637725,-3371.29,2250.85)">
                    <g transform="matrix(179,0,0,179,707.224,4709.42)">
                        <rect x="0.08" y="-0.735" width="0.136" height="0.735" style="fill:rgb(19,19,19);fill-rule:nonzero;"/>
                    </g>
                </g>
                <g transform="matrix(0.782491,-0.622662,0.622662,0.782491,-2745.67,1476.92)">
                    <g transform="matrix(179,0,0,179,741.154,4668.47)">
                        <rect x="0.08" y="-0.735" width="0.136" height="0.735" style="fill:rgb(19,19,19);fill-rule:nonzero;"/>
                    </g>
                </g>
                <g transform="matrix(0.972898,-0.231233,0.231233,0.972898,-1045.09,313.157)">
                    <g transform="matrix(179,0,0,179,813.395,4615)">
                        <path d="M0.281,0.015C0.422,0.015 0.507,-0.052 0.507,-0.163C0.507,-0.247 0.46,-0.291 0.337,-0.323C0.211,-0.355 0.193,-0.364 0.193,-0.392C0.193,-0.423 0.226,-0.441 0.276,-0.438C0.327,-0.434 0.358,-0.41 0.363,-0.37L0.502,-0.395C0.488,-0.493 0.4,-0.555 0.273,-0.555C0.142,-0.555 0.058,-0.489 0.058,-0.385C0.058,-0.302 0.106,-0.26 0.238,-0.226C0.355,-0.195 0.368,-0.188 0.368,-0.156C0.368,-0.122 0.34,-0.102 0.291,-0.102C0.231,-0.102 0.19,-0.132 0.179,-0.183L0.04,-0.162C0.058,-0.049 0.145,0.015 0.281,0.015Z" style="fill:rgb(19,19,19);fill-rule:nonzero;"/>
                    </g>
                </g>
                <g transform="matrix(0.985999,0.166749,-0.166749,0.985999,778.373,-87.4885)">
                    <g transform="matrix(179,0,0,179,910.187,4591.52)">
                        <path d="M0.308,0.015C0.433,0.015 0.522,-0.049 0.553,-0.164L0.414,-0.193C0.398,-0.141 0.369,-0.112 0.308,-0.112C0.226,-0.112 0.184,-0.176 0.184,-0.27C0.184,-0.36 0.222,-0.428 0.308,-0.428C0.358,-0.428 0.401,-0.395 0.417,-0.339L0.553,-0.375C0.529,-0.486 0.437,-0.555 0.31,-0.555C0.145,-0.555 0.04,-0.434 0.04,-0.27C0.04,-0.108 0.14,0.015 0.308,0.015Z" style="fill:rgb(19,19,19);fill-rule:nonzero;"/>
                    </g>
                </g>
                <g transform="matrix(0.861477,0.507796,-0.507796,0.861477,2481.87,124.123)">
                    <g transform="matrix(179,0,0,179,1013.43,4611.07)">
                        <path d="M0.248,-0.514C0.223,-0.499 0.204,-0.478 0.19,-0.453L0.19,-0.54L0.07,-0.54L0.07,-0L0.207,-0L0.207,-0.276C0.207,-0.338 0.233,-0.382 0.281,-0.404C0.313,-0.419 0.357,-0.422 0.387,-0.413L0.387,-0.54C0.338,-0.546 0.287,-0.538 0.248,-0.514Z" style="fill:rgb(19,19,19);fill-rule:nonzero;"/>
                    </g>
                </g>
                <g transform="matrix(0.642309,0.766446,-0.766446,0.642309,3945.85,834.66)">
                    <g transform="matrix(179,0,0,179,1078.69,4644.83)">
                        <path d="M0.313,0.015C0.475,0.015 0.587,-0.102 0.587,-0.27C0.587,-0.437 0.476,-0.555 0.313,-0.555C0.153,-0.555 0.04,-0.439 0.04,-0.27C0.04,-0.103 0.15,0.015 0.313,0.015ZM0.313,-0.112C0.228,-0.112 0.184,-0.173 0.184,-0.27C0.184,-0.364 0.224,-0.428 0.313,-0.428C0.399,-0.428 0.443,-0.366 0.443,-0.27C0.443,-0.177 0.4,-0.112 0.313,-0.112Z" style="fill:rgb(19,19,19);fill-rule:nonzero;"/>
                    </g>
                </g>
                <g transform="matrix(0.364215,0.931315,-0.931315,0.364215,5137.92,1941.47)">
                    <g transform="matrix(179,0,0,179,1147,4733.82)">
                        <rect x="0.08" y="-0.735" width="0.136" height="0.735" style="fill:rgb(19,19,19);fill-rule:nonzero;"/>
                    </g>
                </g>
                <g transform="matrix(0.16132,0.986902,-0.986902,0.16132,5699.1,2860.72)">
                    <g transform="matrix(179,0,0,179,1166.39,4783.52)">
                        <rect x="0.08" y="-0.735" width="0.136" height="0.735" style="fill:rgb(19,19,19);fill-rule:nonzero;"/>
                    </g>
                </g>
            </g>
        </g>
    </g>
</svg>
