<?xml version="1.0" encoding="UTF-8" standalone="no"?>
<!DOCTYPE svg PUBLIC "-//W3C//DTD SVG 1.1//EN" "http://www.w3.org/Graphics/SVG/1.1/DTD/svg11.dtd">
<svg width="100%" height="100%" viewBox="0 0 763 763" version="1.1" xmlns="http://www.w3.org/2000/svg" xmlns:xlink="http://www.w3.org/1999/xlink" xml:space="preserve" xmlns:serif="http://www.serif.com/" style="fill-rule:evenodd;clip-rule:evenodd;stroke-linejoin:round;stroke-miterlimit:2;">
    <g transform="matrix(1,0,0,1,-30221,-6003)">
        <g transform="matrix(1,0,0,1,23430.7,5844.08)">
            <g transform="matrix(1,0,0,1,6250.75,-4310.9)">
                <g transform="matrix(-0.316394,0.948628,-0.948628,-0.316394,6182.6,5314.26)">
                    <text x="1176.5px" y="4884.8px" style="font-family:'Manrope-ExtraBold', 'Manrope';font-weight:800;font-size:179px;fill:rgb(19,19,19);">s</text>
                </g>
                <g transform="matrix(-0.661524,0.749924,-0.749924,-0.661524,5637.38,7413.71)">
                    <text x="1145.61px" y="4979.06px" style="font-family:'Manrope-ExtraBold', 'Manrope';font-weight:800;font-size:179px;fill:rgb(19,19,19);">c</text>
                </g>
                <g transform="matrix(-0.884333,0.466857,-0.466857,-0.884333,4385.35,9026.81)">
                    <text x="1074.44px" y="5056.65px" style="font-family:'Manrope-ExtraBold', 'Manrope';font-weight:800;font-size:179px;fill:rgb(19,19,19);">r</text>
                </g>
                <g transform="matrix(-0.990107,0.140315,-0.140315,-0.990107,2727.61,9996.86)">
                    <text x="1011.38px" y="5094.59px" style="font-family:'Manrope-ExtraBold', 'Manrope';font-weight:800;font-size:179px;fill:rgb(19,19,19);">o</text>
                </g>
                <g transform="matrix(-0.983543,-0.180672,0.180672,-0.983543,862.444,10289.7)">
                    <text x="899.843px" y="5105.59px" style="font-family:'Manrope-ExtraBold', 'Manrope';font-weight:800;font-size:179px;fill:rgb(19,19,19);">l</text>
                </g>
                <g transform="matrix(-0.923863,-0.382722,0.382722,-0.923863,-320.205,10128.1)">
                    <text x="847.308px" y="5095.89px" style="font-family:'Manrope-ExtraBold', 'Manrope';font-weight:800;font-size:179px;fill:rgb(19,19,19);">l</text>
                </g>
                <g transform="matrix(-0.675923,-0.736972,0.736972,-0.675923,-2444.77,9042.19)">
                    <text x="765.726px" y="5058.63px" style="font-family:'Manrope-ExtraBold', 'Manrope';font-weight:800;font-size:179px;fill:rgb(19,19,19);">s</text>
                </g>
                <g transform="matrix(-0.333919,-0.942602,0.942602,-0.333919,-3768.38,7308.49)">
                    <text x="698.052px" y="4985.69px" style="font-family:'Manrope-ExtraBold', 'Manrope';font-weight:800;font-size:179px;fill:rgb(19,19,19);">c</text>
                </g>
                <g transform="matrix(0.0221944,-0.999754,0.999754,0.0221944,-4234.63,5442.42)">
                    <text x="664.979px" y="4886.05px" style="font-family:'Manrope-ExtraBold', 'Manrope';font-weight:800;font-size:179px;fill:rgb(19,19,19);">r</text>
                </g>
                <g transform="matrix(0.358482,-0.933537,0.933537,0.358482,-4067.47,3705.66)">
                    <text x="662.499px" y="4812.32px" style="font-family:'Manrope-ExtraBold', 'Manrope';font-weight:800;font-size:179px;fill:rgb(19,19,19);">o</text>
                </g>
                <g transform="matrix(0.637725,-0.770264,0.770264,0.637725,-3371.29,2250.85)">
                    <text x="707.224px" y="4709.42px" style="font-family:'Manrope-ExtraBold', 'Manrope';font-weight:800;font-size:179px;fill:rgb(19,19,19);">l</text>
                </g>
                <g transform="matrix(0.782491,-0.622662,0.622662,0.782491,-2745.67,1476.92)">
                    <text x="741.154px" y="4668.47px" style="font-family:'Manrope-ExtraBold', 'Manrope';font-weight:800;font-size:179px;fill:rgb(19,19,19);">l</text>
                </g>
                <g transform="matrix(0.972898,-0.231233,0.231233,0.972898,-1045.09,313.157)">
                    <text x="813.395px" y="4615px" style="font-family:'Manrope-ExtraBold', 'Manrope';font-weight:800;font-size:179px;fill:rgb(19,19,19);">s</text>
                </g>
                <g transform="matrix(0.985999,0.166749,-0.166749,0.985999,778.373,-87.4885)">
                    <text x="910.187px" y="4591.52px" style="font-family:'Manrope-ExtraBold', 'Manrope';font-weight:800;font-size:179px;fill:rgb(19,19,19);">c</text>
                </g>
                <g transform="matrix(0.861477,0.507796,-0.507796,0.861477,2481.87,124.123)">
                    <text x="1013.43px" y="4611.07px" style="font-family:'Manrope-ExtraBold', 'Manrope';font-weight:800;font-size:179px;fill:rgb(19,19,19);">r</text>
                </g>
                <g transform="matrix(0.642309,0.766446,-0.766446,0.642309,3945.85,834.66)">
                    <text x="1078.69px" y="4644.83px" style="font-family:'Manrope-ExtraBold', 'Manrope';font-weight:800;font-size:179px;fill:rgb(19,19,19);">o</text>
                </g>
                <g transform="matrix(0.364215,0.931315,-0.931315,0.364215,5137.92,1941.47)">
                    <text x="1147px" y="4733.82px" style="font-family:'Manrope-ExtraBold', 'Manrope';font-weight:800;font-size:179px;fill:rgb(19,19,19);">l</text>
                </g>
                <g transform="matrix(0.16132,0.986902,-0.986902,0.16132,5699.1,2860.72)">
                    <text x="1166.39px" y="4783.52px" style="font-family:'Manrope-ExtraBold', 'Manrope';font-weight:800;font-size:179px;fill:rgb(19,19,19);">l</text>
                </g>
            </g>
        </g>
    </g>
</svg>
