<?xml version="1.0" encoding="UTF-8" standalone="no"?>
<!DOCTYPE svg PUBLIC "-//W3C//DTD SVG 1.1//EN" "http://www.w3.org/Graphics/SVG/1.1/DTD/svg11.dtd">
<svg width="100%" height="100%" viewBox="0 0 119 119" version="1.1" xmlns="http://www.w3.org/2000/svg" xmlns:xlink="http://www.w3.org/1999/xlink" xml:space="preserve" xmlns:serif="http://www.serif.com/" style="fill-rule:evenodd;clip-rule:evenodd;stroke-linejoin:round;stroke-miterlimit:2;">
    <g transform="matrix(1,0,0,1,-17613,-5004)">
        <g transform="matrix(1,0,0,1,11156.5,4630.77)">
            <g transform="matrix(1,0,0,1,-11306.1,-4598.02)">
                <g transform="matrix(0.0736041,0.997288,-0.997288,0.0736041,21567.4,-13167.9)">
                    <text x="17871.5px" y="5024.97px" style="font-family:'Manrope-Bold', 'Manrope';font-weight:700;font-size:13px;fill:rgb(19,19,19);">l</text>
                </g>
                <g transform="matrix(-0.0427842,0.999084,-0.999084,-0.0427842,23660.6,-12611.8)">
                    <text x="17871.9px" y="5028.61px" style="font-family:'Manrope-Bold', 'Manrope';font-weight:700;font-size:13px;fill:rgb(19,19,19);">o</text>
                </g>
                <g transform="matrix(-0.195309,0.980742,-0.980742,-0.195309,26301.7,-11507)">
                    <text x="17871.5px" y="5036.64px" style="font-family:'Manrope-Bold', 'Manrope';font-weight:700;font-size:13px;fill:rgb(19,19,19);">a</text>
                </g>
                <g transform="matrix(-0.345879,0.938279,-0.938279,-0.345879,28783.6,-9978.51)">
                    <text x="17870.1px" y="5044px" style="font-family:'Manrope-Bold', 'Manrope';font-weight:700;font-size:13px;fill:rgb(19,19,19);">d</text>
                </g>
                <g transform="matrix(-0.458113,0.888894,-0.888894,-0.458113,30542.6,-8516.36)">
                    <text x="17867.2px" y="5051.48px" style="font-family:'Manrope-Bold', 'Manrope';font-weight:700;font-size:13px;fill:rgb(19,19,19);">i</text>
                </g>
                <g transform="matrix(-0.561186,0.82769,-0.82769,-0.561186,32075.3,-6895.72)">
                    <text x="17865.6px" y="5054.79px" style="font-family:'Manrope-Bold', 'Manrope';font-weight:700;font-size:13px;fill:rgb(19,19,19);">n</text>
                </g>
                <g transform="matrix(-0.683569,0.729886,-0.729886,-0.683569,33764.6,-4515.09)">
                    <text x="17861px" y="5061.52px" style="font-family:'Manrope-Bold', 'Manrope';font-weight:700;font-size:13px;fill:rgb(19,19,19);">g</text>
                </g>
                <g transform="matrix(-0.829371,0.558699,-0.558699,-0.829371,35489.7,-697.658)">
                    <text x="17851.4px" y="5070.54px" style="font-family:'Manrope-Bold', 'Manrope';font-weight:700;font-size:13px;fill:rgb(19,19,19);">l</text>
                </g>
                <g transform="matrix(-0.889415,0.457101,-0.457101,-0.889415,36041.8,1425.89)">
                    <text x="17848.4px" y="5072.69px" style="font-family:'Manrope-Bold', 'Manrope';font-weight:700;font-size:13px;fill:rgb(19,19,19);">o</text>
                </g>
                <g transform="matrix(-0.949359,0.314193,-0.314193,-0.949359,36374,4290.02)">
                    <text x="17841.3px" y="5076.35px" style="font-family:'Manrope-Bold', 'Manrope';font-weight:700;font-size:13px;fill:rgb(19,19,19);">a</text>
                </g>
                <g transform="matrix(-0.986711,0.162484,-0.162484,-0.986711,36256.5,7192.13)">
                    <text x="17834.1px" y="5078.7px" style="font-family:'Manrope-Bold', 'Manrope';font-weight:700;font-size:13px;fill:rgb(19,19,19);">d</text>
                </g>
                <g transform="matrix(-0.999118,0.0419928,-0.0419928,-0.999118,35850,9406.66)">
                    <text x="17826.2px" y="5079.85px" style="font-family:'Manrope-Bold', 'Manrope';font-weight:700;font-size:13px;fill:rgb(19,19,19);">i</text>
                </g>
                <g transform="matrix(-0.99705,-0.0767592,0.0767592,-0.99705,35202.6,11513.3)">
                    <text x="17822.6px" y="5080.14px" style="font-family:'Manrope-Bold', 'Manrope';font-weight:700;font-size:13px;fill:rgb(19,19,19);">n</text>
                </g>
                <g transform="matrix(-0.972445,-0.233131,0.233131,-0.972445,33953.8,14172.1)">
                    <text x="17814.4px" y="5079.5px" style="font-family:'Manrope-Bold', 'Manrope';font-weight:700;font-size:13px;fill:rgb(19,19,19);">g</text>
                </g>
                <g transform="matrix(-0.894565,-0.446937,0.446937,-0.894565,31458.3,17572.4)">
                    <text x="17801.8px" y="5075.6px" style="font-family:'Manrope-Bold', 'Manrope';font-weight:700;font-size:13px;fill:rgb(19,19,19);">l</text>
                </g>
                <g transform="matrix(-0.83561,-0.549323,0.549323,-0.83561,29883.8,19091.2)">
                    <text x="17798.5px" y="5074.07px" style="font-family:'Manrope-Bold', 'Manrope';font-weight:700;font-size:13px;fill:rgb(19,19,19);">o</text>
                </g>
                <g transform="matrix(-0.741986,-0.670416,0.670416,-0.741986,27594.3,20759.1)">
                    <text x="17791.8px" y="5069.63px" style="font-family:'Manrope-Bold', 'Manrope';font-weight:700;font-size:13px;fill:rgb(19,19,19);">a</text>
                </g>
                <g transform="matrix(-0.630225,-0.776413,0.776413,-0.630225,25063.4,22065.9)">
                    <text x="17786.2px" y="5064.6px" style="font-family:'Manrope-Bold', 'Manrope';font-weight:700;font-size:13px;fill:rgb(19,19,19);">d</text>
                </g>
                <g transform="matrix(-0.531613,-0.846987,0.846987,-0.531613,22949.8,22807.9)">
                    <text x="17781.3px" y="5058.28px" style="font-family:'Manrope-Bold', 'Manrope';font-weight:700;font-size:13px;fill:rgb(19,19,19);">i</text>
                </g>
                <g transform="matrix(-0.426053,-0.904698,0.904698,-0.426053,20780.7,23293.9)">
                    <text x="17779.2px" y="5055.26px" style="font-family:'Manrope-Bold', 'Manrope';font-weight:700;font-size:13px;fill:rgb(19,19,19);">n</text>
                </g>
                <g transform="matrix(-0.277178,-0.960819,0.960819,-0.277178,17852.7,23526.3)">
                    <text x="17775.8px" y="5047.86px" style="font-family:'Manrope-Bold', 'Manrope';font-weight:700;font-size:13px;fill:rgb(19,19,19);">g</text>
                </g>
                <g transform="matrix(-0.0538584,-0.998549,0.998549,-0.0538584,13702.5,23053.3)">
                    <text x="17773px" y="5035px" style="font-family:'Manrope-Bold', 'Manrope';font-weight:700;font-size:13px;fill:rgb(19,19,19);">l</text>
                </g>
                <g transform="matrix(0.0625517,-0.998042,0.998042,0.0625517,11639.4,22454.5)">
                    <text x="17772.6px" y="5031.35px" style="font-family:'Manrope-Bold', 'Manrope';font-weight:700;font-size:13px;fill:rgb(19,19,19);">o</text>
                </g>
                <g transform="matrix(0.215234,-0.976562,0.976562,0.215234,9042.19,21298.7)">
                    <text x="17773.2px" y="5023.32px" style="font-family:'Manrope-Bold', 'Manrope';font-weight:700;font-size:13px;fill:rgb(19,19,19);">a</text>
                </g>
                <g transform="matrix(0.36493,-0.931035,0.931035,0.36493,6618.17,19734.5)">
                    <text x="17774.8px" y="5015.99px" style="font-family:'Manrope-Bold', 'Manrope';font-weight:700;font-size:13px;fill:rgb(19,19,19);">d</text>
                </g>
                <g transform="matrix(0.475546,-0.879691,0.879691,0.475546,4917.65,18265.8)">
                    <text x="17777.8px" y="5008.59px" style="font-family:'Manrope-Bold', 'Manrope';font-weight:700;font-size:13px;fill:rgb(19,19,19);">i</text>
                </g>
                <g transform="matrix(0.577517,-0.816379,0.816379,0.577517,3425.3,16629.4)">
                    <text x="17779.5px" y="5005.3px" style="font-family:'Manrope-Bold', 'Manrope';font-weight:700;font-size:13px;fill:rgb(19,19,19);">n</text>
                </g>
                <g transform="matrix(0.698102,-0.715998,0.715998,0.698102,1789.98,14242.5)">
                    <text x="17784.2px" y="4998.66px" style="font-family:'Manrope-Bold', 'Manrope';font-weight:700;font-size:13px;fill:rgb(19,19,19);">g</text>
                </g>
                <g transform="matrix(0.840529,-0.541766,0.541766,0.840529,134.305,10435.9)">
                    <text x="17794px" y="4989.82px" style="font-family:'Manrope-Bold', 'Manrope';font-weight:700;font-size:13px;fill:rgb(19,19,19);">l</text>
                </g>
                <g transform="matrix(0.89844,-0.439097,0.439097,0.89844,-382.632,8321.16)">
                    <text x="17797px" y="4987.74px" style="font-family:'Manrope-Bold', 'Manrope';font-weight:700;font-size:13px;fill:rgb(19,19,19);">o</text>
                </g>
                <g transform="matrix(0.955491,-0.295021,0.295021,0.955491,-678.001,5474.48)">
                    <text x="17804.2px" y="4984.23px" style="font-family:'Manrope-Bold', 'Manrope';font-weight:700;font-size:13px;fill:rgb(19,19,19);">a</text>
                </g>
                <g transform="matrix(0.989773,-0.142654,0.142654,0.989773,-528.542,2591.82)">
                    <text x="17811.4px" y="4982.03px" style="font-family:'Manrope-Bold', 'Manrope';font-weight:700;font-size:13px;fill:rgb(19,19,19);">d</text>
                </g>
                <g transform="matrix(0.999754,-0.0221944,0.0221944,0.999754,-106.161,396.716)">
                    <text x="17819.4px" y="4981.03px" style="font-family:'Manrope-Bold', 'Manrope';font-weight:700;font-size:13px;fill:rgb(19,19,19);">i</text>
                </g>
                <g transform="matrix(0.995338,0.0964482,-0.0964482,0.995338,563.481,-1695.78)">
                    <text x="17823px" y="4980.81px" style="font-family:'Manrope-Bold', 'Manrope';font-weight:700;font-size:13px;fill:rgb(19,19,19);">n</text>
                </g>
                <g transform="matrix(0.967617,0.252423,-0.252423,0.967617,1834.9,-4339.67)">
                    <text x="17831.1px" y="4981.61px" style="font-family:'Manrope-Bold', 'Manrope';font-weight:700;font-size:13px;fill:rgb(19,19,19);">g</text>
                </g>
                <g transform="matrix(0.885393,0.464844,-0.464844,0.885393,4362.62,-7723.1)">
                    <text x="17843.6px" y="4985.77px" style="font-family:'Manrope-Bold', 'Manrope';font-weight:700;font-size:13px;fill:rgb(19,19,19);">l</text>
                </g>
                <g transform="matrix(0.82452,0.565833,-0.565833,0.82452,5953.79,-9223.2)">
                    <text x="17846.9px" y="4987.36px" style="font-family:'Manrope-Bold', 'Manrope';font-weight:700;font-size:13px;fill:rgb(19,19,19);">o</text>
                </g>
                <g transform="matrix(0.728357,0.685198,-0.685198,0.728357,8270.27,-10877.2)">
                    <text x="17853.6px" y="4991.94px" style="font-family:'Manrope-Bold', 'Manrope';font-weight:700;font-size:13px;fill:rgb(19,19,19);">a</text>
                </g>
                <g transform="matrix(0.614447,0.788958,-0.788958,0.614447,10828.1,-12163.4)">
                    <text x="17859px" y="4997.09px" style="font-family:'Manrope-Bold', 'Manrope';font-weight:700;font-size:13px;fill:rgb(19,19,19);">d</text>
                </g>
                <g transform="matrix(0.514602,0.857429,-0.857429,0.514602,12961.2,-12888.3)">
                    <text x="17863.8px" y="5003.49px" style="font-family:'Manrope-Bold', 'Manrope';font-weight:700;font-size:13px;fill:rgb(19,19,19);">i</text>
                </g>
                <g transform="matrix(0.408023,0.912972,-0.912972,0.408023,15147,-13347.2)">
                    <text x="17865.8px" y="5006.55px" style="font-family:'Manrope-Bold', 'Manrope';font-weight:700;font-size:13px;fill:rgb(19,19,19);">n</text>
                </g>
                <g transform="matrix(0.257695,0.966226,-0.966226,0.257695,18109,-13543.7)">
                    <text x="17869.1px" y="5014.02px" style="font-family:'Manrope-Bold', 'Manrope';font-weight:700;font-size:13px;fill:rgb(19,19,19);">g</text>
                </g>
            </g>
        </g>
    </g>
</svg>
