<?xml version="1.0" encoding="UTF-8" standalone="no"?>
<!DOCTYPE svg PUBLIC "-//W3C//DTD SVG 1.1//EN" "http://www.w3.org/Graphics/SVG/1.1/DTD/svg11.dtd">
<svg width="100%" height="100%" viewBox="0 0 119 119" version="1.1" xmlns="http://www.w3.org/2000/svg" xmlns:xlink="http://www.w3.org/1999/xlink" xml:space="preserve" xmlns:serif="http://www.serif.com/" style="fill-rule:evenodd;clip-rule:evenodd;stroke-linejoin:round;stroke-miterlimit:2;">
    <g transform="matrix(1,0,0,1,-17613,-5004)">
        <g transform="matrix(1,0,0,1,11156.5,4630.77)">
            <g transform="matrix(1,0,0,1,-11306.1,-4598.02)">
                <g transform="matrix(0.0736041,0.997288,-0.997288,0.0736041,21567.4,-13167.9)">
                    <g transform="matrix(13,0,0,13,17871.5,5024.97)">
                        <rect x="0.08" y="-0.735" width="0.12" height="0.735" style="fill:rgb(19,19,19);fill-rule:nonzero;"/>
                    </g>
                </g>
                <g transform="matrix(-0.0427842,0.999084,-0.999084,-0.0427842,23660.6,-12611.8)">
                    <g transform="matrix(13,0,0,13,17871.9,5028.61)">
                        <path d="M0.309,0.015C0.47,0.015 0.578,-0.102 0.578,-0.27C0.578,-0.437 0.471,-0.555 0.309,-0.555C0.149,-0.555 0.04,-0.439 0.04,-0.27C0.04,-0.103 0.146,0.015 0.309,0.015ZM0.309,-0.098C0.216,-0.098 0.168,-0.165 0.168,-0.27C0.168,-0.372 0.212,-0.442 0.309,-0.442C0.403,-0.442 0.451,-0.375 0.451,-0.27C0.451,-0.169 0.404,-0.098 0.309,-0.098Z" style="fill:rgb(19,19,19);fill-rule:nonzero;"/>
                    </g>
                </g>
                <g transform="matrix(-0.195309,0.980742,-0.980742,-0.195309,26301.7,-11507)">
                    <g transform="matrix(13,0,0,13,17871.5,5036.64)">
                        <path d="M0.496,-0.455C0.46,-0.526 0.384,-0.555 0.288,-0.555C0.16,-0.555 0.086,-0.495 0.059,-0.404L0.17,-0.369C0.187,-0.424 0.239,-0.445 0.287,-0.445C0.361,-0.445 0.394,-0.416 0.398,-0.353C0.303,-0.34 0.22,-0.328 0.163,-0.31C0.078,-0.28 0.04,-0.226 0.04,-0.148C0.04,-0.059 0.104,0.015 0.221,0.015C0.307,0.015 0.365,-0.013 0.411,-0.073L0.411,-0L0.516,-0L0.516,-0.331C0.516,-0.378 0.515,-0.417 0.496,-0.455ZM0.384,-0.171C0.373,-0.133 0.327,-0.081 0.245,-0.081C0.188,-0.081 0.158,-0.11 0.158,-0.15C0.158,-0.184 0.182,-0.205 0.224,-0.221C0.262,-0.233 0.311,-0.241 0.397,-0.255C0.396,-0.229 0.394,-0.195 0.384,-0.171Z" style="fill:rgb(19,19,19);fill-rule:nonzero;"/>
                    </g>
                </g>
                <g transform="matrix(-0.345879,0.938279,-0.938279,-0.345879,28783.6,-9978.51)">
                    <g transform="matrix(13,0,0,13,17870.1,5044)">
                        <path d="M0.426,-0.72L0.426,-0.513C0.39,-0.54 0.345,-0.555 0.291,-0.555C0.138,-0.555 0.04,-0.434 0.04,-0.27C0.04,-0.108 0.137,0.015 0.287,0.015C0.35,0.015 0.401,-0.005 0.44,-0.039L0.44,-0L0.547,-0L0.547,-0.72L0.426,-0.72ZM0.305,-0.093C0.211,-0.093 0.168,-0.171 0.168,-0.27C0.168,-0.368 0.212,-0.447 0.309,-0.447C0.401,-0.447 0.44,-0.375 0.44,-0.27C0.44,-0.165 0.402,-0.093 0.305,-0.093Z" style="fill:rgb(19,19,19);fill-rule:nonzero;"/>
                    </g>
                </g>
                <g transform="matrix(-0.458113,0.888894,-0.888894,-0.458113,30542.6,-8516.36)">
                    <g transform="matrix(13,0,0,13,17867.2,5051.48)">
                        <path d="M0.08,-0.624L0.2,-0.624L0.2,-0.734L0.08,-0.734L0.08,-0.624ZM0.08,-0L0.2,-0L0.2,-0.54L0.08,-0.54L0.08,-0Z" style="fill:rgb(19,19,19);fill-rule:nonzero;"/>
                    </g>
                </g>
                <g transform="matrix(-0.561186,0.82769,-0.82769,-0.561186,32075.3,-6895.72)">
                    <g transform="matrix(13,0,0,13,17865.6,5054.79)">
                        <path d="M0.353,-0.555C0.275,-0.555 0.216,-0.527 0.177,-0.48L0.177,-0.54L0.069,-0.54L0.069,-0L0.191,-0L0.191,-0.278C0.191,-0.409 0.256,-0.442 0.317,-0.442C0.433,-0.442 0.444,-0.327 0.444,-0.26L0.444,-0L0.566,-0L0.566,-0.302C0.566,-0.366 0.552,-0.555 0.353,-0.555Z" style="fill:rgb(19,19,19);fill-rule:nonzero;"/>
                    </g>
                </g>
                <g transform="matrix(-0.683569,0.729886,-0.729886,-0.683569,33764.6,-4515.09)">
                    <g transform="matrix(13,0,0,13,17861,5061.52)">
                        <path d="M0.44,-0.54L0.44,-0.502C0.402,-0.536 0.352,-0.555 0.291,-0.555C0.138,-0.555 0.04,-0.434 0.04,-0.27C0.04,-0.108 0.137,0.015 0.287,0.015C0.343,0.015 0.389,-0 0.426,-0.028L0.426,0.024C0.427,0.101 0.373,0.14 0.298,0.14C0.255,0.14 0.214,0.122 0.194,0.083L0.082,0.138C0.125,0.211 0.207,0.255 0.297,0.255C0.419,0.255 0.514,0.207 0.539,0.102C0.544,0.078 0.546,0.054 0.546,0.026L0.546,-0.54L0.44,-0.54ZM0.305,-0.093C0.211,-0.093 0.168,-0.171 0.168,-0.27C0.168,-0.368 0.212,-0.447 0.309,-0.447C0.401,-0.447 0.44,-0.375 0.44,-0.27C0.44,-0.165 0.402,-0.093 0.305,-0.093Z" style="fill:rgb(19,19,19);fill-rule:nonzero;"/>
                    </g>
                </g>
                <g transform="matrix(-0.829371,0.558699,-0.558699,-0.829371,35489.7,-697.658)">
                    <g transform="matrix(13,0,0,13,17851.4,5070.54)">
                        <rect x="0.08" y="-0.735" width="0.12" height="0.735" style="fill:rgb(19,19,19);fill-rule:nonzero;"/>
                    </g>
                </g>
                <g transform="matrix(-0.889415,0.457101,-0.457101,-0.889415,36041.8,1425.89)">
                    <g transform="matrix(13,0,0,13,17848.4,5072.69)">
                        <path d="M0.309,0.015C0.47,0.015 0.578,-0.102 0.578,-0.27C0.578,-0.437 0.471,-0.555 0.309,-0.555C0.149,-0.555 0.04,-0.439 0.04,-0.27C0.04,-0.103 0.146,0.015 0.309,0.015ZM0.309,-0.098C0.216,-0.098 0.168,-0.165 0.168,-0.27C0.168,-0.372 0.212,-0.442 0.309,-0.442C0.403,-0.442 0.451,-0.375 0.451,-0.27C0.451,-0.169 0.404,-0.098 0.309,-0.098Z" style="fill:rgb(19,19,19);fill-rule:nonzero;"/>
                    </g>
                </g>
                <g transform="matrix(-0.949359,0.314193,-0.314193,-0.949359,36374,4290.02)">
                    <g transform="matrix(13,0,0,13,17841.3,5076.35)">
                        <path d="M0.496,-0.455C0.46,-0.526 0.384,-0.555 0.288,-0.555C0.16,-0.555 0.086,-0.495 0.059,-0.404L0.17,-0.369C0.187,-0.424 0.239,-0.445 0.287,-0.445C0.361,-0.445 0.394,-0.416 0.398,-0.353C0.303,-0.34 0.22,-0.328 0.163,-0.31C0.078,-0.28 0.04,-0.226 0.04,-0.148C0.04,-0.059 0.104,0.015 0.221,0.015C0.307,0.015 0.365,-0.013 0.411,-0.073L0.411,-0L0.516,-0L0.516,-0.331C0.516,-0.378 0.515,-0.417 0.496,-0.455ZM0.384,-0.171C0.373,-0.133 0.327,-0.081 0.245,-0.081C0.188,-0.081 0.158,-0.11 0.158,-0.15C0.158,-0.184 0.182,-0.205 0.224,-0.221C0.262,-0.233 0.311,-0.241 0.397,-0.255C0.396,-0.229 0.394,-0.195 0.384,-0.171Z" style="fill:rgb(19,19,19);fill-rule:nonzero;"/>
                    </g>
                </g>
                <g transform="matrix(-0.986711,0.162484,-0.162484,-0.986711,36256.5,7192.13)">
                    <g transform="matrix(13,0,0,13,17834.1,5078.7)">
                        <path d="M0.426,-0.72L0.426,-0.513C0.39,-0.54 0.345,-0.555 0.291,-0.555C0.138,-0.555 0.04,-0.434 0.04,-0.27C0.04,-0.108 0.137,0.015 0.287,0.015C0.35,0.015 0.401,-0.005 0.44,-0.039L0.44,-0L0.547,-0L0.547,-0.72L0.426,-0.72ZM0.305,-0.093C0.211,-0.093 0.168,-0.171 0.168,-0.27C0.168,-0.368 0.212,-0.447 0.309,-0.447C0.401,-0.447 0.44,-0.375 0.44,-0.27C0.44,-0.165 0.402,-0.093 0.305,-0.093Z" style="fill:rgb(19,19,19);fill-rule:nonzero;"/>
                    </g>
                </g>
                <g transform="matrix(-0.999118,0.0419928,-0.0419928,-0.999118,35850,9406.66)">
                    <g transform="matrix(13,0,0,13,17826.2,5079.85)">
                        <path d="M0.08,-0.624L0.2,-0.624L0.2,-0.734L0.08,-0.734L0.08,-0.624ZM0.08,-0L0.2,-0L0.2,-0.54L0.08,-0.54L0.08,-0Z" style="fill:rgb(19,19,19);fill-rule:nonzero;"/>
                    </g>
                </g>
                <g transform="matrix(-0.99705,-0.0767592,0.0767592,-0.99705,35202.6,11513.3)">
                    <g transform="matrix(13,0,0,13,17822.6,5080.14)">
                        <path d="M0.353,-0.555C0.275,-0.555 0.216,-0.527 0.177,-0.48L0.177,-0.54L0.069,-0.54L0.069,-0L0.191,-0L0.191,-0.278C0.191,-0.409 0.256,-0.442 0.317,-0.442C0.433,-0.442 0.444,-0.327 0.444,-0.26L0.444,-0L0.566,-0L0.566,-0.302C0.566,-0.366 0.552,-0.555 0.353,-0.555Z" style="fill:rgb(19,19,19);fill-rule:nonzero;"/>
                    </g>
                </g>
                <g transform="matrix(-0.972445,-0.233131,0.233131,-0.972445,33953.8,14172.1)">
                    <g transform="matrix(13,0,0,13,17814.4,5079.5)">
                        <path d="M0.44,-0.54L0.44,-0.502C0.402,-0.536 0.352,-0.555 0.291,-0.555C0.138,-0.555 0.04,-0.434 0.04,-0.27C0.04,-0.108 0.137,0.015 0.287,0.015C0.343,0.015 0.389,-0 0.426,-0.028L0.426,0.024C0.427,0.101 0.373,0.14 0.298,0.14C0.255,0.14 0.214,0.122 0.194,0.083L0.082,0.138C0.125,0.211 0.207,0.255 0.297,0.255C0.419,0.255 0.514,0.207 0.539,0.102C0.544,0.078 0.546,0.054 0.546,0.026L0.546,-0.54L0.44,-0.54ZM0.305,-0.093C0.211,-0.093 0.168,-0.171 0.168,-0.27C0.168,-0.368 0.212,-0.447 0.309,-0.447C0.401,-0.447 0.44,-0.375 0.44,-0.27C0.44,-0.165 0.402,-0.093 0.305,-0.093Z" style="fill:rgb(19,19,19);fill-rule:nonzero;"/>
                    </g>
                </g>
                <g transform="matrix(-0.894565,-0.446937,0.446937,-0.894565,31458.3,17572.4)">
                    <g transform="matrix(13,0,0,13,17801.8,5075.6)">
                        <rect x="0.08" y="-0.735" width="0.12" height="0.735" style="fill:rgb(19,19,19);fill-rule:nonzero;"/>
                    </g>
                </g>
                <g transform="matrix(-0.83561,-0.549323,0.549323,-0.83561,29883.8,19091.2)">
                    <g transform="matrix(13,0,0,13,17798.5,5074.07)">
                        <path d="M0.309,0.015C0.47,0.015 0.578,-0.102 0.578,-0.27C0.578,-0.437 0.471,-0.555 0.309,-0.555C0.149,-0.555 0.04,-0.439 0.04,-0.27C0.04,-0.103 0.146,0.015 0.309,0.015ZM0.309,-0.098C0.216,-0.098 0.168,-0.165 0.168,-0.27C0.168,-0.372 0.212,-0.442 0.309,-0.442C0.403,-0.442 0.451,-0.375 0.451,-0.27C0.451,-0.169 0.404,-0.098 0.309,-0.098Z" style="fill:rgb(19,19,19);fill-rule:nonzero;"/>
                    </g>
                </g>
                <g transform="matrix(-0.741986,-0.670416,0.670416,-0.741986,27594.3,20759.1)">
                    <g transform="matrix(13,0,0,13,17791.8,5069.63)">
                        <path d="M0.496,-0.455C0.46,-0.526 0.384,-0.555 0.288,-0.555C0.16,-0.555 0.086,-0.495 0.059,-0.404L0.17,-0.369C0.187,-0.424 0.239,-0.445 0.287,-0.445C0.361,-0.445 0.394,-0.416 0.398,-0.353C0.303,-0.34 0.22,-0.328 0.163,-0.31C0.078,-0.28 0.04,-0.226 0.04,-0.148C0.04,-0.059 0.104,0.015 0.221,0.015C0.307,0.015 0.365,-0.013 0.411,-0.073L0.411,-0L0.516,-0L0.516,-0.331C0.516,-0.378 0.515,-0.417 0.496,-0.455ZM0.384,-0.171C0.373,-0.133 0.327,-0.081 0.245,-0.081C0.188,-0.081 0.158,-0.11 0.158,-0.15C0.158,-0.184 0.182,-0.205 0.224,-0.221C0.262,-0.233 0.311,-0.241 0.397,-0.255C0.396,-0.229 0.394,-0.195 0.384,-0.171Z" style="fill:rgb(19,19,19);fill-rule:nonzero;"/>
                    </g>
                </g>
                <g transform="matrix(-0.630225,-0.776413,0.776413,-0.630225,25063.4,22065.9)">
                    <g transform="matrix(13,0,0,13,17786.2,5064.6)">
                        <path d="M0.426,-0.72L0.426,-0.513C0.39,-0.54 0.345,-0.555 0.291,-0.555C0.138,-0.555 0.04,-0.434 0.04,-0.27C0.04,-0.108 0.137,0.015 0.287,0.015C0.35,0.015 0.401,-0.005 0.44,-0.039L0.44,-0L0.547,-0L0.547,-0.72L0.426,-0.72ZM0.305,-0.093C0.211,-0.093 0.168,-0.171 0.168,-0.27C0.168,-0.368 0.212,-0.447 0.309,-0.447C0.401,-0.447 0.44,-0.375 0.44,-0.27C0.44,-0.165 0.402,-0.093 0.305,-0.093Z" style="fill:rgb(19,19,19);fill-rule:nonzero;"/>
                    </g>
                </g>
                <g transform="matrix(-0.531613,-0.846987,0.846987,-0.531613,22949.8,22807.9)">
                    <g transform="matrix(13,0,0,13,17781.3,5058.28)">
                        <path d="M0.08,-0.624L0.2,-0.624L0.2,-0.734L0.08,-0.734L0.08,-0.624ZM0.08,-0L0.2,-0L0.2,-0.54L0.08,-0.54L0.08,-0Z" style="fill:rgb(19,19,19);fill-rule:nonzero;"/>
                    </g>
                </g>
                <g transform="matrix(-0.426053,-0.904698,0.904698,-0.426053,20780.7,23293.9)">
                    <g transform="matrix(13,0,0,13,17779.2,5055.25)">
                        <path d="M0.353,-0.555C0.275,-0.555 0.216,-0.527 0.177,-0.48L0.177,-0.54L0.069,-0.54L0.069,-0L0.191,-0L0.191,-0.278C0.191,-0.409 0.256,-0.442 0.317,-0.442C0.433,-0.442 0.444,-0.327 0.444,-0.26L0.444,-0L0.566,-0L0.566,-0.302C0.566,-0.366 0.552,-0.555 0.353,-0.555Z" style="fill:rgb(19,19,19);fill-rule:nonzero;"/>
                    </g>
                </g>
                <g transform="matrix(-0.277178,-0.960819,0.960819,-0.277178,17852.7,23526.3)">
                    <g transform="matrix(13,0,0,13,17775.8,5047.86)">
                        <path d="M0.44,-0.54L0.44,-0.502C0.402,-0.536 0.352,-0.555 0.291,-0.555C0.138,-0.555 0.04,-0.434 0.04,-0.27C0.04,-0.108 0.137,0.015 0.287,0.015C0.343,0.015 0.389,-0 0.426,-0.028L0.426,0.024C0.427,0.101 0.373,0.14 0.298,0.14C0.255,0.14 0.214,0.122 0.194,0.083L0.082,0.138C0.125,0.211 0.207,0.255 0.297,0.255C0.419,0.255 0.514,0.207 0.539,0.102C0.544,0.078 0.546,0.054 0.546,0.026L0.546,-0.54L0.44,-0.54ZM0.305,-0.093C0.211,-0.093 0.168,-0.171 0.168,-0.27C0.168,-0.368 0.212,-0.447 0.309,-0.447C0.401,-0.447 0.44,-0.375 0.44,-0.27C0.44,-0.165 0.402,-0.093 0.305,-0.093Z" style="fill:rgb(19,19,19);fill-rule:nonzero;"/>
                    </g>
                </g>
                <g transform="matrix(-0.0538584,-0.998549,0.998549,-0.0538584,13702.5,23053.3)">
                    <g transform="matrix(13,0,0,13,17773,5035)">
                        <rect x="0.08" y="-0.735" width="0.12" height="0.735" style="fill:rgb(19,19,19);fill-rule:nonzero;"/>
                    </g>
                </g>
                <g transform="matrix(0.0625517,-0.998042,0.998042,0.0625517,11639.4,22454.5)">
                    <g transform="matrix(13,0,0,13,17772.6,5031.35)">
                        <path d="M0.309,0.015C0.47,0.015 0.578,-0.102 0.578,-0.27C0.578,-0.437 0.471,-0.555 0.309,-0.555C0.149,-0.555 0.04,-0.439 0.04,-0.27C0.04,-0.103 0.146,0.015 0.309,0.015ZM0.309,-0.098C0.216,-0.098 0.168,-0.165 0.168,-0.27C0.168,-0.372 0.212,-0.442 0.309,-0.442C0.403,-0.442 0.451,-0.375 0.451,-0.27C0.451,-0.169 0.404,-0.098 0.309,-0.098Z" style="fill:rgb(19,19,19);fill-rule:nonzero;"/>
                    </g>
                </g>
                <g transform="matrix(0.215234,-0.976562,0.976562,0.215234,9042.19,21298.7)">
                    <g transform="matrix(13,0,0,13,17773.2,5023.32)">
                        <path d="M0.496,-0.455C0.46,-0.526 0.384,-0.555 0.288,-0.555C0.16,-0.555 0.086,-0.495 0.059,-0.404L0.17,-0.369C0.187,-0.424 0.239,-0.445 0.287,-0.445C0.361,-0.445 0.394,-0.416 0.398,-0.353C0.303,-0.34 0.22,-0.328 0.163,-0.31C0.078,-0.28 0.04,-0.226 0.04,-0.148C0.04,-0.059 0.104,0.015 0.221,0.015C0.307,0.015 0.365,-0.013 0.411,-0.073L0.411,-0L0.516,-0L0.516,-0.331C0.516,-0.378 0.515,-0.417 0.496,-0.455ZM0.384,-0.171C0.373,-0.133 0.327,-0.081 0.245,-0.081C0.188,-0.081 0.158,-0.11 0.158,-0.15C0.158,-0.184 0.182,-0.205 0.224,-0.221C0.262,-0.233 0.311,-0.241 0.397,-0.255C0.396,-0.229 0.394,-0.195 0.384,-0.171Z" style="fill:rgb(19,19,19);fill-rule:nonzero;"/>
                    </g>
                </g>
                <g transform="matrix(0.36493,-0.931035,0.931035,0.36493,6618.17,19734.5)">
                    <g transform="matrix(13,0,0,13,17774.8,5015.99)">
                        <path d="M0.426,-0.72L0.426,-0.513C0.39,-0.54 0.345,-0.555 0.291,-0.555C0.138,-0.555 0.04,-0.434 0.04,-0.27C0.04,-0.108 0.137,0.015 0.287,0.015C0.35,0.015 0.401,-0.005 0.44,-0.039L0.44,-0L0.547,-0L0.547,-0.72L0.426,-0.72ZM0.305,-0.093C0.211,-0.093 0.168,-0.171 0.168,-0.27C0.168,-0.368 0.212,-0.447 0.309,-0.447C0.401,-0.447 0.44,-0.375 0.44,-0.27C0.44,-0.165 0.402,-0.093 0.305,-0.093Z" style="fill:rgb(19,19,19);fill-rule:nonzero;"/>
                    </g>
                </g>
                <g transform="matrix(0.475546,-0.879691,0.879691,0.475546,4917.65,18265.8)">
                    <g transform="matrix(13,0,0,13,17777.8,5008.59)">
                        <path d="M0.08,-0.624L0.2,-0.624L0.2,-0.734L0.08,-0.734L0.08,-0.624ZM0.08,-0L0.2,-0L0.2,-0.54L0.08,-0.54L0.08,-0Z" style="fill:rgb(19,19,19);fill-rule:nonzero;"/>
                    </g>
                </g>
                <g transform="matrix(0.577517,-0.816379,0.816379,0.577517,3425.3,16629.4)">
                    <g transform="matrix(13,0,0,13,17779.5,5005.3)">
                        <path d="M0.353,-0.555C0.275,-0.555 0.216,-0.527 0.177,-0.48L0.177,-0.54L0.069,-0.54L0.069,-0L0.191,-0L0.191,-0.278C0.191,-0.409 0.256,-0.442 0.317,-0.442C0.433,-0.442 0.444,-0.327 0.444,-0.26L0.444,-0L0.566,-0L0.566,-0.302C0.566,-0.366 0.552,-0.555 0.353,-0.555Z" style="fill:rgb(19,19,19);fill-rule:nonzero;"/>
                    </g>
                </g>
                <g transform="matrix(0.698102,-0.715998,0.715998,0.698102,1789.98,14242.5)">
                    <g transform="matrix(13,0,0,13,17784.2,4998.66)">
                        <path d="M0.44,-0.54L0.44,-0.502C0.402,-0.536 0.352,-0.555 0.291,-0.555C0.138,-0.555 0.04,-0.434 0.04,-0.27C0.04,-0.108 0.137,0.015 0.287,0.015C0.343,0.015 0.389,-0 0.426,-0.028L0.426,0.024C0.427,0.101 0.373,0.14 0.298,0.14C0.255,0.14 0.214,0.122 0.194,0.083L0.082,0.138C0.125,0.211 0.207,0.255 0.297,0.255C0.419,0.255 0.514,0.207 0.539,0.102C0.544,0.078 0.546,0.054 0.546,0.026L0.546,-0.54L0.44,-0.54ZM0.305,-0.093C0.211,-0.093 0.168,-0.171 0.168,-0.27C0.168,-0.368 0.212,-0.447 0.309,-0.447C0.401,-0.447 0.44,-0.375 0.44,-0.27C0.44,-0.165 0.402,-0.093 0.305,-0.093Z" style="fill:rgb(19,19,19);fill-rule:nonzero;"/>
                    </g>
                </g>
                <g transform="matrix(0.840529,-0.541766,0.541766,0.840529,134.305,10435.9)">
                    <g transform="matrix(13,0,0,13,17794,4989.82)">
                        <rect x="0.08" y="-0.735" width="0.12" height="0.735" style="fill:rgb(19,19,19);fill-rule:nonzero;"/>
                    </g>
                </g>
                <g transform="matrix(0.89844,-0.439097,0.439097,0.89844,-382.632,8321.16)">
                    <g transform="matrix(13,0,0,13,17797,4987.74)">
                        <path d="M0.309,0.015C0.47,0.015 0.578,-0.102 0.578,-0.27C0.578,-0.437 0.471,-0.555 0.309,-0.555C0.149,-0.555 0.04,-0.439 0.04,-0.27C0.04,-0.103 0.146,0.015 0.309,0.015ZM0.309,-0.098C0.216,-0.098 0.168,-0.165 0.168,-0.27C0.168,-0.372 0.212,-0.442 0.309,-0.442C0.403,-0.442 0.451,-0.375 0.451,-0.27C0.451,-0.169 0.404,-0.098 0.309,-0.098Z" style="fill:rgb(19,19,19);fill-rule:nonzero;"/>
                    </g>
                </g>
                <g transform="matrix(0.955491,-0.295021,0.295021,0.955491,-678.001,5474.48)">
                    <g transform="matrix(13,0,0,13,17804.2,4984.23)">
                        <path d="M0.496,-0.455C0.46,-0.526 0.384,-0.555 0.288,-0.555C0.16,-0.555 0.086,-0.495 0.059,-0.404L0.17,-0.369C0.187,-0.424 0.239,-0.445 0.287,-0.445C0.361,-0.445 0.394,-0.416 0.398,-0.353C0.303,-0.34 0.22,-0.328 0.163,-0.31C0.078,-0.28 0.04,-0.226 0.04,-0.148C0.04,-0.059 0.104,0.015 0.221,0.015C0.307,0.015 0.365,-0.013 0.411,-0.073L0.411,-0L0.516,-0L0.516,-0.331C0.516,-0.378 0.515,-0.417 0.496,-0.455ZM0.384,-0.171C0.373,-0.133 0.327,-0.081 0.245,-0.081C0.188,-0.081 0.158,-0.11 0.158,-0.15C0.158,-0.184 0.182,-0.205 0.224,-0.221C0.262,-0.233 0.311,-0.241 0.397,-0.255C0.396,-0.229 0.394,-0.195 0.384,-0.171Z" style="fill:rgb(19,19,19);fill-rule:nonzero;"/>
                    </g>
                </g>
                <g transform="matrix(0.989773,-0.142654,0.142654,0.989773,-528.542,2591.82)">
                    <g transform="matrix(13,0,0,13,17811.4,4982.03)">
                        <path d="M0.426,-0.72L0.426,-0.513C0.39,-0.54 0.345,-0.555 0.291,-0.555C0.138,-0.555 0.04,-0.434 0.04,-0.27C0.04,-0.108 0.137,0.015 0.287,0.015C0.35,0.015 0.401,-0.005 0.44,-0.039L0.44,-0L0.547,-0L0.547,-0.72L0.426,-0.72ZM0.305,-0.093C0.211,-0.093 0.168,-0.171 0.168,-0.27C0.168,-0.368 0.212,-0.447 0.309,-0.447C0.401,-0.447 0.44,-0.375 0.44,-0.27C0.44,-0.165 0.402,-0.093 0.305,-0.093Z" style="fill:rgb(19,19,19);fill-rule:nonzero;"/>
                    </g>
                </g>
                <g transform="matrix(0.999754,-0.0221944,0.0221944,0.999754,-106.161,396.716)">
                    <g transform="matrix(13,0,0,13,17819.4,4981.03)">
                        <path d="M0.08,-0.624L0.2,-0.624L0.2,-0.734L0.08,-0.734L0.08,-0.624ZM0.08,-0L0.2,-0L0.2,-0.54L0.08,-0.54L0.08,-0Z" style="fill:rgb(19,19,19);fill-rule:nonzero;"/>
                    </g>
                </g>
                <g transform="matrix(0.995338,0.0964482,-0.0964482,0.995338,563.481,-1695.78)">
                    <g transform="matrix(13,0,0,13,17823,4980.81)">
                        <path d="M0.353,-0.555C0.275,-0.555 0.216,-0.527 0.177,-0.48L0.177,-0.54L0.069,-0.54L0.069,-0L0.191,-0L0.191,-0.278C0.191,-0.409 0.256,-0.442 0.317,-0.442C0.433,-0.442 0.444,-0.327 0.444,-0.26L0.444,-0L0.566,-0L0.566,-0.302C0.566,-0.366 0.552,-0.555 0.353,-0.555Z" style="fill:rgb(19,19,19);fill-rule:nonzero;"/>
                    </g>
                </g>
                <g transform="matrix(0.967617,0.252423,-0.252423,0.967617,1834.9,-4339.67)">
                    <g transform="matrix(13,0,0,13,17831.1,4981.61)">
                        <path d="M0.44,-0.54L0.44,-0.502C0.402,-0.536 0.352,-0.555 0.291,-0.555C0.138,-0.555 0.04,-0.434 0.04,-0.27C0.04,-0.108 0.137,0.015 0.287,0.015C0.343,0.015 0.389,-0 0.426,-0.028L0.426,0.024C0.427,0.101 0.373,0.14 0.298,0.14C0.255,0.14 0.214,0.122 0.194,0.083L0.082,0.138C0.125,0.211 0.207,0.255 0.297,0.255C0.419,0.255 0.514,0.207 0.539,0.102C0.544,0.078 0.546,0.054 0.546,0.026L0.546,-0.54L0.44,-0.54ZM0.305,-0.093C0.211,-0.093 0.168,-0.171 0.168,-0.27C0.168,-0.368 0.212,-0.447 0.309,-0.447C0.401,-0.447 0.44,-0.375 0.44,-0.27C0.44,-0.165 0.402,-0.093 0.305,-0.093Z" style="fill:rgb(19,19,19);fill-rule:nonzero;"/>
                    </g>
                </g>
                <g transform="matrix(0.885393,0.464844,-0.464844,0.885393,4362.62,-7723.1)">
                    <g transform="matrix(13,0,0,13,17843.6,4985.77)">
                        <rect x="0.08" y="-0.735" width="0.12" height="0.735" style="fill:rgb(19,19,19);fill-rule:nonzero;"/>
                    </g>
                </g>
                <g transform="matrix(0.82452,0.565833,-0.565833,0.82452,5953.79,-9223.2)">
                    <g transform="matrix(13,0,0,13,17846.9,4987.36)">
                        <path d="M0.309,0.015C0.47,0.015 0.578,-0.102 0.578,-0.27C0.578,-0.437 0.471,-0.555 0.309,-0.555C0.149,-0.555 0.04,-0.439 0.04,-0.27C0.04,-0.103 0.146,0.015 0.309,0.015ZM0.309,-0.098C0.216,-0.098 0.168,-0.165 0.168,-0.27C0.168,-0.372 0.212,-0.442 0.309,-0.442C0.403,-0.442 0.451,-0.375 0.451,-0.27C0.451,-0.169 0.404,-0.098 0.309,-0.098Z" style="fill:rgb(19,19,19);fill-rule:nonzero;"/>
                    </g>
                </g>
                <g transform="matrix(0.728357,0.685198,-0.685198,0.728357,8270.27,-10877.2)">
                    <g transform="matrix(13,0,0,13,17853.6,4991.94)">
                        <path d="M0.496,-0.455C0.46,-0.526 0.384,-0.555 0.288,-0.555C0.16,-0.555 0.086,-0.495 0.059,-0.404L0.17,-0.369C0.187,-0.424 0.239,-0.445 0.287,-0.445C0.361,-0.445 0.394,-0.416 0.398,-0.353C0.303,-0.34 0.22,-0.328 0.163,-0.31C0.078,-0.28 0.04,-0.226 0.04,-0.148C0.04,-0.059 0.104,0.015 0.221,0.015C0.307,0.015 0.365,-0.013 0.411,-0.073L0.411,-0L0.516,-0L0.516,-0.331C0.516,-0.378 0.515,-0.417 0.496,-0.455ZM0.384,-0.171C0.373,-0.133 0.327,-0.081 0.245,-0.081C0.188,-0.081 0.158,-0.11 0.158,-0.15C0.158,-0.184 0.182,-0.205 0.224,-0.221C0.262,-0.233 0.311,-0.241 0.397,-0.255C0.396,-0.229 0.394,-0.195 0.384,-0.171Z" style="fill:rgb(19,19,19);fill-rule:nonzero;"/>
                    </g>
                </g>
                <g transform="matrix(0.614447,0.788958,-0.788958,0.614447,10828.1,-12163.4)">
                    <g transform="matrix(13,0,0,13,17859,4997.09)">
                        <path d="M0.426,-0.72L0.426,-0.513C0.39,-0.54 0.345,-0.555 0.291,-0.555C0.138,-0.555 0.04,-0.434 0.04,-0.27C0.04,-0.108 0.137,0.015 0.287,0.015C0.35,0.015 0.401,-0.005 0.44,-0.039L0.44,-0L0.547,-0L0.547,-0.72L0.426,-0.72ZM0.305,-0.093C0.211,-0.093 0.168,-0.171 0.168,-0.27C0.168,-0.368 0.212,-0.447 0.309,-0.447C0.401,-0.447 0.44,-0.375 0.44,-0.27C0.44,-0.165 0.402,-0.093 0.305,-0.093Z" style="fill:rgb(19,19,19);fill-rule:nonzero;"/>
                    </g>
                </g>
                <g transform="matrix(0.514602,0.857429,-0.857429,0.514602,12961.2,-12888.3)">
                    <g transform="matrix(13,0,0,13,17863.8,5003.49)">
                        <path d="M0.08,-0.624L0.2,-0.624L0.2,-0.734L0.08,-0.734L0.08,-0.624ZM0.08,-0L0.2,-0L0.2,-0.54L0.08,-0.54L0.08,-0Z" style="fill:rgb(19,19,19);fill-rule:nonzero;"/>
                    </g>
                </g>
                <g transform="matrix(0.408023,0.912972,-0.912972,0.408023,15147,-13347.2)">
                    <g transform="matrix(13,0,0,13,17865.8,5006.55)">
                        <path d="M0.353,-0.555C0.275,-0.555 0.216,-0.527 0.177,-0.48L0.177,-0.54L0.069,-0.54L0.069,-0L0.191,-0L0.191,-0.278C0.191,-0.409 0.256,-0.442 0.317,-0.442C0.433,-0.442 0.444,-0.327 0.444,-0.26L0.444,-0L0.566,-0L0.566,-0.302C0.566,-0.366 0.552,-0.555 0.353,-0.555Z" style="fill:rgb(19,19,19);fill-rule:nonzero;"/>
                    </g>
                </g>
                <g transform="matrix(0.257695,0.966226,-0.966226,0.257695,18109,-13543.7)">
                    <g transform="matrix(13,0,0,13,17869.1,5014.02)">
                        <path d="M0.44,-0.54L0.44,-0.502C0.402,-0.536 0.352,-0.555 0.291,-0.555C0.138,-0.555 0.04,-0.434 0.04,-0.27C0.04,-0.108 0.137,0.015 0.287,0.015C0.343,0.015 0.389,-0 0.426,-0.028L0.426,0.024C0.427,0.101 0.373,0.14 0.298,0.14C0.255,0.14 0.214,0.122 0.194,0.083L0.082,0.138C0.125,0.211 0.207,0.255 0.297,0.255C0.419,0.255 0.514,0.207 0.539,0.102C0.544,0.078 0.546,0.054 0.546,0.026L0.546,-0.54L0.44,-0.54ZM0.305,-0.093C0.211,-0.093 0.168,-0.171 0.168,-0.27C0.168,-0.368 0.212,-0.447 0.309,-0.447C0.401,-0.447 0.44,-0.375 0.44,-0.27C0.44,-0.165 0.402,-0.093 0.305,-0.093Z" style="fill:rgb(19,19,19);fill-rule:nonzero;"/>
                    </g>
                </g>
            </g>
        </g>
    </g>
</svg>
