<svg viewBox="0 0 78 47" xmlns="http://www.w3.org/2000/svg" fill-rule="evenodd" clip-rule="evenodd" stroke-linejoin="round" stroke-miterlimit="2"><path class="mdv_vector" d="M50.628.141l.073.001.06.002.061.002.064.002.061.003.061.003.061.004.064.005.061.004.061.005.062.006.061.006.065.007.062.007.063.008.063.008.059.008.064.009.065.01.061.01.063.011.061.011.061.011.063.012.064.013.064.014.059.013.061.013.065.016.061.015.064.016.062.016.061.016.061.017.062.018.063.018.06.019.06.019.06.019.065.021.059.02.062.022.062.022.059.022.059.022.059.022.061.024.061.025.06.025.058.024.06.026.058.026.057.025.059.028.06.028.056.027.059.028.056.028.055.029.061.031.055.029.057.031.054.03.052.029.059.034.059.034.05.03.053.032.055.034.056.034.051.033.051.033.057.037.051.035.051.034.052.036.05.035.052.037.052.037.049.036.048.037.051.038.05.038.047.038.047.037.05.04.048.039.046.038.048.041.053.046.083.072.092.082.088.082.088.083.087.084.082.083.083.085.083.088.079.086.077.085.078.089.077.09.074.089.072.088.071.09.072.092.067.089.066.089.043.059.038.053.036.052.037.053.038.057.038.055.034.053.037.057.037.058.032.05.035.057.034.056.033.055.034.058.031.053.031.055.033.059.03.052.032.059.032.06.026.05.03.058.03.059.028.055.029.059.029.059.026.055.025.054.026.056.027.059.027.059.024.056.026.06.023.055.023.055.025.059.024.06.022.056.022.055.023.06.022.06.021.055.02.056.022.06.019.056.021.06.02.06.019.056.018.056.018.055.019.06.02.066.033.108.033.116.033.117.031.116.03.116.028.116.028.117.026.117.026.116.023.115.024.117.022.118.021.115.02.117.019.118.018.117.017.117.016.116.016.119.014.118.013.116.013.118.012.12.011.118.01.117.009.118.008.119.008.119.007.12.006.117.005.12.005.122.004.12.003.119.003.12.001.121.001.121.001.12-.001.088v.084l-.001.086-.001.087-.001.084-.002.086-.002.085-.003.086-.003.087-.003.085-.003.086-.004.087-.004.085-.004.087-.005.087-.004.085-.006.088-.005.087-.006.085-.006.088-.007.087-.007.086-.007.086-.007.087-.008.088-.008.088-.008.088-.009.086-.008.086-.01.088-.009.089-.01.088-.01.087-.01.086-.011.091-.011.088-.011.087-.012.087-.012.089-.012.089-.012.087-.013.089-.013.087-.013.09-.014.089-.013.088-.014.089-.015.09-.015.09-.015.087-.015.09-.015.088-.016.09-.016.091-.016.088-.017.09-.017.091-.017.088-.017.089-.019.093-.017.088-.019.091-.019.091-.018.089-.02.092-.019.089-.019.091-.021.092-.019.089-.021.09-.021.092-.021.093-.021.091-.021.09-.022.092-.023.092-.022.092-.023.091-.022.09-.023.093-.024.092-.024.093-.024.093-.024.091-.006.022.069.03.082.037.085.039.082.04.082.041.079.041.082.043.083.046.079.045.087.052.082.05.079.05.081.053.081.054.081.057.08.057.076.057.079.061.081.064.076.063.076.064.079.07.075.067.081.076.08.078.078.078.037.039.017-.017.069-.065.071-.064.069-.061.072-.062.076-.063.072-.059.076-.06.078-.06.077-.057.081-.059.082-.057.083-.057.084-.054.082-.053.089-.054.08-.048.071-.041.069-.038.064-.035.064-.035.069-.036.065-.033.065-.033.07-.034.067-.032.068-.031.07-.032.066-.029.066-.028.068-.028.068-.028.07-.027.066-.026.067-.025.07-.025.068-.024.064-.022.071-.023.068-.022.067-.021.071-.022.064-.018.067-.019.069-.019.067-.018.068-.017.068-.017.068-.016.067-.015.065-.015.067-.014.067-.014.068-.013.066-.012.066-.012.066-.011.065-.011.069-.011.065-.009.064-.009.065-.009.069-.008.064-.008.062-.006.067-.007.067-.007.061-.005.064-.005.066-.005.064-.005.064-.003.065-.004.063-.003.063-.003.063-.002.062-.001.063-.002.062-.001h.065l.067-.001.11.001.116.002.116.003.117.004.118.006.12.007.112.008.067.005.061.006.061.005.061.007.061.006.061.007.062.008.063.008.063.008.063.009.062.01.061.009.067.011.064.012.064.011.066.013.065.013.067.014.065.014.066.015.068.016.067.016.064.016.073.019.067.019.069.019.069.021.071.021.071.023.069.023.072.024.07.025.073.026.073.027.071.028.074.03.072.03.075.032.075.033.075.034.076.036.07.034.077.039.076.039.077.042.074.04.074.043.081.047.074.045.077.049.078.05.074.049.074.051.077.055.081.059.073.055.073.057.076.062.076.063.073.063.074.065.07.064.074.07.073.071.071.071.069.073.066.071.074.083.069.079.063.076.062.077.066.083.063.085.059.08.061.088.059.086.055.085.057.091.05.083.055.094.052.093.047.088.048.094.047.095.045.096.04.089.041.097.036.088.036.091.039.104.034.096.03.091.029.09.029.097.027.097.024.089.024.096.022.096.021.095.017.087.016.087.016.095.015.093.013.093.011.085.01.091.009.091.007.083.006.089.005.089.003.08.003.08.002.086v.097l-.001.119-.004.126-.006.127-.008.12-.01.111-.011.112-.013.114-.014.107-.016.104-.016.102-.018.099-.019.101-.019.095-.019.09-.021.091-.022.095-.022.088-.023.087-.023.087-.024.085-.025.087-.024.083-.025.079-.025.081-.027.084-.027.08-.027.079-.027.079-.028.078-.03.081-.029.078-.063.167-.141.329-.098.228-.099.227-.098.225-.098.225-.098.222-.036.083.002.001.099.023.096.023.094.024.098.026.097.027.095.027.099.03.096.031.098.032.098.034.096.034.098.037.095.036.098.04.098.04.098.043.098.043.096.045.096.046.095.048.099.05.095.051.095.052.096.055.095.056.094.057.092.058.096.061.09.061.093.064.093.066.088.065.089.067.089.07.09.073.085.071.085.072.087.077.082.076.083.077.083.081.08.081.078.079.077.083.078.085.075.085.074.086.073.088.071.088.07.091.067.087.067.091.066.094.064.092.062.094.062.096.059.095.055.092.056.095.056.1.053.096.051.098.051.099.046.095.047.098.045.101.044.098.041.099.041.099.038.098.037.099.037.102.035.098.031.095.033.103.03.098.028.098.029.102.026.098.023.095.024.097.023.101.021.097.02.101.019.096.016.093.017.096.015.1.014.096.014.095.011.095.012.095.01.098.009.094.008.093.007.094.006.093.005.093.005.093.004.093.002.092.002.095.001.091.001.091-.001.101-.001.098-.002.099-.003.098-.004.099-.005.104-.006.099-.007.097-.008.102-.009.103-.01.1-.011.1-.012.1-.013.1-.015.104-.016.103-.016.101-.018.101-.018.101-.021.104-.021.104-.022.098-.023.102-.026.107-.026.101-.027.099-.029.104-.03.104-.032.101-.032.101-.033.101-.036.104-.038.103-.037.101-.04.1-.04.1-.041.099-.044.102-.046.102-.045.096-.047.098-.051.103-.049.097-.052.097-.052.096-.054.095-.057.098-.057.097-.058.093-.059.093-.06.092-.061.091-.065.094-.066.092-.065.089-.065.087-.07.09-.069.087-.068.084-.071.084-.072.084-.075.084-.075.083-.075.08-.078.081-.078.079-.081.08-.083.08-.082.077-.083.076-.086.076-.089.076-.085.071-.088.072-.092.073-.09.069-.091.068-.093.066-.093.066-.097.066-.095.062-.097.063-.098.06-.096.058-.099.058-.1.056-.1.055-.101.053-.101.052-.101.05-.103.049-.104.047-.104.046-.102.044-.104.042-.103.041-.106.04-.105.039-.106.037-.106.035-.104.034-.104.031-.105.031-.107.03-.105.028-.107.027-.106.025-.105.024-.104.022-.105.021-.105.02-.106.019-.106.018-.104.015-.103.015-.107.014-.103.012-.103.011-.104.01-.103.009-.104.008-.103.007-.102.005-.103.005-.101.003-.103.003-.102.001-.098.001-.097-.001-.096-.001-.096-.002-.093-.003-.096-.004-.098-.004-.097-.006-.097-.007-.095-.007-.097-.009-.1-.009-.097-.011-.098-.011-.1-.013-.099-.014-.097-.014-.099-.016-.101-.018-.101-.018-.1-.02-.099-.02-.1-.022-.102-.024-.1-.024-.101-.026-.103-.028-.101-.029-.099-.029-.102-.032-.104-.033-.102-.035-.101-.036-.1-.037-.104-.039-.1-.04-.102-.043-.101-.043-.1-.045-.102-.047-.101-.049-.099-.05-.101-.052-.099-.053-.098-.055-.098-.055-.098-.059-.098-.06-.097-.061-.096-.064-.094-.064-.095-.066-.094-.068-.091-.068-.093-.071-.091-.073-.088-.072-.088-.074-.087-.076-.089-.08-.083-.078-.083-.079-.083-.082-.017-.018-.01.008-.073.062-.076.063-.077.062-.076.061-.08.062-.079.06-.079.059-.082.06-.083.06-.083.058-.085.057-.082.055-.078.051-.075.048-.074.045-.075.047-.076.046-.077.045-.076.044-.077.044-.079.043-.078.043-.077.041-.078.041-.08.04-.081.04-.081.04-.08.038-.08.037-.083.038-.083.037-.079.034-.084.035-.084.035-.082.032-.085.033-.085.032-.083.031-.084.03-.086.03-.084.028-.086.028-.087.027-.087.027-.086.025-.085.024-.088.025-.087.023-.086.021-.088.022-.088.021-.089.02-.086.018-.088.018-.09.018-.087.016-.087.016-.091.015-.088.014-.089.013-.088.012-.088.012-.09.011-.088.009-.09.01-.088.008-.088.007-.09.007-.088.006-.09.005-.088.004-.088.004-.09.002-.087.002-.09.001-.092.001-.103-.001-.11-.002-.11-.003-.109-.005-.112-.006-.111-.007-.11-.009-.112-.01-.113-.012-.111-.013-.112-.015-.113-.017-.114-.018-.112-.019-.114-.022-.114-.023-.113-.025-.112-.026-.115-.028-.114-.03-.114-.032-.113-.033-.112-.035-.114-.037-.113-.039-.112-.04-.112-.043-.113-.044-.112-.046-.108-.047-.11-.049-.111-.052-.109-.053-.108-.055-.106-.056-.107-.058-.105-.06-.081-.047-.097.047-.101.047-.098.046-.1.044-.101.045-.102.044-.101.042-.104.042-.102.04-.103.039-.105.039-.104.038-.106.037-.105.036-.105.034-.108.034-.107.032-.107.032-.109.03-.108.029-.109.028-.11.028-.11.026-.11.024-.111.024-.111.022-.111.021-.111.02-.113.019-.113.017-.113.016-.112.015-.112.014-.116.013-.114.011-.112.009-.114.009-.115.007-.114.006-.116.005-.114.003-.114.002-.112.001-.094-.001-.091-.001-.091-.002-.092-.003-.091-.004-.091-.005-.091-.005-.094-.007-.092-.007-.092-.008-.092-.01-.092-.01-.091-.011-.093-.012-.094-.013-.092-.014-.09-.014-.093-.016-.094-.017-.091-.018-.092-.018-.094-.02-.089-.021-.093-.021-.092-.023-.091-.024-.091-.024-.092-.026-.093-.027-.088-.027-.091-.028-.091-.03-.088-.029-.09-.032-.091-.033-.09-.033-.087-.034-.087-.035-.091-.037-.087-.037-.085-.037-.088-.04-.087-.04-.084-.039-.087-.043-.085-.043-.082-.042-.085-.044-.084-.046-.084-.047-.081-.046-.08-.046-.075-.045-.068.038-.079.043-.076.04-.079.041-.079.04-.077.039-.08.039-.08.038-.078.036-.08.036-.081.036-.08.034-.081.034-.08.033-.082.033-.081.032-.082.031-.08.029-.083.03-.084.03-.081.028-.082.027-.083.027-.084.026-.082.025-.082.024-.085.024-.084.023-.082.022-.083.022-.084.021-.085.02-.082.019-.083.019-.085.018-.086.017-.082.017-.083.016-.085.015-.085.015-.083.013-.083.013-.086.013-.085.012-.083.011-.083.011-.084.01-.085.009-.083.009-.083.008-.085.007-.085.007-.084.006-.082.005-.084.005-.085.005-.083.003-.082.004-.086.002-.084.002-.082.002h-.082l-.082.001h-.067l-.067-.001-.065-.001-.065-.001-.066-.002-.065-.002-.066-.003-.065-.003-.065-.003-.067-.004-.067-.004-.065-.005-.064-.004-.067-.006-.068-.006-.065-.006-.065-.006-.066-.008-.067-.007-.066-.008-.065-.008-.068-.009-.065-.01-.065-.009-.066-.01-.068-.011-.065-.011-.066-.011-.067-.012-.065-.012-.066-.013-.066-.013-.067-.014-.067-.015-.063-.014-.064-.015-.068-.016-.068-.016-.065-.016-.064-.017-.066-.018-.064-.017-.066-.019-.066-.018-.065-.02-.066-.02-.064-.02-.063-.02-.066-.021-.065-.022-.065-.022-.065-.023-.063-.022-.064-.024-.063-.023-.063-.024-.066-.026-.064-.026-.062-.025-.062-.025-.065-.028-.063-.027-.062-.027-.061-.028-.063-.029-.062-.029-.061-.028-.062-.03-.062-.031-.062-.031-.059-.03-.062-.032-.061-.032-.059-.032-.007-.004-.031.014-.107.05-.109.049-.108.048-.108.047-.109.045-.109.044-.109.043-.112.043-.11.041-.111.041-.113.039-.11.037-.112.037-.113.036-.113.035-.114.034-.112.032-.114.031-.115.031-.114.029-.113.028-.116.027-.115.026-.115.025-.116.023-.115.023-.115.021-.116.021-.116.019-.115.018-.117.017-.117.016-.116.015-.116.014-.117.013-.117.012-.116.01-.117.01-.116.009-.118.007-.117.007-.115.005-.118.005-.117.003-.117.003-.116.001-.117.001-.105-.001-.106-.001-.106-.003-.108-.003-.106-.005-.106-.005-.107-.007-.109-.008-.108-.008-.107-.01-.108-.012-.109-.012-.108-.013-.109-.015-.109-.016-.11-.018-.109-.018-.11-.02-.111-.022-.11-.023-.11-.024-.11-.026-.11-.027-.112-.029-.11-.03-.111-.031-.112-.034-.109-.034-.111-.037-.11-.038-.111-.04-.112-.042-.11-.043-.11-.045-.11-.046-.108-.048-.11-.05-.109-.052-.107-.053-.108-.055-.108-.058-.106-.058-.107-.061-.106-.062-.104-.064-.104-.066-.103-.067-.103-.069-.102-.071-.099-.071-.1-.075-.097-.074-.024-.02-.039.037-.082.072-.084.071-.088.073-.083.066-.087.067-.087.065-.088.063-.091.063-.089.06-.09.058-.09.056-.09.055-.094.054-.089.05-.091.049-.093.049-.09.045-.091.044-.094.044-.093.041-.09.039-.091.038-.093.037-.089.034-.09.033-.093.032-.09.031-.087.028-.092.028-.089.026-.088.025-.089.024-.087.022-.09.022-.085.019-.086.019-.088.018-.086.017-.085.015-.084.015-.084.013-.084.013-.083.012-.086.011-.082.009-.079.009-.084.008-.081.008-.081.006-.08.006-.079.005-.082.004-.076.004-.079.003-.08.002-.078.001-.077.001-.086.001-.105-.001-.116-.003-.116-.004-.116-.006-.118-.008-.12-.011-.117-.012-.121-.014-.121-.017-.119-.018-.12-.02-.122-.023-.123-.026-.12-.027-.123-.03-.123-.032-.121-.034-.12-.037-.122-.039-.123-.042-.123-.045-.119-.046-.118-.048-.119-.051-.12-.054-.119-.057-.115-.057-.115-.06-.115-.063-.109-.062-.114-.068-.111-.07-.109-.07-.107-.072-.104-.074-.103-.076-.102-.077-.102-.08-.097-.081-.02-.017-.068.057-.084.067-.088.069-.085.063-.086.062-.09.064-.087.058-.091.06-.089.056-.09.055-.093.054-.089.05-.09.05-.094.049-.089.045-.092.045-.094.044-.091.042-.092.04-.092.038-.091.037-.091.035-.094.035-.089.032-.09.031-.094.03-.09.028-.09.026-.088.026-.09.024-.092.023-.086.021-.087.02-.092.02-.088.018-.084.016-.085.016-.088.015-.088.014-.083.012-.084.012-.087.011-.081.009-.083.009-.085.008-.083.007-.081.006-.082.006-.081.004-.079.004-.081.003-.081.003-.077.001-.08.001-.079.001-.062-.001h-.066l-.066-.002-.063-.002-.066-.002-.067-.003-.063-.004-.064-.004-.068-.005-.067-.005-.065-.006-.068-.007-.069-.007-.065-.008-.065-.008-.069-.01-.069-.01-.065-.01-.071-.012-.07-.012-.065-.013-.066-.012-.071-.015-.07-.015-.066-.015-.071-.017-.07-.017-.066-.018-.067-.018-.072-.02-.071-.021-.066-.02-.069-.021-.068-.022-.067-.023-.072-.025-.069-.025-.064-.024-.071-.027-.068-.028-.068-.027-.07-.03-.064-.028-.067-.03-.066-.03-.067-.032-.069-.033-.069-.035-.062-.032-.062-.033-.068-.037-.067-.037-.061-.035-.067-.039-.063-.038-.059-.036-.066-.041-.062-.04-.058-.039-.064-.043-.063-.043-.057-.04-.059-.043-.059-.044-.061-.046-.057-.044-.054-.042-.059-.048-.059-.049-.056-.047-.051-.044-.053-.047-.056-.05-.05-.046-.053-.049-.054-.052-.05-.048-.049-.049-.05-.051-.05-.051-.047-.05-.046-.05-.05-.054-.047-.053-.043-.048-.047-.055-.046-.055-.041-.05-.041-.05-.044-.055-.04-.052-.042-.054-.042-.057-.039-.052-.04-.055-.037-.052-.035-.051-.038-.055-.039-.059-.037-.055-.033-.051-.033-.053-.036-.057-.032-.053-.034-.055-.033-.056-.03-.053-.037-.064-.054-.099-.058-.108-.058-.112-.053-.109-.051-.105-.051-.112-.049-.11-.045-.105-.044-.109-.043-.108-.038-.101-.038-.101-.036-.102-.033-.098-.034-.1-.032-.101-.031-.099-.03-.1-.028-.097-.028-.099-.027-.1-.025-.096-.025-.099-.024-.099-.023-.099-.022-.096-.022-.099-.021-.099-.02-.098-.02-.099-.018-.097-.018-.099-.017-.097-.017-.1-.017-.1-.015-.099-.015-.1-.015-.098-.014-.101-.013-.101-.013-.101-.013-.099-.012-.102-.011-.102-.011-.1-.011-.103-.01-.103-.01-.104-.009-.104-.009-.103-.008-.103-.009-.107-.007-.105-.007-.105-.007-.107-.007-.107-.006-.106-.005-.108-.006-.109-.005-.108-.004-.109-.005-.111-.003-.111-.004-.111-.003-.112-.003-.111-.002-.112-.003-.116-.001-.114-.002-.114-.001-.115-.001-.115v-.41l.001-.175.002-.176.003-.175.003-.174.005-.176.005-.174.006-.174.006-.174.008-.173.008-.175.009-.173.01-.173.01-.174.012-.173.012-.172.013-.173.014-.172.014-.173.016-.173.016-.17.017-.172.018-.172.018-.171.02-.172.02-.171.021-.17.022-.17.022-.17.024-.17.024-.17.025-.171.026-.168.026-.169.028-.17.028-.168.029-.168.03-.17.03-.168.032-.167.032-.168.033-.168.034-.167.035-.166.035-.167.036-.167.037-.166.038-.166.039-.165.039-.166.041-.166.041-.165.042-.165.042-.163.043-.163.023-.086.022-.08.023-.082.022-.081.023-.082.024-.084.023-.08.023-.082.024-.082.023-.08.025-.082.025-.083.024-.082.024-.077.025-.082.026-.084.025-.081.022-.071.018-.055.024-.075.023-.068.026-.076.027-.077.024-.068.027-.072.029-.076.028-.072.029-.073.032-.076.03-.072.031-.072.032-.073.034-.073.035-.075.034-.072.036-.073.036-.072.037-.071.04-.077.039-.072.04-.072.043-.075.041-.071.042-.071.044-.072.045-.072.047-.073.046-.071.047-.07.048-.07.049-.07.053-.074.051-.068.051-.069.056-.072.054-.068.054-.067.056-.067.057-.067.057-.066.061-.069.063-.069.056-.06.062-.065.065-.066.062-.063.065-.063.065-.062.065-.06.068-.062.067-.059.069-.059.072-.061.069-.056.071-.057.07-.055.071-.054.076-.056.074-.053.073-.051.075-.052.076-.051.076-.049.081-.051.08-.049.079-.047.081-.047.079-.045.08-.043.079-.043.08-.041.082-.041.079-.038.08-.038.084-.038.079-.036.078-.033.082-.034.081-.033.08-.032.077-.029.081-.03.08-.028.079-.027.084-.028.079-.026.075-.023.08-.024.08-.023.078-.022.078-.021.079-.02.078-.02.077-.018.078-.018.078-.017.077-.017.077-.015.077-.015.077-.014.076-.014.074-.012.076-.013.078-.011.076-.011.075-.011.075-.009.074-.009.074-.009.077-.008.074-.007.073-.007.074-.006.074-.006.074-.005.075-.005.074-.004.071-.004.074-.003.073-.003.073-.003.072-.001.073-.002.073-.001.072-.001h.159l.089.002.088.001.087.003.09.003.093.005.092.005.093.006.096.008.096.009.096.01.099.011.104.013.103.015.105.016.109.019.11.02.116.024.116.025.119.029.124.032.126.036.13.039.133.044.141.05.141.054.146.06.152.067.137.066.095.047.086.046.076.042.079.044.089.053.083.05.08.052.003-.002.081-.039.084-.039.081-.038.083-.038.084-.037.084-.036.085-.036.083-.034.086-.035.088-.035.086-.032.085-.032.089-.032.089-.031.087-.03.09-.029.091-.029.088-.027.091-.028.093-.026.09-.025.093-.025.094-.024.091-.022.093-.022.095-.021.096-.02.095-.019.095-.018.095-.017.096-.016.098-.015.099-.014.097-.013.097-.012.098-.011.098-.01.1-.008.099-.008.099-.006.101-.006.1-.004.099-.003.102-.001.095-.001h.083l.077.001.079.002.079.002.076.002.081.004.079.004.077.004.082.005.082.006.079.007.081.007.083.009.08.009.083.009.084.011.084.012.083.012.085.014.084.014.088.016.086.016.083.017.089.019.088.02.085.02.09.023.091.024.086.023.091.027.093.028.089.028.089.029.094.033.094.034.091.034.093.036.093.038.094.04.094.041.093.044.097.046.092.045.093.048.096.052.097.054.092.053.092.055.096.06.096.062.089.06.093.065.095.068.078.058.004-.002.054-.031.058-.033.058-.033.056-.031.058-.032.06-.033.056-.03.058-.031.061-.032.057-.029.057-.029.062-.031.06-.03.058-.028.061-.029.061-.029.058-.027.062-.029.062-.028.057-.025.063-.028.064-.027.061-.026.062-.026.062-.025.063-.026.063-.024.061-.024.064-.024.065-.024.065-.024.063-.022.065-.023.065-.022.063-.021.065-.021.068-.022.065-.02.064-.02.067-.02.067-.019.067-.019.066-.018.068-.018.067-.017.068-.017.068-.017.067-.016.068-.015.07-.016.07-.014.067-.014.068-.013.071-.014.069-.012.071-.013.069-.011.072-.011.071-.011.067-.009.071-.01.072-.009.072-.008.072-.008.068-.007.073-.007.075-.007.07-.005.071-.005.073-.004.071-.004.073-.003.073-.003.071-.002.074-.002.071-.001h.153l.077.001.078.002.08.002.078.003.078.004.081.004.082.005.079.006.08.006.081.007.083.008.083.009.082.01.081.01.085.012.084.013.083.013.084.014.083.015.087.016.085.018.084.017.09.021.085.02.085.021.09.023.086.024.086.025.087.026.089.027.089.03.089.03.087.031.09.033.091.035.088.035.088.036.088.038.09.04.09.042.089.043.088.043.089.046.09.048.084.047.089.05.09.054.086.052.088.056.087.056.084.057.084.058.085.061.087.065.082.062.081.064.08.066.081.068.08.069.08.072.076.071.077.073.075.074.073.074.075.078.071.077.073.081.068.079.064.076.07.086.064.081.063.082.064.087.06.083.058.084.057.084.043.067.035-.028.098-.078.098-.077.098-.075.099-.076.099-.074.101-.074.103-.075.103-.073.102-.072.104-.072.106-.072.105-.069.106-.07.106-.068.107-.068.108-.067.108-.066.108-.064.109-.064.11-.063.109-.062.112-.062.111-.06.111-.059.113-.059.112-.058.114-.056.113-.056.113-.054.115-.054.116-.053.114-.052.116-.051.116-.05.117-.049.118-.048.117-.047.006-.002.006-.042.017-.115.018-.115.018-.116.018-.115.018-.114.018-.114.019-.115.018-.113.019-.113.019-.114.02-.114.019-.113.019-.112.02-.112.02-.113.02-.113.021-.111.02-.111.021-.111.021-.112.021-.112.021-.11.021-.11.022-.111.022-.111.022-.109.022-.11.023-.109.022-.109.023-.11.023-.107.023-.11.024-.109.023-.107.024-.108.024-.108.024-.108.024-.106.024-.107.025-.108.025-.106.025-.106.025-.107.026-.107.025-.103.026-.107.026-.106.027-.104.026-.105.026-.103.027-.106.028-.105.027-.103.027-.103.028-.105.028-.104.028-.103.028-.102.028-.103.029-.102.028-.102.03-.103.029-.101.029-.101.03-.102.03-.102.03-.1.03-.1.03-.102.031-.099.03-.1.032-.101.031-.1.031-.099.032-.098.032-.1.032-.098.032-.098.033-.1.032-.099.033-.097.033-.097.034-.098.033-.097.034-.096.034-.098.034-.097.034-.096.035-.096.034-.095.036-.097.035-.096.035-.094.036-.095.035-.094.037-.096.036-.095.037-.095.039-.099.04-.102.04-.1.041-.099.04-.099.041-.098.043-.1.042-.097.042-.098.043-.098.043-.097.043-.096.044-.095.044-.096.046-.096.045-.096.046-.094.045-.092.047-.096.047-.094.047-.091.048-.092.048-.093.05-.094.049-.09.049-.09.051-.091.051-.092.05-.088.053-.09.052-.09.052-.088.055-.089.054-.088.054-.088.055-.086.056-.088.056-.087.057-.085.059-.088.057-.084.059-.085.059-.084.06-.084.062-.085.061-.083.062-.083.064-.084.063-.081.065-.082.065-.082.066-.08.066-.08.067-.08.069-.079.069-.08.07-.078.07-.078.072-.077.073-.078.074-.078.072-.074.075-.075.076-.076.077-.074.077-.073.079-.074.079-.072.08-.072.081-.071.083-.071.083-.07.083-.068.086-.069.084-.066.088-.068.089-.067.086-.063.09-.065.091-.064.093-.063.092-.062.092-.06.095-.06.096-.059.095-.058.097-.056.098-.056.099-.054.099-.054.101-.053.102-.051.102-.051.102-.048.104-.048.106-.047.104-.044.104-.044.108-.043.108-.041.108-.04.108-.039.11-.037.11-.036.109-.034.112-.034.111-.031.109-.03.113-.029.114-.027.111-.025.113-.025.115-.023.113-.021.113-.019.115-.019.114-.017.114-.015.114-.014.114-.012.115-.011.114-.009.114-.008.114-.006.114-.005.115-.004.113-.002.115-.001.11.001zm-.163 5.033l-.051.001-.051.001-.05.003-.051.003-.05.003-.051.004-.05.005-.05.005-.05.006-.049.007-.05.007-.049.008-.049.009-.049.009-.049.01-.049.01-.048.011-.049.012-.048.012-.048.013-.048.014-.048.014-.047.015-.048.015-.047.017-.047.016-.047.018-.047.018-.047.018-.047.02-.046.02-.046.02-.046.021-.046.022-.046.023-.046.023-.045.024-.046.024-.045.025-.045.026-.045.026-.044.027-.045.027-.044.028-.044.029-.045.03-.043.03-.044.03-.044.032-.043.032-.044.032-.043.034-.043.033-.043.035-.042.035-.043.036-.042.036-.043.037-.042.038-.042.038-.041.039-.042.04-.041.04-.042.041-.041.041-.041.042-.041.043-.041.043-.04.044-.04.045-.041.045-.04.046-.04.047-.039.047-.04.048-.04.048-.039.049-.039.05-.039.05-.039.051-.039.052-.038.052-.038.053-.039.053-.038.054-.038.055-.037.055-.038.056-.038.057-.037.057-.037.058-.037.059-.037.059-.037.06-.036.06-.036.061-.037.062-.036.062-.036.063-.035.064-.036.064-.035.065-.036.066-.035.066-.035.066-.035.068-.034.068-.035.069-.034.069-.035.07-.034.07-.034.072-.033.071-.034.073-.033.073-.034.074-.033.074-.033.075-.033.076-.032.076-.033.077-.032.077-.032.079-.032.078-.032.08-.032.08-.032.081-.031.081-.031.081-.032.082-.031.082-.03.082-.031.082-.03.083-.031.083-.03.083-.03.084-.03.083-.03.084-.029.085-.029.084-.03.085-.029.085-.029.085-.028.086-.029.086-.028.086-.029.086-.028.087-.028.087-.027.087-.028.087-.028.088-.027.088-.027.088-.027.088-.027.089-.027.089-.026.089-.026.09-.027.089-.026.09-.026.091-.025.09-.026.091-.025.091-.026.091-.025.092-.025.092-.024.092-.025.092-.024.093-.025.092-.024.094-.024.093-.024.094-.023.093-.024.095-.023.094-.023.095-.023.095-.023.095-.023.095-.022.096-.023.096-.022.096-.022.097-.022.096-.022.097-.021.098-.022.097-.021.098-.021.098-.021.098-.021.099-.021.099-.02.099-.02.099-.021.1-.02.1-.02.1-.019.1-.02.101-.019.101-.019.101-.019.101-.019.102-.019.102-.019.102-.018.103-.018.102-.018.103-.018.104-.018.103-.018.104-.017.104-.018.104-.017.105-.017.105-.016.105-.017.105-.017.106-.016.105-.016.107-.016.106-.016.107-.016.106-.015.108-.016.107-.015.108-.015.108-.015.108-.015.108-.014.109-.015.109-.014.109-.014.11-.014.109-.014.11-.014.111-.013.11-.014.111-.013.111-.013.111-.013.112-.012.112-.013.112-.012.112-.013.113-.012.113-.012.113-.011.113-.012.114-.011.114-.012.114-.087.01-.086.01-.087.011-.086.012-.086.012-.086.013-.085.014-.086.014-.085.015-.084.016-.085.016-.084.017-.084.018-.083.018-.084.019-.083.019-.082.021-.083.021-.082.021-.082.022-.082.023-.081.024-.082.024-.081.024-.08.026-.081.026-.08.027-.08.027-.079.028-.079.029-.08.029-.078.03-.079.031-.078.031-.078.032-.078.033-.077.033-.077.034-.077.035-.077.035-.076.036-.077.036-.075.038-.076.038-.075.038-.075.039-.075.04-.075.04-.074.042-.074.041-.074.043-.073.043-.073.044-.073.044-.073.045-.072.046-.072.046-.072.047-.072.048-.071.048-.071.049-.071.05-.07.05-.071.051-.07.051-.069.052-.069.053-.068.053-.068.053-.068.054-.067.054-.067.055-.066.055-.065.056-.066.056-.064.056-.064.057-.064.058-.064.058-.062.058-.063.059-.062.059-.061.06-.061.06-.061.061-.06.061-.059.062-.059.062-.059.062-.058.063-.058.064-.057.064-.057.064-.056.065-.056.065-.055.066-.055.066-.054.067-.054.067-.054.068-.053.068-.052.068-.052.069-.052.07-.051.07-.05.07-.051.071-.049.071-.049.072-.049.072-.048.073-.048.073-.048.073-.046.074-.047.075-.046.075-.045.075-.045.076-.045.077-.044.076-.043.078-.044.077-.042.079-.042.078-.042.079-.041.08-.041.08-.04.08-.039.079-.038.078-.037.078-.037.079-.036.079-.035.079-.035.08-.035.079-.033.08-.034.08-.032.08-.032.08-.032.081-.031.081-.03.081-.029.081-.03.081-.028.082-.028.081-.027.082-.027.082-.026.083-.026.082-.025.083-.024.083-.024.083-.023.083-.023.084-.022.084-.021.084-.021.084-.021.084-.019.084-.019.085-.019.085-.018.085-.017.085-.017.086-.016.086-.016.085-.015.087-.014.086-.014.086-.014.087-.012.087-.012.087-.012.087-.011.088-.01.087-.01.088-.009.088-.009.089-.008.088-.007.089-.007.089-.006.089-.006.089-.005.089-.004.09-.004.09-.004.09-.002.09-.003.091-.001.09-.093.101-.092.099-.089.096-.089.093-.087.091-.085.088-.084.086-.082.083-.08.081-.04.039-.039.039-.039.038-.039.037-.038.037-.038.036-.037.036-.037.035-.037.034-.036.033-.036.033-.036.033-.035.031-.034.031-.033.029-.032.028-.032.028-.032.027-.032.027-.031.027-.032.026-.031.025-.032.025-.031.025-.031.024-.03.023-.031.024-.031.022-.03.023-.03.022-.03.021-.03.021-.03.021-.03.02-.03.019-.029.019-.029.019-.029.018-.029.018-.029.018-.029.017-.029.016-.028.016-.028.016-.029.015-.028.014-.028.015-.027.013-.028.014-.028.013-.027.012-.027.012-.027.011-.027.011-.027.011-.027.01-.026.01-.027.009-.026.009-.026.008-.026.008-.026.008-.026.007-.025.006-.026.006-.025.006-.025.005-.025.005-.025.004-.025.004-.024.003-.025.003-.024.003-.024.002-.024.001-.024.001-.024.001H29.5l-.017-.001-.016-.001-.017-.001-.016-.001-.016-.002-.016-.001-.016-.002-.016-.002-.015-.002-.015-.002-.016-.003-.015-.002-.015-.003-.015-.003-.015-.003-.014-.004-.015-.003-.014-.004-.014-.004-.014-.004-.014-.005-.014-.004-.014-.005-.013-.005-.014-.005-.013-.005-.013-.006-.013-.005-.013-.006-.013-.006-.012-.006-.013-.006-.012-.007-.012-.007-.013-.007-.011-.007-.012-.007-.012-.007-.012-.008-.011-.008-.011-.008-.011-.008-.011-.008-.011-.009-.011-.009-.011-.009-.01-.009-.01-.009-.011-.01-.01-.009-.01-.01-.009-.01-.01-.01-.01-.011-.009-.01-.009-.011-.01-.011-.009-.011-.008-.012-.009-.011-.009-.012-.008-.012-.009-.012-.008-.012-.008-.012-.008-.013-.008-.013-.007-.013-.008-.013-.007-.013-.008-.014-.007-.014-.007-.013-.007-.014-.006-.015-.007-.014-.006-.015-.007-.015-.006-.015-.006-.015-.006-.015-.006-.016-.005-.016-.006-.015-.005-.017-.006-.016-.005-.016-.005-.017-.005-.017-.009-.034-.009-.035-.008-.036-.008-.036-.007-.037-.007-.038-.006-.039-.005-.039-.006-.041-.004-.04-.004-.042-.004-.042-.003-.044-.002-.043-.002-.045-.001-.045-.001-.046v-.081l.001-.034v-.036l.002-.037.001-.038.002-.039.002-.04.003-.041.003-.042.003-.043.004-.045.004-.045.004-.047.005-.047.005-.049.006-.05.005-.051.006-.052.007-.053.007-.054.007-.055.007-.057.008-.057.009-.059.008-.059.009-.061.009-.062.01-.063.02-.129.022-.133.023-.138.025-.142.025-.146.028-.151.028-.155.03-.159.032-.164.033-.168.034-.173.036-.176.037-.182.038-.185.04-.19.042-.194.042-.199.044-.202.051-.239.05-.233.048-.229.046-.224.044-.219.043-.215.042-.211.039-.205.019-.101.019-.1.019-.099.018-.097.017-.097.018-.095.016-.094.017-.093.016-.092.015-.091.016-.089.014-.088.015-.087.014-.086.013-.085.013-.084.013-.082.013-.082.012-.08.011-.079.011-.078.011-.076.01-.076.01-.074.01-.074.009-.072.009-.071.008-.069.008-.069.007-.067.007-.067.007-.065.006-.064.006-.062.006-.062.005-.06.004-.06.005-.058.003-.057.004-.056.003-.054.003-.054.002-.052.002-.051.001-.05.001-.049.001-.048v-.085l-.001-.037v-.038L30 25.348l-.001-.037-.002-.037-.001-.036-.003-.036-.002-.036-.003-.035-.003-.036-.004-.034-.003-.035-.004-.034-.005-.034-.004-.034-.005-.033-.006-.033-.005-.033-.006-.033-.006-.032-.007-.032-.006-.031-.007-.031-.008-.031-.007-.031-.008-.03-.008-.03-.009-.03-.009-.03-.009-.029-.009-.029-.01-.028-.01-.029-.01-.028-.011-.027-.011-.028-.011-.027-.012-.026-.011-.027-.013-.026-.012-.026-.013-.026-.013-.025-.013-.025-.014-.025-.014-.024-.014-.024-.014-.024-.015-.023-.015-.023-.016-.023-.015-.023-.016-.022-.017-.022-.016-.022-.017-.021-.017-.021-.018-.021-.018-.021-.018-.02-.018-.02-.019-.019-.019-.02-.019-.019-.02-.018-.02-.019-.02-.018-.02-.018-.021-.017-.021-.017-.022-.017-.021-.017-.022-.016-.023-.016-.022-.016-.023-.015-.023-.015-.024-.015-.024-.015-.024-.014-.024-.014-.025-.014-.025-.013-.025-.013-.026-.013-.025-.012-.027-.012-.026-.012-.027-.011-.027-.012-.027-.011-.028-.01-.028-.011-.028-.01-.029-.009-.029-.01-.029-.009-.029-.009-.03-.008-.03-.008-.031-.008-.03-.008-.031-.007-.031-.007-.032-.007-.032-.006-.032-.007-.033-.005-.032-.006-.033-.005-.034-.005-.033-.005-.034-.004-.035-.004-.034-.004-.035-.003-.035-.004-.036-.002-.035-.003-.036-.002-.037-.002-.036-.002-.037-.001-.038-.001-.037-.001h-.139l-.031.001-.031.001-.032.001-.031.001-.032.002-.031.002-.032.002-.031.002-.032.003-.032.003-.031.003-.032.004-.032.004-.032.004-.031.004-.032.004-.032.005-.032.005-.032.005-.032.006-.032.006-.032.006-.032.006-.033.007-.032.006-.032.008-.032.007-.033.008-.032.007-.032.009-.033.008-.032.009-.033.008-.032.01-.033.009-.032.01-.033.01-.033.01-.032.01-.033.011-.033.011-.033.011-.033.012-.033.011-.033.012-.033.012-.033.013-.033.013-.033.013-.033.013-.033.014-.033.013-.033.014-.034.015-.033.014-.033.015-.034.015-.033.016-.034.015-.033.016-.034.016-.033.016-.034.017-.033.017-.034.017-.034.018-.034.017-.033.018-.034.018-.034.019-.034.018-.034.019-.034.02-.034.019-.034.02-.034.02-.034.02-.034.02-.034.021-.035.021-.034.021-.034.022-.035.022-.034.022-.034.022-.035.023-.034.022-.035.024-.034.023-.035.023-.035.024-.034.024-.035.025-.035.024-.034.025-.035.025-.035.026-.035.025-.035.026-.035.026-.035.027-.035.027-.035.027-.035.027-.035.027-.036.028-.07.056-.071.057-.07.059-.071.059-.071.06-.072.062-.071.062-.071.063-.072.065-.072.065-.036.033-.036.034-.036.034-.035.034-.036.034-.036.035-.035.035-.036.035-.035.036-.036.036-.035.036-.036.036-.035.037-.035.037-.035.038-.036.038-.035.038-.035.038-.035.039-.035.039-.035.039-.034.04-.035.04-.035.04-.035.04-.034.041-.035.041-.034.042-.035.042-.034.042-.035.042-.034.043-.034.043-.035.043-.034.044-.034.044-.034.044-.034.045-.034.045-.034.045-.034.045-.034.046-.034.046-.033.047-.034.046-.034.047-.033.048-.034.047-.033.048-.034.048-.033.049-.033.049-.034.049-.033.05-.033.049-.033.051-.033.05-.033.051-.033.051-.033.051-.033.052-.033.052-.033.052-.032.053-.033.052-.033.054-.032.053-.033.054-.032.054-.033.054-.032.055-.032.055-.033.056-.032.055-.032.056-.032.057-.032.056-.032.057-.032.057-.032.058-.032.058-.032.058-.032.058-.031.059-.032.059-.032.059-.031.06-.032.06-.031.06-.032.061-.031.061-.031.061-.032.061-.031.062-.031.062-.031.063-.031.063-.031.063-.031.063-.031.064-.062.128-.061.13-.061.13-.061.132-.061.134-.061.134-.06.136-.06.137-.06.138-.06.139-.06.141-.059.142-.06.143-.059.144.015-.087.017-.093.017-.098.02-.104.02-.108.023-.114.023-.12.026-.124.026-.13.028-.136.03-.14.031-.146.033-.151.034-.156.035-.162.037-.167.044-.196.043-.192.041-.189.04-.184.039-.181.037-.177.035-.173.035-.169.033-.166.031-.161.03-.158.029-.154.027-.15.026-.146.012-.072.012-.071.012-.07.012-.069.011-.067.01-.067.011-.066.01-.065.009-.064.009-.063.009-.062.009-.062.008-.06.008-.059.007-.058.008-.058.006-.056.007-.056.006-.054.006-.054.005-.052.005-.052.005-.05.004-.05.004-.049.004-.047.003-.047.003-.046.003-.045.002-.044.002-.043.002-.042.001-.041.001-.04v-.039l.001-.038v-.039l-.001-.039-.001-.038v-.037l-.002-.038-.001-.037-.002-.037-.002-.036-.002-.037-.003-.036-.003-.035-.003-.036-.003-.034-.004-.035-.003-.034-.005-.035-.004-.033-.005-.034-.005-.033-.005-.033-.005-.032-.006-.032-.006-.032-.006-.032-.007-.031-.007-.031-.007-.03-.007-.031-.008-.03-.008-.029-.008-.03-.008-.029-.009-.028-.009-.029-.009-.028-.009-.028-.01-.027-.01-.027-.01-.027-.011-.026-.011-.027-.011-.026-.011-.025-.012-.025-.012-.025-.012-.025-.012-.024-.013-.024-.013-.024-.013-.023-.014-.024-.013-.022-.014-.023-.015-.022-.014-.022-.015-.021-.015-.021-.015-.021-.016-.021-.016-.02-.016-.02-.016-.02-.017-.019-.017-.019-.017-.019-.018-.018-.018-.018-.019-.018-.018-.018-.019-.017-.02-.017-.02-.017-.02-.016-.021-.016-.021-.016-.021-.015-.022-.015-.022-.015-.023-.015-.023-.014-.023-.014-.024-.014-.024-.013-.024-.013-.025-.013-.025-.013-.026-.012-.026-.012-.026-.011-.027-.012-.027-.011-.028-.011-.027-.01-.029-.01-.028-.01-.029-.01-.03-.009-.029-.009-.03-.009-.031-.008-.031-.008-.031-.008-.032-.007-.032-.008-.032-.007-.033-.006-.033-.007-.033-.006-.034-.005-.034-.006-.035-.005-.035-.005-.036-.004-.035-.005-.036-.004-.037-.003-.037-.004-.037-.003-.038-.003-.038-.002-.038-.002-.039-.002-.039-.002-.04-.001-.04-.001-.04-.001h-.123l-.041.001-.042.001-.041.001-.042.003-.042.002-.041.003-.042.004-.042.004-.042.005-.042.005-.043.006-.042.006-.042.006-.043.007-.042.008-.043.008-.043.009-.042.009-.043.009-.043.01-.043.011-.043.011-.043.011-.044.012-.043.012-.043.013-.044.014-.044.014-.043.014-.044.015-.044.015-.044.016-.044.017-.044.016-.044.018-.044.018-.045.018-.044.019-.045.019-.044.02-.045.02-.045.021-.045.021-.045.022-.045.022-.045.022-.045.024-.045.023-.045.024-.046.025-.045.025-.046.026-.046.026-.045.027-.046.027-.046.027-.046.028-.046.029-.046.029-.047.029-.046.03-.047.031-.046.031-.047.031-.046.032-.046.033-.047.033-.046.033-.047.034-.046.035-.046.035-.046.035-.047.036-.046.037-.046.037-.046.038-.046.038-.046.038-.046.039-.046.04-.046.04-.046.041-.046.041-.045.041-.046.042-.046.043-.046.043-.045.044-.046.044-.045.045-.046.045-.045.045-.046.046-.045.047-.046.047-.045.048-.045.048-.046.049-.045.049-.045.05-.045.05-.045.051-.045.051-.045.052-.045.052-.045.053-.045.053-.045.054-.045.054-.045.055-.045.055-.045.056-.044.056-.045.057-.045.057-.044.058-.045.058-.044.059-.045.059-.044.06-.045.061-.044.061-.045.061-.044.062-.044.062-.044.063-.045.063-.044.064-.044.065-.043.064-.044.065-.043.066-.043.066-.043.067-.043.067-.042.067-.043.068-.042.068-.042.069-.042.069-.041.07-.042.07-.041.07-.041.071-.041.071-.04.072-.041.072-.04.073-.04.073-.04.074-.039.074-.04.074-.039.075-.039.076-.039.075-.039.077-.038.076-.039.077-.038.078-.038.078-.037.078-.038.079-.037.08-.037.079-.037.08-.037.081-.036.081-.037.082-.036.082-.036.082-.036.083-.035.083-.036.084-.035.084-.035.085-.035.085-.034.085-.035.086-.034.087-.034.087-.034.087-.034.088-.033.088-.033.088-.033.089-.033.09-.033.09-.032.09-.033.091-.032.091-.032.092.01-.103.009-.102.01-.101.01-.1.01-.099.01-.098.011-.097.01-.096.011-.094.011-.094.011-.092.011-.092.011-.09.012-.089.011-.088.012-.088.012-.086.012-.085.012-.084.012-.082.013-.082.012-.081.013-.08.013-.078.013-.078.013-.076.013-.076.014-.074.014-.073.013-.073.014-.071.014-.07.029-.14.03-.144.031-.147.033-.15.033-.153.035-.156.036-.159.037-.162.039-.165.039-.169.041-.171.042-.175.043-.178.044-.181.045-.183.047-.187.034-.131.034-.128.033-.124.031-.122.031-.119.029-.115.028-.113.027-.11.026-.107.025-.104.024-.101.022-.098.022-.095.02-.092.02-.09.018-.086.017-.083.016-.081.015-.077.014-.075.012-.071.012-.069.011-.066.009-.063.008-.059.004-.029.003-.028.004-.028.002-.026.003-.026.002-.025.003-.024.001-.024.002-.023.001-.022.001-.022.001-.02v-.072l-.001-.032-.001-.031-.002-.031-.003-.03-.003-.029-.004-.029-.005-.028-.005-.028-.005-.026-.003-.013-.003-.013-.004-.013-.003-.013-.004-.012-.004-.012-.003-.012-.004-.012-.005-.012-.004-.012-.005-.011-.004-.012-.005-.011-.005-.011-.005-.01-.005-.011-.006-.01-.005-.011-.006-.01-.006-.01-.006-.01-.006-.009-.006-.01-.006-.009-.007-.009-.007-.009-.006-.009-.007-.008-.008-.009-.007-.008-.007-.008-.008-.008-.008-.008-.007-.008-.009-.007-.008-.007-.008-.008-.008-.007-.009-.006-.009-.007-.009-.007-.009-.006-.009-.006-.009-.006-.01-.006-.01-.006-.01-.005-.01-.006-.01-.005-.011-.006-.022-.01-.023-.01-.023-.01-.025-.009-.026-.009-.026-.009-.027-.008-.028-.008-.029-.008-.03-.007-.031-.007-.032-.006-.032-.006-.034-.006-.034-.005-.035-.005-.036-.005-.037-.004-.038-.004-.039-.004-.039-.003-.041-.002-.041-.003-.043-.002-.043-.002-.044-.001-.045-.001h-.179l-.043.001-.042.001-.042.001-.042.001-.042.002-.041.001-.041.003-.041.002-.04.003-.041.002-.039.004-.04.003-.039.003-.039.004-.039.004-.038.005-.038.004-.037.005-.038.005-.037.006-.037.005-.036.006-.036.006-.036.007-.036.006-.035.007-.035.007-.035.007-.034.008-.034.008-.034.008-.033.008-.033.009-.033.009-.033.009-.032.009-.032.01-.031.009-.032.01-.031.011-.03.01-.031.011-.03.011-.029.012-.03.011-.029.012-.029.012-.029.012-.028.013-.028.013-.027.013-.028.013-.027.013-.027.014-.026.014-.026.015-.026.014-.025.015-.026.015-.025.015-.024.016-.024.016-.025.016-.023.016-.024.017-.023.017-.024.017-.023.017-.022.018-.023.018-.022.018-.022.019-.022.019-.022.019-.022.02-.021.019-.021.02-.021.021-.021.02-.02.021-.02.021-.02.022-.02.022-.02.022-.019.022-.019.023-.019.022-.019.024-.019.023-.018.024-.018.024-.018.024-.018.025-.017.025-.017.025-.017.025-.017.026-.017.026-.016.027-.017.026-.016.027-.015.027-.016.028-.015.027-.015.029-.015.028-.015.028-.015.029-.014.03-.014.029-.014.03-.014.03-.013.03-.013.031-.013.031-.013.031-.013.031-.012.032-.012.032-.012.032-.012.033-.012.033-.011.033-.011.033-.011.034-.011.034-.022.069-.021.069-.022.069-.021.069-.021.07-.021.069-.02.069-.021.07-.02.069-.02.07-.02.069-.02.07-.02.069-.019.07-.02.07-.019.07-.019.07-.019.07-.037.14-.036.14-.036.141-.035.141-.035.141-.033.141-.033.142-.033.142-.031.142-.031.142-.031.143-.029.142-.029.143-.029.144-.027.143-.027.144-.026.144-.026.144-.025.144-.024.145-.023.145-.023.145-.022.146-.022.145-.021.146-.02.146-.019.147-.019.146-.018.147-.017.147-.017.148-.016.147-.015.148-.015.148-.014.148-.013.149-.013.149-.012.149-.011.149-.01.149-.01.15-.01.15-.008.15-.008.151-.007.15-.007.151-.005.151-.005.152-.005.151-.004.152-.003.152-.002.153-.002.152-.001.153v.359l.001.101.001.101.001.1.002.099.002.097.002.098.002.096.003.095.003.094.003.094.004.093.004.091.004.091.004.09.005.089.005.089.005.087.006.086.006.086.006.085.006.084.007.082.007.083.007.081.008.08.008.079.008.079.008.077.009.077.009.076.009.075.01.074.01.073.01.073.01.071.011.071.011.069.011.069.012.068.012.067.012.066.012.065.013.065.013.063.013.063.014.062.014.06.014.06.014.06.015.058.015.057.015.056.016.056.015.055.017.053.016.053.017.052.017.051.017.051.017.049.018.048.018.048.019.047.019.046.019.045.02.045.02.043.02.044.021.042.022.041.022.041.022.04.011.02.011.02.012.019.011.02.012.019.012.018.012.019.012.019.012.018.012.018.012.018.013.018.012.017.013.018.012.017.013.017.013.017.013.017.013.016.014.016.013.016.013.016.014.016.013.016.014.015.014.015.014.015.014.015.014.015.014.014.015.014.014.015.015.013.015.014.014.014.015.013.015.013.015.013.015.013.016.013.015.012.016.012.015.012.016.012.016.012.016.011.016.012.016.011.016.011.016.011.017.01.016.011.017.01.017.01.017.01.017.009.017.01.017.009.017.009.017.009.018.009.017.008.018.009.018.008.018.008.018.008.018.008.018.007.018.007.019.007.018.007.019.007.019.007.018.006.019.006.019.006.019.006.02.005.019.006.019.005.02.005.02.005.019.005.02.004.02.005.02.004.02.004.021.003.02.004.021.003.02.004.021.003.021.003.02.002.021.003.022.002.021.002.021.002.021.002.022.001.022.002.021.001.022.001.022.001h.022l.022.001h.117l.036-.001.035-.001.036-.002.035-.001.034-.002.034-.002.034-.003.034-.003.033-.003.033-.004.033-.003.032-.004.033-.005.031-.005.032-.005.031-.005.031-.006.031-.005.03-.007.03-.006.03-.007.029-.007.029-.008.029-.007.028-.008.029-.009.027-.008.028-.009.027-.01.027-.009.027-.01.026-.01.026-.011.026-.011.025-.011.026-.011.024-.012.025-.012.024-.012.024-.013.024-.013.023-.013.023-.013.023-.014.022-.014.022-.015.022-.014.022-.015.021-.016.021-.015.02-.016.02-.017.02-.016.02-.017.019-.017.02-.018.018-.017.019-.019.018-.018.018-.019.017-.019.018-.019.017-.02.017-.02.017-.021.016-.021.017-.022.017-.023.017-.023.016-.023.017-.025.016-.024.017-.026.016-.026.016-.026.016-.027.017-.028.016-.028.016-.029.016-.029.016-.03.015-.03.016-.031.016-.032.015-.032.016-.032.016-.033.015-.034.015-.035.016-.034.015-.036.015-.036.015-.036.015-.038.015-.037.015-.039.015-.038.015-.04.015-.04.014-.04.015-.041.014-.042.015-.042.014-.043.015-.043.014-.044.014-.044.014-.045.014-.046.014-.046.014-.047.014-.047.014-.048.014-.048.014-.049.013-.05.014-.05.013-.05.014-.051.013-.052.013-.052.014-.053.013-.054.013-.054.013-.054.013-.055.031-.128.032-.127.032-.128.033-.128.033-.128.034-.128.035-.128.035-.128.036-.129.037-.128.037-.129.038-.129.038-.129.039-.13.04-.129.04-.13.041-.129.042-.13.042-.13.043-.13.044-.13.044-.131.044-.13.046-.131.046-.131.046-.131.048-.131.047-.132.049-.131.049-.132.05-.131.05-.132.051-.132.051-.129.051-.129.051-.126.051-.126.051-.124.051-.122.052-.121.052-.12.051-.117.052-.117.052-.115.052-.114.026-.056.026-.056.026-.055.027-.055.026-.055.026-.054.026-.055.026-.053.027-.053.026-.053.026-.053.027-.052.026-.052.027-.051.026-.051.027-.051.026-.05.027-.05.026-.05.027-.049.026-.049.027-.049.027-.048.026-.048.027-.047.027-.047.027-.047.026-.046.027-.046.027-.045.027-.046.027-.044.027-.045.027-.044.027-.044.027-.043.027-.043.027-.043.027-.042.027-.041.027-.041.026-.04.027-.039.026-.039.026-.038.026-.038.026-.036.026-.037.025-.035.026-.035.025-.034.025-.033.025-.033.025-.032.025-.032.024-.031.024-.03.025-.029.024-.029.024-.028.023-.028.024-.027.024-.026.023-.025.023-.025.023-.025.023-.023.023-.023.023-.022.022-.022.022-.021.022-.02.022-.019.022-.019.022-.018.022-.018.021-.017.021-.016.022-.016.02-.015.021-.014.021-.013.021-.013.02-.013.02-.011.02-.011.02-.01.02-.01.02-.009.019-.008.02-.008.019-.007.019-.006.019-.006.019-.005.018-.004.019-.004.018-.003.018-.002.018-.002.018-.001h.031l.013.001h.012l.012.001.012.002.012.001.012.002.011.002.011.003.012.003.01.003.011.003.01.004.011.004.01.004.009.005.01.005.01.005.009.005.009.006.009.006.008.006.009.007.008.007.008.007.008.008.007.007.008.008.007.009.007.009.007.009.006.009.006.009.007.01.006.01.005.011.006.011.005.011.006.011.004.012.005.012.005.012.004.012.004.013.004.013.004.014.004.013.003.014.003.015.003.014.003.015.002.015.003.016.002.015.002.017.001.016.002.017.001.016.001.018.001.017.001.018v.018l.001.019v.067l-.001.052-.002.055-.002.059-.003.061-.003.065-.004.069-.004.071-.005.075-.006.078-.006.081-.007.084-.007.088-.008.091-.008.094-.01.097-.009.101-.011.104-.011.107-.011.11-.012.114-.013.116-.013.121-.014.123-.014.126-.015.13-.016.133-.016.136-.017.14-.017.143-.018.146-.019.149-.023.168-.023.166-.021.164-.021.161-.02.158-.02.156-.019.153-.018.151-.017.149-.017.145-.016.144-.015.141-.014.138-.014.136-.013.133-.012.131-.011.129-.011.126-.01.123-.009.121-.008.118-.008.116-.007.113-.006.111-.006.109-.005.105-.004.104-.003.1-.003.099-.001.096-.002.093v.144l.001.052v.053l.001.052.002.052.002.051.001.052.003.051.002.051.003.051.003.05.004.05.004.05.004.05.004.049.005.049.005.049.005.049.006.048.006.049.006.048.007.047.006.048.008.047.007.047.008.046.008.047.008.046.009.046.009.046.009.045.01.045.009.045.011.045.01.044.011.045.011.044.011.043.012.044.012.043.012.043.013.043.013.042.013.042.014.042.013.042.015.042.014.041.015.041.015.04.015.041.016.04.016.04.016.04.017.039.016.04.018.039.017.038.018.039.018.038.018.038.019.038.019.037.019.037.02.037.02.037.02.035.02.035.021.035.021.034.022.033.022.033.022.032.022.032.023.031.022.03.024.03.023.029.024.029.024.028.025.028.024.027.026.026.025.026.026.025.026.025.026.024.026.023.027.023.027.023.028.021.028.021.028.021.028.02.029.019.029.019.029.019.03.017.03.017.03.017.031.016.03.015.032.015.031.014.032.014.032.013.032.012.033.012.033.012.033.01.034.01.034.01.034.009.034.008.035.008.035.008.035.006.036.006.036.006.036.005.037.004.037.004.037.003.038.003.038.002.038.001.038.001h.114l.036-.001.037-.001.036-.001.036-.002.036-.002.035-.002.035-.003.035-.002.034-.004.034-.003.034-.004.033-.004.033-.004.033-.004.032-.005.032-.005.032-.006.032-.006.031-.006.03-.006.031-.007.03-.007.03-.007.029-.007.03-.008.028-.008.029-.009.028-.008.028-.009.028-.01.027-.009.027-.01.026-.01.027-.011.025-.01.026-.011.025-.012.025-.011.025-.012.024-.013.024-.012.024-.013.023-.013.024-.013.022-.014.023-.014.022-.014.021-.015.022-.015.021-.015.021-.015.02-.016.02-.016.02-.017.02-.016.019-.017.019-.017.018-.018.019-.018.017-.018.018-.018.017-.019.017-.019.017-.02.017-.02.017-.021.017-.022.017-.022.016-.022.017-.024.016-.024.017-.024.016-.025.017-.026.016-.026.016-.027.016-.027.016-.028.016-.029.016-.029.016-.03.016-.03.016-.031.016-.031.015-.033.016-.032.015-.034.016-.033.015-.035.015-.035.016-.036.015-.036.015-.037.015-.037.015-.038.015-.039.015-.039.015-.04.014-.04.015-.041.015-.041.014-.043.015-.042.014-.044.014-.043.015-.045.014-.045.014-.046.014-.046.014-.047.014-.047.014-.048.014-.049.014-.049.013-.05.014-.05.014-.051.013-.052.014-.052.013-.053.013-.053.013-.054.014-.054.013-.055.013-.056.013-.056.018-.072.018-.072.018-.072.018-.071.018-.071.019-.072.019-.071.019-.071.019-.071.019-.071.019-.07.02-.071.02-.071.02-.07.02-.07.02-.07.02-.07.021-.07.021-.07.021-.07.021-.07.021-.069.021-.069.022-.07.022-.069.021-.069.022-.069.023-.069.022-.069.023-.068.022-.069.023-.068.023-.068.024-.069.023-.068.024-.068.023-.067.024-.068.024-.068.024-.067.025-.068.024-.067.025-.067.025-.067.025-.067.025-.067.026-.067.025-.066.026-.067.026-.066.026-.067.026-.066.026-.066.027-.066.027-.066.027-.066.027-.065.027-.066.027-.065.028-.065.027-.066.028-.065.028-.065.028-.065.057-.128.057-.128.056-.125.057-.124.056-.123.057-.121.056-.119.057-.118.057-.116.056-.115.057-.113.056-.111.029-.055.028-.055.028-.054.028-.054.029-.054.028-.053.028-.053.028-.052.029-.052.028-.051.028-.052.029-.05.028-.051.028-.05.028-.049.029-.049.028-.049.028-.049.029-.048.028-.047.028-.047.028-.047.029-.047.028-.046.028-.045.029-.045.028-.045.028-.045.028-.044.029-.043.028-.043.028-.043.029-.043.028-.042.028-.041.028-.042.029-.041.028-.04.028-.04.028-.04.029-.039.028-.039.027-.037.028-.038.027-.036.028-.037.027-.035.026-.035.027-.034.026-.034.026-.033.026-.032.026-.032.026-.031.025-.031.025-.029.025-.03.025-.028.024-.029.025-.027.024-.027.024-.026.023-.026.024-.025.023-.024.023-.024.023-.023.023-.022.022-.022.023-.022.022-.02.022-.02.021-.02.022-.018.021-.019.021-.017.021-.017.021-.017.02-.015.021-.015.02-.015.02-.014.019-.013.02-.013.019-.012.019-.011.019-.011.019-.01.018-.01.018-.009.018-.008.018-.008.018-.007.017-.006.018-.006.017-.005.017-.005.016-.004.017-.003.016-.003.016-.002.016-.002.015-.001h.029l.012.001h.013l.012.001.012.002.012.001.011.002.012.002.011.003.011.003.011.003.011.003.01.004.01.004.01.004.01.005.01.005.009.005.009.005.009.006.009.006.009.006.008.007.008.007.008.007.008.008.008.007.007.008.007.009.007.009.007.009.007.009.006.009.006.01.006.01.006.011.006.011.005.011.005.011.005.012.005.012.004.012.005.012.004.013.004.013.004.014.003.013.004.014.003.015.003.014.002.015.003.015.002.016.002.015.002.017.002.016.002.017.001.016.001.018.001.017.001.018v.037l.001.018-.001.029v.029l-.001.03v.031l-.001.032-.002.032-.001.033-.002.034-.002.034-.002.035-.003.036-.003.036-.006.076-.007.078-.008.081-.009.084-.01.086-.011.09-.012.092-.013.096-.014.098-.015.101-.016.104-.017.107-.017.109-.019.113-.02.115-.02.119-.022.121-.022.124-.024.127-.024.13-.025.132-.027.136-.027.138-.028.142-.03.144-.03.147-.032.168-.032.165-.03.161-.029.159-.029.155-.027.152-.026.148-.026.146-.024.142-.023.139-.022.135-.021.133-.021.129-.019.126-.018.123-.017.119-.016.116-.015.113-.013.11-.013.107-.012.103-.011.1-.01.097-.004.047-.005.046-.004.046-.003.044-.004.044-.003.044-.003.042-.003.041-.002.041-.002.04-.002.039-.002.038-.001.038-.002.036v.036l-.001.035v.034l-.001.034.001.066v.065l.002.065.001.064.002.064.003.063.003.063.004.062.004.062.004.061.005.061.006.061.006.059.006.06.007.059.008.058.008.058.008.058.009.057.009.056.01.056.01.056.011.055.011.054.012.054.012.054.013.053.013.052.014.052.014.052.014.051.015.051.016.05.016.049.017.05.017.048.017.048.018.048.018.047.019.047.02.046.02.046.02.045.021.045.021.044.022.044.022.043.023.043.023.043.024.041.024.042.025.041.025.04.025.04.026.039.027.039.027.039.028.038.028.037.028.037.029.036.029.036.03.036.031.035.031.034.031.034.032.034.032.033.033.032.033.032.034.031.034.031.034.03.035.029.036.029.036.029.036.028.037.027.037.027.038.027.038.025.039.026.039.024.04.025.04.023.04.023.041.023.042.022.042.021.042.021.043.02.043.02.044.02.044.018.045.019.045.017.045.017.047.017.046.016.047.015.047.015.048.015.049.014.049.013.049.013.05.012.05.012.05.011.052.01.051.01.052.01.053.009.053.008.053.008.054.007.054.007.055.006.055.006.056.005.056.005.057.004.057.004.058.003.058.002.058.002.059.001.059.001h.134l.074-.001.074-.002.073-.002.073-.003.073-.003.073-.004.072-.005.072-.005.072-.006.072-.007.071-.007.071-.008.071-.008.071-.009.07-.01.071-.01.069-.011.07-.012.069-.012.07-.013.068-.013.069-.014.069-.015.068-.015.068-.016.067-.017.068-.017.067-.018.067-.018.066-.02.067-.019.066-.021.066-.021.065-.021.066-.022.065-.023.065-.024.065-.024.064-.025.064-.025.064-.026.064-.026.063-.028.063-.028.063-.028.063-.029.062-.03.063-.03.062-.031.061-.032.062-.032.061-.033.061-.033.061-.035.06-.034.06-.036.06-.036.06-.036.059-.038.059-.037.059-.039.059-.039.059-.04.05-.035.05-.034.05-.036.05-.035.05-.036.05-.036.05-.036.049-.037.05-.037.05-.037.049-.037.049-.038.05-.037.049-.038.049-.039.049-.038.049-.039.048-.039.049-.04.049-.04.048-.039.049-.041.048-.04.048-.041.048-.041.048-.041.048-.041.048-.042.048-.042.048-.043.047-.042.048-.043.032.054.033.052.033.053.034.052.035.052.035.051.036.051.036.051.037.05.037.05.038.049.038.049.039.049.04.048.04.048.041.048.023.026.024.027.023.026.024.026.024.026.023.026.024.025.024.025.024.025.025.025.024.025.024.024.025.024.024.024.025.024.025.024.025.023.025.023.025.023.025.023.026.022.025.023.025.022.026.022.026.021.026.022.025.021.026.021.027.021.026.021.026.02.026.02.027.02.026.02.027.02.027.019.027.019.027.019.027.019.027.018.027.019.028.018.027.018.028.017.027.018.028.017.028.017.028.017.028.017.028.016.029.016.028.016.028.016.029.016.029.015.028.015.029.015.029.015.029.015.03.014.029.014.029.014.03.014.029.013.03.014.03.013.029.013.03.012.03.013.031.012.03.012.03.012.031.012.03.011.031.011.031.011.03.011.031.01.031.011.032.01.031.01.031.01.032.009.031.01.032.009.031.009.032.008.032.009.032.008.032.008.033.008.032.008.032.007.033.007.033.007.032.007.033.007.033.006.033.006.033.006.033.006.034.006.033.005.034.005.033.005.034.005.034.004.034.004.034.004.034.004.034.004.034.003.035.004.034.003.035.003.035.002.034.003.035.002.035.002.035.002.036.001.035.002.035.001.036.001h.035l.036.001h.17l.049-.001.049-.001.049-.002.048-.002.048-.002.048-.002.048-.003.048-.003.047-.004.048-.004.047-.004.047-.004.046-.005.047-.005.046-.006.046-.005.046-.007.046-.006.045-.007.046-.007.045-.007.045-.008.045-.008.044-.009.045-.009.044-.009.044-.009.043-.01.044-.01.043-.01.044-.011.043-.011.043-.012.042-.011.043-.013.042-.012.042-.013.042-.013.041-.013.042-.014.041-.014.041-.015.041-.014.041-.015.04-.016.041-.016.04-.016.04-.016.039-.017.04-.017.039-.017.039-.018.039-.018.039-.018.039-.019.038-.019.038-.02.038-.019.038-.02.038-.021.037-.02.037-.021.037-.022.038-.022.037-.023.038-.023.038-.025.038-.024.039-.026.038-.026.039-.026.039-.028.039-.028.04-.028.039-.03.04-.03.04-.03.04-.031.04-.032.041-.033.04-.033.041-.034.041-.034.042-.035.041-.036.042-.036.042-.037.042-.038.042-.038.042-.039.043-.04.043-.04.043-.041.043-.041.043-.042.044-.043.044-.044.044-.044.044-.044.044-.046.045-.046.045-.046.045-.048.045-.048.045-.048.046-.05.045-.049.046-.051.046-.051.047-.052.046-.052.047-.054.047-.053.047-.055.047-.055.048-.055.047-.057.048-.057.048-.057.048-.059.049-.059.048-.059.049-.06.049-.061.049-.062.05-.062.024.052.023.052.024.052.024.051.025.05.024.05.025.05.025.05.025.049.025.048.025.048.026.048.025.047.026.047.026.047.026.046.026.045.027.046.027.045.026.044.027.044.027.044.028.043.027.043.028.042.028.042.028.042.028.041.028.041.028.04.029.04.029.04.029.039.029.038.029.039.03.038.029.037.03.037.03.037.03.036.03.036.031.035.03.035.031.035.031.034.031.034.032.033.031.033.032.033.031.032.032.032.032.031.033.031.032.031.033.03.032.029.033.03.034.029.033.028.033.028.034.028.034.027.033.027.035.026.034.026.034.026.035.025.035.025.035.024.035.024.035.024.035.023.036.023.036.022.036.022.036.021.036.022.036.02.037.02.037.02.036.02.038.019.037.018.037.019.038.018.037.017.038.017.038.017.039.016.038.016.039.015.038.015.039.014.039.015.04.013.039.014.04.012.039.013.04.012.04.012.04.011.041.011.04.01.041.01.041.01.041.009.041.009.042.008.041.008.042.008.042.007.042.007.042.006.042.006.043.006.043.005.043.005.043.004.043.004.043.003.044.003.043.003.044.002.044.002.044.001.045.001.044.001h.102l.056-.001.057-.002.056-.002.057-.003.057-.003.056-.005.057-.005.057-.005.057-.006.056-.007.057-.008.057-.008.057-.009.057-.009.056-.01.057-.011.057-.012.057-.012.057-.012.057-.014.057-.014.057-.015.057-.015.057-.016.057-.017.057-.017.057-.018.057-.019.057-.019.057-.02.057-.02.058-.022.057-.022.057-.022.057-.023.057-.024.058-.025.057-.025.057-.026.058-.026.057-.027.057-.028.058-.028.057-.03.057-.029.058-.031.057-.031.058-.031.057-.033.058-.033.057-.033.058-.035.057-.035.058-.035.057-.037.058-.037.058-.037.057-.038.058-.039.058-.04.057-.04.058-.041.058-.041.062-.046.063-.046.062-.046.062-.047.062-.047.062-.047.062-.047.061-.048.062-.048.061-.049.061-.049.06-.049.061-.049.06-.05.061-.05.06-.05.06-.051.059-.051.06-.051.059-.052.059-.052.059-.052.059-.053.059-.052.058-.054.059-.053.058-.054.058-.054.058-.055.057-.054.058-.055.057-.056.018.069.019.068.02.067.019.066.021.065.02.065.021.063.022.063.021.062.023.061.022.06.023.059.024.058.024.058.012.028.012.028.012.028.013.028.012.027.013.028.012.027.013.026.013.027.013.027.013.026.013.026.014.025.013.026.013.025.014.025.014.025.014.025.014.024.014.025.014.024.014.023.014.024.015.023.014.023.015.023.015.023.014.023.015.022.015.022.016.022.015.021.015.022.016.021.015.021.016.02.028.037.029.037.029.035.03.035.029.035.03.034.031.033.031.033.031.032.031.032.032.031.032.03.032.03.033.029.033.029.034.028.033.028.035.027.034.026.035.026.035.025.035.025.036.024.036.023.036.023.037.023.037.021.038.021.037.021.038.02.039.019.039.019.039.019.039.017.04.017.04.017.04.016.041.015.041.015.041.014.042.014.042.013.042.012.043.012.043.012.043.01.044.01.044.01.044.009.045.008.045.008.046.008.045.006.046.006.047.006.046.005.047.004.048.004.047.003.048.003.049.002.048.001.049.001h.139l.044-.001.045-.002.044-.002.044-.002.044-.002.044-.003.044-.003.044-.004.043-.004.044-.005.043-.004.044-.006.043-.005.043-.006.043-.007.043-.006.042-.007.043-.008.043-.008.042-.008.042-.009.042-.009.043-.01.041-.009.042-.011.042-.01.042-.011.041-.012.042-.011.041-.013.041-.012.041-.013.041-.014.041-.013.041-.014.04-.015.041-.015.04-.015.041-.016.04-.016.04-.016.04-.017.04-.017.04-.018.039-.018.04-.018.039-.019.039-.019.04-.02.039-.019.039-.021.039-.02.038-.022.039-.021.039-.022.038-.022.038-.023.038-.023.039-.023.038-.024.037-.024.038-.025.038-.025.038-.025.038-.027.037-.027.038-.028.038-.028.038-.029.039-.03.038-.03.038-.031.038-.032.039-.032.038-.033.039-.034.038-.034.039-.035.038-.036.039-.036.039-.037.038-.038.039-.038.039-.039.039-.04.039-.04.039-.041.039-.042.039-.042.04-.043.039-.044.039-.044.04-.045.039-.046.04-.046.039-.047.04-.048.039-.048.04-.049.04-.05.04-.05.04-.051.04-.051.04-.053.04-.052.04-.054.04-.054.04-.055.04-.056.041-.056.04-.057.041-.057.04-.059.041-.059.04-.059.041-.06.041-.061.04-.062.041-.062.041-.063.041-.063.041-.064.041-.065.041-.066.041-.066.042-.067.085-.137.085-.139.085-.14.085-.141.086-.143.086-.144.086-.146.086-.146.086-.149.086-.149.087-.151.087-.152.087-.153.087-.155.087-.156.087-.158.088-.159.088-.16.088-.162.088-.163.088-.164.088-.165.089-.167.089-.169.089-.169.089-.171.089-.173.089-.173.09-.175.09-.177.089-.177.091-.179.09-.181.09-.181.091-.183.09-.185.091-.186.091-.187.092-.188.091-.19.092-.191.091-.192.092-.194.092-.195.092-.197.093-.198.092-.199.093-.201.093-.201.093-.204.093-.204.094-.206.093-.207.094-.209.094-.21.094-.211.094-.213.094-.214.095-.215.095-.217.094-.218.096-.219.095-.221.095-.222.019-.049.018-.049.017-.047.017-.048.016-.046.016-.046.015-.045.014-.045.014-.044.013-.043.013-.042.012-.042.011-.041.011-.041.011-.04.009-.039.009-.039.009-.037.008-.038.007-.036.007-.036.006-.035.006-.035.005-.034.004-.033.004-.033.003-.032.003-.031.002-.031.002-.029v-.03l.001-.028v-.021l-.001-.02v-.021l-.001-.02-.001-.019-.002-.02-.001-.02-.002-.019-.003-.019-.002-.02-.003-.018-.002-.019-.004-.019-.003-.018-.004-.019-.004-.018-.004-.018-.004-.017-.005-.018-.005-.018-.005-.017-.006-.017-.005-.017-.006-.017-.006-.017-.007-.016-.007-.016-.006-.017-.008-.016-.007-.016-.008-.015-.008-.016-.008-.015-.009-.015-.008-.015-.009-.015-.01-.015-.009-.015-.01-.014-.01-.014-.01-.014-.011-.014-.01-.014-.011-.014-.012-.013-.011-.014-.012-.013-.012-.013-.012-.012-.013-.013-.012-.013-.014-.012-.013-.012-.013-.012-.014-.012-.014-.012-.015-.011-.014-.011-.015-.012-.015-.011-.015-.011-.016-.01-.016-.011-.016-.01-.016-.01-.017-.011-.016-.009-.018-.01-.017-.01-.018-.009-.017-.009-.018-.01-.019-.008-.018-.009-.019-.009-.019-.008-.02-.009-.019-.008-.02-.008-.02-.008-.021-.007-.02-.008-.021-.007-.021-.007-.022-.007-.021-.007-.022-.007-.023-.006-.022-.007-.023-.006-.023-.006-.023-.006-.023-.005-.024-.006-.024-.005-.024-.006-.024-.005-.025-.005-.025-.004-.025-.005-.026-.004-.025-.005-.026-.004-.026-.004-.027-.004-.027-.003-.027-.004-.027-.003-.027-.003-.028-.003-.028-.003-.028-.003-.029-.002-.028-.002-.059-.005-.059-.003-.06-.003-.061-.002-.063-.002-.063-.001H65.8l-.031.001h-.031l-.031.001-.031.001-.031.002-.03.001-.031.002-.03.001-.03.003-.03.002-.03.002-.029.003-.03.003-.029.003-.029.003-.029.003-.029.004-.028.003-.029.004-.028.005-.028.004-.028.005-.028.004-.027.005-.028.005-.027.006-.027.005-.027.006-.027.006-.027.006-.026.006-.026.007-.026.006-.026.007-.026.007-.026.007-.025.008-.025.007-.025.008-.025.008-.025.009-.025.008-.024.009-.024.008-.025.009-.024.01-.023.009-.024.009-.023.01-.024.01-.023.01-.023.011-.023.01-.022.011-.023.011-.022.011-.022.011-.022.012-.022.012-.021.011-.022.012-.021.013-.021.012-.021.013-.021.014-.021.013-.021.014-.02.014-.02.015-.021.015-.02.016-.02.015-.02.017-.019.016-.02.017-.019.017-.02.018-.019.018-.019.018-.019.019-.019.019-.019.019-.018.02-.019.02-.018.02-.018.021-.018.021-.018.022-.018.022-.017.022-.018.023-.017.023-.018.023-.017.024-.017.024-.017.024-.017.025-.016.025-.017.025-.016.026-.016.026-.016.027-.016.027-.016.027-.016.028-.016.028-.015.028-.015.029-.016.029-.015.029-.015.03-.015.03-.014.031-.015.031-.014.031-.015.031-.014.032-.014.033-.014.032-.014.033-.013.034-.014.033-.013.035-.013.034-.014.035-.013.035-.087.237-.086.233-.086.231-.086.228-.086.225-.085.222-.084.219-.084.216-.084.213-.083.211-.083.207-.083.205-.041.101-.041.101-.041.099-.041.099-.04.099-.041.097-.041.097-.04.096-.04.096-.041.094-.04.094-.04.093-.04.093-.039.092-.04.091-.04.09-.039.089-.04.089-.039.088-.039.088-.039.086-.039.086-.039.086-.039.084-.039.084-.038.083-.039.082-.038.082-.038.08-.038.081-.039.079-.038.079-.037.077-.038.078-.038.076-.037.076-.038.075-.037.074-.038.074-.037.073-.074.145-.076.146-.076.148-.077.148-.078.149-.079.15-.08.151-.081.152-.081.152-.082.154-.084.155-.084.155-.084.157-.086.157-.087.158-.087.16-.088.16-.089.161-.09.162-.091.163-.091.163-.093.165-.093.166-.094.166-.095.168-.096.168-.097.17-.097.17-.099.171-.099.172-.1.173-.101.174-.032-.431-.032-.426-.03-.421-.03-.416-.028-.411-.027-.405-.027-.401-.025-.395-.024-.391-.012-.193-.011-.192-.012-.191-.011-.19-.01-.188-.011-.187-.01-.185-.01-.185-.009-.183-.01-.182-.009-.181-.009-.179-.009-.178-.008-.177-.008-.175-.008-.175-.008-.173-.007-.171-.007-.171-.007-.169-.006-.168-.007-.166-.006-.166-.006-.164-.005-.163-.005-.161-.005-.161-.005-.159-.005-.157-.004-.157-.004-.155-.004-.154-.003-.153-.003-.151-.003-.15-.003-.149-.002-.148-.003-.146-.002-.145-.001-.144-.002-.142-.001-.142-.001-.139v-.139l-.001-.138v-.199l-.001-.031-.001-.031-.001-.03-.001-.031-.002-.029-.001-.03-.002-.03-.002-.029-.003-.028-.002-.029-.003-.028-.003-.028-.004-.028-.003-.027-.004-.027-.004-.027-.004-.027-.005-.026-.005-.026-.005-.026-.005-.025-.005-.025-.006-.025-.006-.025-.006-.024-.006-.024-.007-.023-.006-.024-.008-.023-.007-.023-.007-.022-.008-.023-.008-.022-.008-.021-.008-.022-.009-.021-.009-.021-.009-.02-.009-.02-.01-.02-.01-.02-.01-.019-.01-.02-.01-.018-.011-.019-.011-.018-.011-.018-.012-.018-.011-.017-.012-.017-.012-.017-.012-.017-.013-.016-.013-.016-.013-.016-.013-.015-.014-.015-.013-.015-.014-.015-.014-.014-.015-.014-.014-.014-.015-.013-.015-.013-.016-.013-.015-.013-.016-.013-.016-.012-.016-.012-.017-.012-.017-.012-.017-.011-.017-.012-.018-.011-.018-.011-.018-.01-.018-.011-.019-.01-.019-.01-.019-.01-.019-.01-.02-.009-.019-.009-.02-.009-.021-.009-.02-.009-.021-.008-.021-.008-.022-.008-.021-.008-.022-.007-.022-.008-.022-.007-.023-.007-.023-.006-.023-.007-.023-.006-.024-.006-.023-.006-.024-.006-.025-.005-.024-.005-.025-.005-.025-.005-.025-.004-.026-.005-.026-.004-.026-.004-.026-.004-.027-.003-.026-.003-.027-.003-.028-.003-.027-.003-.028-.002-.028-.003-.028-.002-.029-.001-.029-.002-.029-.001-.029-.002h-.029l-.03-.001-.03-.001h-.141l-.039.001-.039.001-.038.001-.039.001-.038.002-.038.001-.037.003-.037.002-.037.002-.036.003-.036.003-.036.003-.036.004-.035.003-.035.004-.035.005-.034.004-.034.005-.033.005-.034.005-.033.005-.032.006-.033.006-.032.006-.032.006-.031.007-.031.006-.031.008-.031.007-.03.007-.03.008-.029.008-.03.008-.029.009-.028.009-.029.009-.028.009-.027.009-.028.01-.027.01-.026.01-.027.011-.026.01-.026.011-.025.011-.026.012-.024.011-.025.012-.024.012-.024.012-.024.013-.023.013-.023.013-.023.013-.022.014-.022.013-.022.014-.022.015-.021.014-.021.015-.02.015-.02.015-.02.016-.02.015-.019.017-.019.016-.019.017-.018.018-.018.017-.018.018-.018.019-.017.019-.017.019-.016.019-.017.02-.016.021-.016.02-.015.021-.015.022-.015.021-.015.023-.014.022-.014.023-.014.023-.013.024-.013.024-.013.024-.012.025-.013.025-.012.025-.011.026-.012.026-.011.027-.01.027-.011.027-.01.028-.01.028-.009.028-.01.029-.009.029-.008.03-.009.029-.008.031-.008.03-.007.031-.007.032-.007.031-.007.032-.006.033-.006.033-.006.033-.006.033-.005.034-.005.035-.004.034-.004.035-.004.036-.004.035-.003.036-.004.037-.002.037-.003.037-.002.038-.002.038-.002.038-.001.039v1.512l.001.194.001.196.002.197.003.198.003.201.003.201.004.204.005.204.005.207.005.208.006.209.007.211.007.213.008.214.008.216.009.217.009.219.01.22.01.222.011.223.011.225.012.227.013.228.013.23.013.231.014.232.015.235.015.236.016.237.016.239.017.24-.083.095-.082.094-.081.092-.081.091-.079.089-.078.087-.078.086-.076.085-.076.083-.074.081-.074.079-.073.079-.072.076-.07.075-.07.073-.07.072-.068.071-.067.068-.066.067-.065.066-.065.064-.063.063-.063.06-.061.06-.061.058-.06.056-.059.054-.058.054-.057.051-.056.05-.055.048-.054.047-.033.028-.033.028-.033.027-.033.027-.033.026-.033.026-.033.025-.032.025-.033.025-.033.024-.033.024-.033.023-.032.023-.033.022-.033.022-.033.021-.032.021-.033.021-.033.02-.032.02-.033.019-.033.019-.032.018-.033.018-.032.017-.033.017-.032.017-.033.016-.032.016-.033.015-.032.015-.033.014-.032.014-.032.013-.033.014-.032.012-.032.012-.033.012-.032.011-.032.011-.032.01-.033.01-.032.01-.032.009-.032.009-.032.008-.033.007-.032.008-.032.007-.032.006-.032.006-.032.006-.032.005-.032.004-.032.004-.032.004-.032.004-.032.002-.032.003-.032.002-.032.001-.031.001-.032.001h-.057l-.024-.001-.025-.001-.024-.001-.024-.002-.024-.003-.024-.003-.024-.003-.023-.004-.024-.005-.023-.005-.023-.005-.023-.006-.023-.006-.023-.006-.022-.008-.023-.007-.022-.008-.022-.009-.022-.009-.022-.009-.022-.01-.022-.01-.021-.011-.022-.012-.021-.011-.021-.012-.021-.013-.021-.013-.02-.014-.021-.014-.02-.014-.02-.015-.021-.016-.02-.016-.019-.016-.02-.017-.02-.017-.019-.018-.019-.018-.02-.019-.019-.019-.018-.019-.019-.02-.019-.021-.018-.021-.019-.021-.018-.022-.018-.022-.018-.023-.018-.023-.017-.024-.018-.024-.017-.025-.017-.025-.017-.025-.017-.026-.017-.027-.017-.027-.016-.027-.017-.028-.016-.028-.016-.029-.016-.029-.016-.03-.015-.031-.016-.03-.015-.032-.015-.032-.015-.033-.015-.033-.015-.034-.014-.035-.014-.035-.014-.036-.014-.037-.014-.037-.014-.037-.013-.039-.013-.039-.013-.039-.013-.04-.013-.041-.012-.041-.013-.042-.012-.043-.012-.043-.011-.043-.012-.045-.012-.045-.011-.045-.011-.046-.011-.047-.011-.048-.01-.048-.011-.048-.01-.049-.01-.05-.01-.051-.009-.051-.01-.051-.009-.053-.009-.052-.009-.054-.009-.054-.009-.055-.008-.055-.009-.056-.008-.056-.008-.057-.008-.058-.007-.058-.008-.059-.007-.06-.007-.06-.007-.061-.006-.061-.007-.062-.006-.063-.007-.063-.006-.064-.005-.064-.006-.065-.006-.066-.005-.066-.005-.067-.005-.067-.005-.068.108-.186.108-.186.106-.186.106-.186.106-.185.104-.186.104-.185.104-.185.102-.185.102-.185.101-.184.101-.185.1-.184.099-.184.099-.184.097-.184.098-.184.096-.184.096-.183.095-.183.095-.184.093-.183.093-.183.093-.182.092-.183.091-.182.09-.183.09-.182.089-.182.088-.181.088-.182.086-.182.087-.181.085-.181.085-.181.084-.181.084-.181.083-.181.082-.18.082-.181.08-.18.081-.18.079-.18.079-.18.078-.179.077-.18.077-.179.076-.179.075-.179.075-.179.074-.179.073-.179.073-.178.072-.178.071-.179.071-.178.07-.178.069-.177.069-.178.068-.177.067-.177.066-.178.066-.177.065-.176.065-.177.063-.176.062-.175.031-.087.03-.087.031-.087.03-.086.029-.087.03-.086.029-.087.029-.086.029-.085.028-.086.029-.086.028-.085.027-.085.028-.085.027-.085.027-.084.027-.085.026-.084.026-.084.026-.084.026-.084.025-.084.026-.083.025-.083.024-.083.025-.083.024-.083.024-.082.023-.083.024-.082.023-.082.023-.082.023-.081.022-.082.022-.081.022-.081.022-.081.021-.081.021-.08.021-.081.021-.08.02-.08.02-.08.02-.08.02-.079.019-.08.019-.079.019-.079.019-.079.018-.078.018-.079.018-.078.018-.078.017-.078.017-.078.017-.078.016-.077.017-.078.016-.077.016-.077.015-.076.016-.077.015-.076.014-.076.015-.077.014-.075.014-.076.014-.076.014-.075.013-.075.013-.075.013-.075.012-.075.013-.074.012-.074.011-.074.012-.074.011-.074.011-.074.011-.073.01-.073.011-.074.01-.072.009-.073.01-.073.009-.072.009-.072.009-.072.008-.072.009-.072.008-.071.007-.072.008-.071.007-.071.007-.071.007-.07.006-.071.006-.07.006-.07.006-.07.005-.07.006-.069.005-.07.004-.069.005-.069.004-.069.004-.069.003-.068.004-.068.003-.069.003-.068.003-.067.002-.068.002-.068.002-.067.002-.067.001-.067.001-.067.001-.066.001-.067v-.225l-.001-.092-.001-.091-.002-.091-.002-.089-.003-.089-.004-.089-.004-.087-.004-.087-.005-.086-.006-.086-.006-.084-.006-.084-.007-.083-.008-.083-.008-.081-.009-.081-.009-.08-.009-.08-.011-.079-.01-.078-.012-.077-.012-.076-.012-.076-.013-.075-.013-.075-.014-.073-.014-.073-.015-.072-.016-.071-.016-.071-.016-.07-.017-.069-.018-.069-.018-.067-.019-.067-.019-.066-.02-.066-.01-.032-.01-.033-.01-.032-.011-.032-.01-.031-.011-.032-.011-.031-.011-.031-.011-.031-.011-.031-.011-.031-.012-.03-.011-.031-.012-.03-.012-.029-.012-.03-.012-.03-.012-.029-.013-.029-.012-.029-.013-.029-.013-.028-.013-.029-.013-.028-.013-.028-.013-.028-.014-.028-.013-.027-.014-.028-.014-.027-.014-.027-.014-.026-.014-.027-.014-.026-.015-.026-.015-.026-.014-.026-.015-.026-.015-.025-.015-.026-.016-.025-.015-.025-.016-.024-.015-.025-.016-.024-.016-.025-.016-.024-.016-.023-.017-.024-.016-.023-.017-.024-.016-.023-.034-.045-.034-.045-.034-.044-.035-.044-.035-.043-.035-.042-.035-.041-.036-.04-.036-.04-.036-.039-.036-.039-.037-.038-.037-.036-.037-.037-.037-.035-.038-.035-.038-.034-.038-.034-.019-.016-.02-.016-.019-.016-.02-.016-.019-.016-.02-.015-.019-.016-.02-.015-.02-.015-.02-.015-.019-.014-.02-.015-.02-.014-.021-.014-.02-.014-.02-.014-.02-.013-.021-.014-.02-.013-.02-.013-.021-.013-.021-.013-.02-.012-.021-.012-.021-.012-.021-.012-.021-.012-.021-.012-.021-.011-.021-.011-.021-.011-.022-.011-.021-.011-.021-.01-.022-.011-.022-.01-.021-.01-.022-.01-.022-.009-.021-.01-.022-.009-.022-.009-.022-.009-.022-.009-.023-.008-.022-.008-.022-.009-.022-.008-.023-.007-.022-.008-.023-.007-.023-.008-.022-.007-.023-.007-.023-.006-.023-.007-.023-.006-.023-.007-.023-.006-.023-.005-.023-.006-.024-.006-.023-.005-.023-.005-.024-.005-.023-.005-.024-.004-.024-.005-.024-.004-.023-.004-.024-.004-.024-.003-.024-.004-.024-.003-.025-.003-.024-.003-.024-.003-.024-.003-.025-.002-.024-.002-.025-.002-.025-.002-.024-.002-.025-.002-.025-.001-.025-.001-.025-.001-.025-.001-.025-.001h-.127zm18.889 28.621h-.053l-.054.002-.052.001-.053.003-.052.002-.052.004-.051.003-.051.005-.051.004-.05.006-.05.005-.049.006-.05.007-.048.007-.049.008-.048.008-.047.009-.047.009-.047.01-.047.01-.046.011-.046.011-.045.012-.045.012-.044.013-.045.013-.043.013-.044.015-.043.014-.043.015-.042.016-.042.016-.041.017-.042.017-.04.018-.041.018-.04.018-.04.02-.039.019-.039.02-.038.021-.039.021-.037.022-.038.022-.037.022-.036.024-.037.023-.036.024-.035.025-.035.025-.035.026-.034.026-.034.026-.034.027-.033.028-.033.028-.033.029-.032.029-.032.029-.031.03-.031.031-.031.031-.03.032-.03.032-.029.032-.029.033-.028.033-.028.033-.028.033-.027.034-.026.035-.026.034-.026.035-.025.036-.025.035-.024.036-.023.037-.024.036-.022.037-.023.037-.022.038-.021.038-.021.038-.02.039-.02.039-.02.039-.019.04-.018.04-.018.04-.018.04-.017.041-.017.042-.016.041-.016.042-.015.042-.015.043-.014.043-.014.043-.013.044-.013.044-.013.044-.012.045-.011.044-.011.046-.011.045-.01.046-.009.046-.01.047-.008.047-.009.047-.007.048-.008.048-.006.048-.007.048-.006.049-.005.049-.005.05-.004.05-.004.05-.004.051-.003.05-.002.052-.003.051-.001.052-.001.052-.001.053v.144l.002.045.001.045.002.045.002.044.003.045.003.043.003.044.004.043.005.043.004.043.006.043.005.042.006.042.007.042.007.041.007.041.007.041.009.041.008.04.009.04.009.04.01.039.01.039.011.039.011.039.011.038.012.038.012.038.013.038.013.037.013.037.014.037.014.036.015.036.015.036.016.036.016.035.016.035.017.035.017.034.018.034.018.034.018.034.019.033.019.034.02.032.02.033.02.032.021.032.022.032.022.031.022.032.022.031.023.03.024.031.023.03.025.029.024.03.025.029.026.029.026.029.026.028.027.028.027.028.027.027.028.027.029.026.028.026.029.025.03.025.03.025.03.024.031.024.031.023.031.023.032.022.032.022.033.021.033.021.033.021.034.02.035.02.034.019.035.019.036.018.035.018.037.017.036.017.037.017.038.016.037.016.039.015.038.015.039.014.04.014.039.013.041.013.04.013.041.012.041.012.042.011.042.011.043.01.043.01.043.01.044.009.044.009.045.008.044.007.046.008.046.007.046.006.046.006.047.005.047.006.048.004.048.004.049.004.048.003.05.003.049.003.05.002.051.001.051.001.051.001h.105l.052-.001.052-.001.052-.002.051-.002.052-.003.05-.003.051-.004.05-.004.05-.005.049-.005.049-.006.049-.006.048-.007.048-.008.047-.008.048-.008.047-.009.046-.009.046-.01.046-.01.046-.011.045-.012.045-.012.044-.012.044-.013.044-.013.043-.014.043-.015.043-.015.042-.015.042-.016.042-.016.041-.017.041-.018.041-.018.04-.018.04-.019.04-.02.039-.02.039-.02.038-.021.038-.022.038-.022.038-.022.037-.023.037-.024.036-.024.036-.025.036-.025.035-.025.035-.026.035-.027.034-.027.034-.028.034-.028.033-.028.033-.029.032-.03.033-.03.032-.031.031-.031.031-.032.031-.032.03-.032.03-.033.03-.033.029-.034.028-.034.028-.034.028-.035.027-.035.026-.035.026-.036.026-.036.025-.036.025-.037.024-.037.024-.037.023-.038.023-.038.022-.038.022-.039.021-.039.021-.039.02-.04.02-.04.019-.041.019-.04.019-.041.018-.042.017-.042.017-.042.017-.042.016-.043.015-.043.015-.044.015-.043.014-.045.014-.044.013-.045.013-.045.012-.046.012-.045.011-.047.011-.046.01-.047.01-.047.009-.048.009-.048.008-.048.008-.049.008-.049.007-.049.006-.049.006-.05.005-.051.006-.05.004-.051.004-.052.004-.051.003-.052.002-.053.003-.052.001-.053.001-.054.001-.053v-.153l-.001-.048-.002-.048-.002-.048-.002-.047-.003-.047-.003-.047-.003-.046-.004-.046-.005-.046-.004-.045-.006-.045-.005-.044-.006-.044-.007-.044-.006-.043-.008-.043-.007-.043-.008-.042-.009-.041-.009-.042-.009-.041-.01-.04-.01-.041-.011-.04-.011-.039-.011-.039-.012-.039-.012-.038-.013-.038-.013-.038-.013-.037-.014-.037-.014-.036-.015-.036-.015-.036-.016-.035-.016-.035-.016-.035-.017-.034-.017-.034-.018-.034-.018-.033-.018-.032-.019-.033-.019-.032-.02-.031-.02-.031-.02-.031-.021-.031-.022-.03-.021-.029-.023-.03-.022-.028-.023-.029-.024-.028-.023-.028-.025-.027-.024-.027-.025-.027-.026-.026-.026-.026-.026-.026-.027-.025-.027-.025-.027-.024-.028-.024-.029-.024-.028-.023-.029-.022-.03-.023-.03-.022-.03-.021-.031-.022-.031-.02-.031-.021-.032-.02-.032-.019-.033-.019-.033-.019-.033-.019-.034-.018-.034-.017-.035-.018-.035-.016-.036-.017-.035-.016-.037-.015-.036-.016-.037-.015-.038-.014-.037-.014-.039-.014-.038-.013-.039-.013-.039-.012-.04-.012-.04-.012-.041-.011-.041-.011-.041-.011-.042-.01-.042-.009-.043-.01-.043-.009-.043-.008-.044-.008-.044-.008-.044-.007-.045-.007-.046-.007-.045-.006-.047-.006-.046-.005-.047-.005-.047-.005-.048-.004-.048-.003-.048-.004-.049-.003-.05-.002-.049-.003-.05-.001-.051-.002-.051-.001h-.051l-.052-.001-.054.001zm-27.18-6.802l-.009.241-.008.233-.007.223-.007.215-.006.206-.006.197-.005.188-.004.18-.004.17-.003.162-.003.153-.002.144-.001.135-.001.127-.001.117v.079l.001.079v.078l.001.078.001.078.001.078.001.077.001.077.002.077.002.077.001.076.003.076.002.076.002.076.003.076.003.075.003.075.003.075.004.074.003.074.004.074.004.074.004.074.004.073.005.073.005.073.004.073.006.072.005.072.005.072.006.072.006.071.006.071.006.071.006.071.007.07.006.071.007.07.007.069.008.07.007.069.008.069.008.069.008.068.008.069.008.068.009.068.008.067.009.068.01.067.009.067.009.066.01.067.01.066.01.066.01.065.01.066.011.065.011.065.011.065.011.064.011.064.012.064.011.064-.068.098-.067.096-.066.094-.066.092-.065.091-.064.088-.064.086-.063.084-.062.083-.061.08-.061.079-.06.076-.059.075-.058.073-.058.07-.057.069-.056.067-.056.065-.027.031-.027.031-.027.031-.027.03-.027.03-.026.029-.027.029-.026.028-.026.028-.026.027-.025.027-.026.027-.025.025-.025.026-.025.025-.025.024-.024.024-.024.023-.025.023-.024.023-.023.021-.024.022-.023.021-.024.02-.023.02-.022.02-.023.019-.023.018-.022.018-.022.018-.023.018-.022.017-.023.017-.022.017-.022.016-.023.016-.022.016-.022.016-.023.015-.022.015-.023.015-.022.014-.022.014-.023.014-.022.014-.023.013-.022.013-.022.012-.023.013-.022.012-.023.012-.022.011-.022.012-.023.011-.022.01-.022.011-.023.01-.022.01-.023.009-.022.01-.022.009-.023.008-.022.009-.023.008-.022.008-.022.007-.023.008-.022.007-.023.006-.022.007-.022.006-.023.006-.022.005-.022.005-.023.005-.022.005-.023.005-.022.004-.022.004-.023.003-.022.003-.023.003-.022.003-.022.003-.023.002-.022.002-.023.001-.022.001-.022.001-.023.001-.022.001h-.052l-.029-.001-.029-.001-.029-.001-.028-.001-.028-.002-.028-.003-.028-.002-.027-.003-.028-.003-.027-.004-.026-.003-.027-.005-.026-.004-.027-.005-.025-.005-.026-.006-.026-.006-.025-.006-.025-.006-.024-.007-.025-.008-.024-.007-.024-.008-.024-.008-.024-.009-.023-.009-.023-.009-.023-.01-.023-.009-.022-.011-.022-.01-.022-.011-.022-.011-.022-.012-.021-.012-.021-.012-.021-.013-.02-.013-.021-.013-.02-.014-.02-.014-.02-.014-.019-.015-.019-.015-.019-.015-.019-.015-.018-.016-.019-.017-.018-.016-.018-.017-.017-.018-.018-.017-.017-.018-.017-.019-.016-.018-.017-.019-.016-.019-.016-.02-.016-.02-.015-.02-.016-.021-.015-.021-.015-.021-.014-.022-.015-.022-.014-.022-.014-.023-.013-.023-.014-.024-.013-.023-.013-.024-.013-.025-.012-.024-.013-.025-.012-.026-.012-.025-.011-.026-.012-.027-.011-.027-.011-.027-.01-.027-.011-.028-.01-.028-.01-.028-.01-.029-.009-.029-.01-.029-.009-.03-.009-.03-.008-.031-.009-.03-.008-.031-.008-.032-.008-.032-.007-.032-.007-.032-.007-.033-.007-.033-.007-.033-.006-.034-.006-.034-.006-.035-.006-.035-.005-.035-.005-.035-.005-.036-.005-.036-.004-.036-.005-.037-.004-.037-.003-.038-.004-.038-.003-.038-.003-.038-.003-.039-.003-.039-.002-.04-.003-.04-.002-.04-.001-.04-.002-.041-.001-.041-.001-.042-.001-.041v-.043l-.001-.042v-.124l.001-.081.002-.081.002-.08.003-.081.004-.08.005-.08.005-.079.005-.079.007-.08.007-.078.007-.079.009-.079.009-.078.01-.078.01-.077.011-.078.012-.077.012-.077.013-.077.014-.077.015-.076.015-.076.016-.076.016-.076.017-.075.018-.075.019-.075.019-.075.019-.075.021-.074.021-.074.022-.074.023-.073.023-.074.024-.073.024-.073.025-.073.026-.072.027-.072.027-.072.028-.072.028-.072.03-.071.03-.071.03-.071.031-.07.032-.071.033-.07.033-.07.034-.069.035-.07.035-.069.036-.069.037-.069.037-.068.038-.069.038-.068.04-.068.04-.067.04-.068.042-.067.042-.067.042-.066.044-.067.043-.065.044-.065.044-.064.045-.063.045-.063.045-.062.045-.061.046-.06.047-.06.046-.059.024-.029.023-.029.024-.029.023-.029.024-.028.024-.028.024-.028.024-.028.024-.028.024-.028.024-.027.025-.027.024-.027.025-.027.024-.027.025-.026.025-.026.025-.027.025-.025.025-.026.025-.026.025-.025.025-.025.026-.025.025-.025.026-.025.025-.024.026-.025.026-.024.026-.024.026-.023.026-.024.026-.023.026-.024.027-.023.026-.022.026-.023.027-.023.027-.022.026-.022.027-.022.027-.022.027-.021.027-.022.027-.021.028-.021.027-.021.027-.02.028-.021.028-.02.027-.02.028-.02.028-.02.028-.019.028-.02.028-.019.028-.019.028-.019.029-.018.028-.019.029-.018.028-.018.029-.018.029-.018.029-.018.029-.017.029-.017.029-.017.029-.017.029-.017.03-.016.029-.016.03-.016.029-.016.03-.016.03-.016.03-.015.03-.015.03-.015.03-.015.03-.015.031-.014.03-.015.03-.014.031-.014.031-.013.03-.014.031-.013.031-.013.031-.013.031-.013.031-.013.032-.012.031-.013.031-.012.032-.012.032-.012.031-.011.032-.011.032-.012.032-.011.032-.011.032-.01.032-.011.032-.01.033-.01-.009.25zm7.938-18.124l.011.001.01.001.011.001.01.002.01.002.011.003.01.002.01.004.01.003.01.004.011.005.01.005.01.005.009.006.01.006.01.006.01.007.01.007.009.007.01.008.01.009.009.008.01.009.009.01.01.01.009.01.009.011.01.011.009.011.009.012.009.012.009.013.01.013.009.013.009.014.008.014.009.014.009.015.009.015.009.016.008.016.009.017.009.016.008.018.009.017.008.018.009.019.008.018.008.019.009.02.008.02.008.02.008.021.008.021.008.021.016.044.016.046.016.047.015.049.008.025.007.025.007.026.008.025.007.027.007.026.007.027.007.027.006.027.007.028.006.028.006.028.007.029.006.029.011.059.012.06.01.062.011.062.009.064.01.065.009.067.008.067.008.069.007.07.007.072.007.072.006.074.005.075.005.077.005.077.004.079.003.081.004.081.002.083.002.084.002.085.001.086.001.088v.176l-.001.088-.001.088-.002.089-.002.089-.003.09-.003.09-.004.091-.005.09-.005.092-.005.092-.006.092-.006.093-.007.093-.008.094-.008.094-.008.094-.009.095-.01.095-.01.096-.011.096-.011.097-.011.097-.012.098-.013.098-.013.098-.014.099-.014.1-.015.099-.015.101-.016.1-.016.101-.017.102-.017.102-.018.102-.018.103-.019.104-.019.103-.02.105-.02.104-.021.105-.022.106-.021.106-.023.106-.023.107-.023.108-.024.107-.025.109-.025.108-.025.109-.026.11-.027.11-.027.11-.028.111-.028.111-.028.112-.029.112-.03.113-.03.113-.031.113-.031.114-.032.115-.032.114-.033.116-.033.115-.034.117-.034.116-.035.117-.035.118-.036.118-.036.118-.037.119-.038.119-.037.12-.039.12-.039.12-.039.121-.04.122-.041.122-.041.122-.041.123-.042.123-.043.124-.043.124-.043.124-.044.125-.045.126-.045.126-.046.126-.046.127-.046.127-.048.127-.047.128-.049.129-.048.129-.049.129-.05.13-.05.13-.051.131-.052.131-.051.132-.053.132-.053.133-.053.132-.054.134-.054.134-.055.134-.056.135-.055.135-.057.135-.057.136-.057.137-.058.137-.059.137-.059.138-.059.138-.061.139-.06.139-.061.14-.062.14-.062.14-.063.141-.063.141-.063.142-.065.142-.064.143-.065.143-.066.144.014-.281.015-.279.016-.278.016-.278.016-.278.018-.276.017-.276.019-.275.018-.274.02-.273.02-.273.02-.272.021-.271.022-.271.022-.269.023-.269.023-.269.024-.267.024-.267.025-.266.026-.266.026-.264.026-.264.027-.263.028-.263.028-.261.029-.261.029-.261.03-.259.031-.259.031-.258.031-.257.016-.128.016-.127.016-.127.017-.126.016-.125.016-.124.017-.123.017-.123.016-.122.017-.121.017-.121.017-.119.017-.119.018-.118.017-.118.018-.116.017-.116.018-.115.018-.115.018-.113.018-.113.018-.112.018-.111.018-.111.018-.109.019-.109.019-.108.018-.108.019-.107.019-.106.019-.105.019-.104.019-.104.02-.102.019-.103.019-.101.02-.1.02-.1.02-.099.019-.099.02-.097.021-.097.02-.096.02-.095.021-.094.02-.094.021-.093.02-.092.021-.091.021-.091.021-.09.021-.089.021-.088.022-.088.021-.087.022-.086.021-.085.022-.085.022-.083.022-.083.022-.083.022-.081.022-.081.023-.08.022-.078.022-.078.023-.077.022-.075.023-.074.022-.072.022-.072.023-.07.022-.069.023-.068.022-.066.022-.066.023-.064.022-.062.022-.062.023-.06.022-.059.023-.058.022-.057.022-.055.023-.054.022-.053.023-.051.022-.051.022-.049.023-.048.022-.046.023-.046.022-.044.022-.043.023-.041.022-.041.022-.039.023-.038.022-.036.023-.036.022-.034.022-.033.023-.032.011-.015.011-.015.011-.015.012-.014.011-.014.011-.014.011-.014.011-.013.012-.013.011-.012.011-.013.011-.012.011-.011.012-.012.011-.011.011-.01.011-.011.011-.01.012-.01.011-.009.011-.009.011-.009.011-.009.012-.008.011-.008.011-.007.011-.008.011-.007.011-.006.012-.007.011-.006.011-.006.011-.005.011-.005.012-.005.011-.004.011-.005.011-.004.011-.003.012-.003.011-.003.011-.003.011-.002.011-.002.012-.002.011-.001.011-.002h.011l.011-.001h.022z"/><path d="M32.644 34.426c.027-1.936.454-3.736 1.281-5.402.854-1.722 2.03-3.129 3.525-4.223a10.246 10.246 0 015.034-1.942c.478-4.877 1.389-9.044 2.734-12.5 1.345-3.457 3.111-5.185 5.298-5.185 1.081 0 1.98.49 2.697 1.47.716.981 1.074 2.464 1.074 4.45 0 2.815-.691 6.109-2.074 9.88-1.382 3.77-3.23 7.642-5.543 11.614.101 1.458.321 2.501.66 3.13.339.628.773.942 1.301.942.679 0 1.37-.301 2.074-.905.573-.491 1.305-1.249 2.195-2.274-.181-2.573-.272-4.882-.272-6.927v-1.319c.025-.83.251-1.408.679-1.735.427-.327 1.068-.49 1.923-.49.654 0 1.137.144 1.452.433.314.29.471.774.471 1.452 0 2.891.176 6.65.528 11.275a110.83 110.83 0 002.809-5.109c.792-1.546 1.653-3.589 2.583-6.128.277-.754.641-1.263 1.094-1.527.452-.264 1.018-.396 1.697-.396 1.382 0 2.074.44 2.074 1.32 0 .301-.101.716-.302 1.244-2.036 4.751-3.959 8.585-5.769 11.501-.88 1.433-1.722 2.413-2.527 2.941a4.711 4.711 0 01-2.639.792c-1.056 0-1.886-.396-2.489-1.188-.335-.439-.601-1.028-.796-1.767-.61.593-1.25 1.132-1.919 1.617-1.232.892-2.451 1.338-3.658 1.338-1.911 0-3.369-1.118-4.374-3.356-1.056 1.333-1.98 2.225-2.772 2.678-.792.452-1.715.678-2.771.678-1.534 0-2.797-.572-3.79-1.715a5.635 5.635 0 01-.584-.807 15.05 15.05 0 01-1.565 1.24c-1.245.855-2.659 1.282-4.243 1.282-1.282 0-2.25-.371-2.903-1.112-.654-.742-.981-1.816-.981-3.224 0-.704.176-1.961.528-3.771.327-1.584.491-2.677.491-3.281 0-.402-.139-.603-.415-.603-.327 0-.792.421-1.396 1.263-.603.842-1.206 1.955-1.81 3.337a27.113 27.113 0 00-1.47 4.375c-.277 1.206-.597 2.011-.962 2.413-.364.402-.949.603-1.753.603-.83 0-1.452-.396-1.867-1.188-.415-.791-.622-1.753-.622-2.884 0-.956.126-2.338.377-4.148.201-1.609.302-2.665.302-3.168 0-.402-.138-.603-.415-.603-.377 0-.855.452-1.433 1.357-.578.905-1.137 2.062-1.678 3.47a33.43 33.43 0 00-1.301 4.148c-.276 1.181-.597 1.979-.961 2.394-.365.415-.937.622-1.716.622-.955 0-1.628-.502-2.018-1.508-.389-1.006-.584-2.615-.584-4.827 0-3.268.465-6.373 1.395-9.314.226-.729.597-1.263 1.113-1.602.515-.34 1.238-.509 2.168-.509.503 0 .854.062 1.056.188.201.126.301.365.301.717 0 .402-.188 1.307-.565 2.715a61.241 61.241 0 00-.604 2.62c-.151.742-.276 1.666-.377 2.772.679-1.961 1.49-3.62 2.432-4.978.943-1.357 1.911-2.369 2.904-3.035.993-.666 1.929-.999 2.809-.999.88 0 1.502.201 1.867.603.364.402.547 1.018.547 1.848 0 .804-.239 2.262-.717 4.374a43.684 43.684 0 00-.415 2.036c1.257-3.092 2.653-5.342 4.186-6.75 1.534-1.408 2.966-2.111 4.299-2.111 1.634 0 2.451.817 2.451 2.451 0 .98-.277 2.752-.83 5.317-.477 2.187-.716 3.632-.716 4.336 0 1.006.364 1.508 1.093 1.508.503 0 1.1-.308 1.792-.924.368-.328.802-.764 1.302-1.31zm36.463 6.382c-1.106 0-1.942-.301-2.508-.905-.566-.603-.848-1.395-.848-2.375 0-1.132.32-2.037.961-2.715.641-.679 1.54-1.019 2.696-1.019 1.107 0 1.942.271 2.508.811.566.541.848 1.339.848 2.395 0 1.156-.326 2.08-.98 2.771-.654.692-1.546 1.037-2.677 1.037zM39.241 37c.478 0 .956-.195 1.433-.585.478-.389 1.081-1.112 1.81-2.168-.251-1.358-.377-2.878-.377-4.563 0-.603.025-1.584.076-2.941-1.383.427-2.533 1.351-3.451 2.772-.917 1.42-1.376 2.997-1.376 4.732 0 1.835.629 2.753 1.885 2.753zM50.102 8.869c-.478 0-.956.849-1.433 2.545-.478 1.697-.887 3.916-1.226 6.656a118.88 118.88 0 00-.735 8.598c2.815-6.134 4.223-11.062 4.223-14.782 0-.956-.082-1.697-.245-2.225-.163-.528-.358-.792-.584-.792z" fill="#fff" fill-rule="nonzero"/></svg>