<?xml version="1.0" encoding="UTF-8" standalone="no"?><!DOCTYPE svg PUBLIC "-//W3C//DTD SVG 1.1//EN" "http://www.w3.org/Graphics/SVG/1.1/DTD/svg11.dtd"><svg width="100%" height="100%" viewBox="0 0 57 43" version="1.1" xmlns="http://www.w3.org/2000/svg" xmlns:xlink="http://www.w3.org/1999/xlink" xml:space="preserve" xmlns:serif="http://www.serif.com/" style="fill-rule:evenodd;clip-rule:evenodd;stroke-linejoin:round;stroke-miterlimit:2;"><path d="M48.37,24.498c-1.946,0.01 -3.638,0.478 -5.054,1.171c-0.52,-1.029 -1.04,-1.946 -1.132,-2.619c-0.102,-0.784 -0.224,-1.263 -0.102,-2.201c0.123,-0.937 0.673,-2.272 0.663,-2.374c-0.01,-0.102 -0.122,-0.581 -1.243,-0.591c-1.121,-0.01 -2.089,0.214 -2.202,0.509c-0.112,0.296 -0.326,0.968 -0.468,1.661c-0.194,1.019 -2.242,4.658 -3.414,6.563c-0.377,-0.744 -0.703,-1.396 -0.775,-1.916c-0.101,-0.784 -0.224,-1.263 -0.101,-2.201c0.122,-0.937 0.672,-2.272 0.662,-2.374c-0.01,-0.102 -0.122,-0.581 -1.243,-0.591c-1.121,-0.01 -2.089,0.214 -2.201,0.509c-0.113,0.296 -0.235,0.989 -0.469,1.661c-0.235,0.673 -2.955,6.746 -3.669,8.316c-0.367,0.805 -0.683,1.447 -0.907,1.885c0,-0 -0.01,0.031 -0.041,0.082c-0.193,0.377 -0.305,0.58 -0.305,0.58l-0,0.011c-0.153,0.275 -0.316,0.529 -0.398,0.529c-0.061,0 -0.173,-0.733 0.021,-1.732c0.407,-2.109 1.375,-5.391 1.365,-5.503c0,-0.061 0.184,-0.632 -0.632,-0.927c-0.794,-0.296 -1.08,0.194 -1.151,0.194c-0.071,-0 -0.122,0.173 -0.122,0.173c-0,-0 0.886,-3.689 -1.692,-3.689c-1.61,-0 -3.832,1.763 -4.932,3.352c-0.693,0.378 -2.171,1.183 -3.75,2.049c-0.602,0.336 -1.223,0.672 -1.804,0.988c-0.041,-0.041 -0.082,-0.091 -0.122,-0.132c-3.119,-3.333 -8.886,-5.687 -8.642,-10.16c0.092,-1.631 0.652,-5.911 11.077,-11.108c8.581,-4.229 15.408,-3.057 16.59,-0.458c1.692,3.709 -3.658,10.598 -12.524,11.596c-3.383,0.377 -5.156,-0.927 -5.605,-1.416c-0.468,-0.51 -0.54,-0.54 -0.713,-0.438c-0.285,0.153 -0.102,0.611 0,0.876c0.265,0.693 1.355,1.916 3.2,2.517c1.63,0.53 5.595,0.826 10.394,-1.029c5.371,-2.079 9.569,-7.857 8.336,-12.697c-1.233,-4.912 -9.385,-6.533 -17.1,-3.791c-4.585,1.63 -9.558,4.198 -13.135,7.541c-4.25,3.974 -4.922,7.429 -4.647,8.876c0.988,5.136 8.071,8.478 10.904,10.954c-0.143,0.082 -0.275,0.153 -0.387,0.214c-1.417,0.704 -6.818,3.526 -8.163,6.512c-1.529,3.383 0.245,5.809 1.416,6.135c3.638,1.009 7.378,-0.805 9.386,-3.801c2.007,-2.996 1.763,-6.889 0.836,-8.672c-0.011,-0.021 -0.021,-0.041 -0.041,-0.062c0.367,-0.214 0.744,-0.438 1.111,-0.652c0.723,-0.428 1.436,-0.825 2.048,-1.151c-0.347,0.947 -0.601,2.079 -0.724,3.709c-0.153,1.916 0.632,4.402 1.661,5.381c0.459,0.428 0.999,0.438 1.346,0.438c1.202,-0 1.742,-0.999 2.343,-2.181c0.734,-1.447 1.396,-3.128 1.396,-3.128c0,-0 -0.825,4.545 1.417,4.545c0.815,-0 1.641,-1.06 2.007,-1.6l0,0.01c0,-0 0.021,-0.031 0.062,-0.102c0.081,-0.133 0.132,-0.214 0.132,-0.214l0,-0.02c0.326,-0.571 1.06,-1.865 2.15,-4.015c1.407,-2.772 2.762,-6.237 2.762,-6.237c-0,-0 0.122,0.846 0.54,2.252c0.245,0.825 0.754,1.732 1.162,2.609c-0.326,0.458 -0.53,0.713 -0.53,0.713l0.01,0.01c-0.265,0.347 -0.55,0.724 -0.866,1.091c-1.111,1.324 -2.436,2.843 -2.619,3.281c-0.214,0.52 -0.163,0.897 0.244,1.203c0.296,0.224 0.826,0.254 1.366,0.224c0.999,-0.072 1.702,-0.316 2.048,-0.469c0.54,-0.194 1.172,-0.489 1.763,-0.927c1.091,-0.805 1.753,-1.957 1.692,-3.475c-0.031,-0.836 -0.306,-1.672 -0.642,-2.456c0.102,-0.143 0.193,-0.286 0.295,-0.428c1.722,-2.517 3.057,-5.279 3.057,-5.279c0,0 0.123,0.846 0.541,2.252c0.203,0.714 0.621,1.488 0.988,2.242c-1.62,1.315 -2.619,2.843 -2.976,3.842c-0.642,1.855 -0.142,2.69 0.805,2.884c0.428,0.092 1.04,-0.112 1.488,-0.306c0.571,-0.183 1.243,-0.499 1.885,-0.968c1.091,-0.805 2.14,-1.926 2.079,-3.444c-0.03,-0.693 -0.214,-1.376 -0.468,-2.038c1.375,-0.571 3.148,-0.887 5.411,-0.622c4.85,0.571 5.808,3.597 5.625,4.871c-0.184,1.274 -1.203,1.967 -1.539,2.181c-0.336,0.214 -0.448,0.285 -0.418,0.438c0.041,0.224 0.204,0.214 0.489,0.173c0.398,-0.071 2.548,-1.029 2.64,-3.373c0.153,-2.996 -2.701,-6.267 -7.745,-6.236Zm-37.419,12.615c-1.611,1.753 -3.852,2.415 -4.821,1.855c-1.039,-0.601 -0.631,-3.19 1.346,-5.044c1.202,-1.131 2.751,-2.181 3.78,-2.823c0.235,-0.143 0.581,-0.347 0.999,-0.601c0.071,-0.041 0.112,-0.061 0.112,-0.061c0.082,-0.051 0.163,-0.102 0.245,-0.153c0.723,2.649 0.03,4.983 -1.661,6.827Zm11.719,-7.969c-0.561,1.366 -1.733,4.861 -2.446,4.668c-0.612,-0.163 -0.989,-2.813 -0.122,-5.432c0.438,-1.314 1.365,-2.884 1.905,-3.495c0.877,-0.979 1.845,-1.305 2.079,-0.907c0.296,0.52 -1.07,4.31 -1.416,5.166Zm9.67,4.627c-0.234,0.122 -0.458,0.204 -0.56,0.143c-0.071,-0.041 0.102,-0.204 0.102,-0.204c-0,-0 1.212,-1.305 1.691,-1.896c0.276,-0.346 0.602,-0.754 0.948,-1.212l0,0.132c0,1.559 -1.508,2.609 -2.181,3.037Zm7.46,-1.702c-0.173,-0.122 -0.143,-0.53 0.438,-1.804c0.224,-0.499 0.754,-1.335 1.661,-2.14c0.102,0.326 0.173,0.642 0.163,0.938c-0.01,1.967 -1.416,2.7 -2.262,3.006Z" style="fill:#131313;fill-rule:nonzero;"/></svg>