<?xml version="1.0" encoding="UTF-8" standalone="no"?>
<!DOCTYPE svg PUBLIC "-//W3C//DTD SVG 1.1//EN" "http://www.w3.org/Graphics/SVG/1.1/DTD/svg11.dtd">
<svg width="100%" height="100%" viewBox="0 0 265 936" version="1.1" xmlns="http://www.w3.org/2000/svg" xmlns:xlink="http://www.w3.org/1999/xlink" xml:space="preserve" xmlns:serif="http://www.serif.com/" style="fill-rule:evenodd;clip-rule:evenodd;stroke-linejoin:round;stroke-miterlimit:2;">
    <g transform="matrix(1,0,0,1,-176,-6918)">
        <g transform="matrix(1,0,0,1,-4470.34,6780.45)">
            <g transform="matrix(0.759233,0,0,2.16841,1129.61,34.7105)">
                <g transform="matrix(1.21986,0,0,0.427115,3455.05,-1216.49)">
                    <g>
                        <g transform="matrix(0.253908,0,0,0.410348,841.547,1823.93)">
                            <circle cx="861.893" cy="2861.93" r="94.212" style="fill:rgb(234,234,234);"/>
                            <path d="M861.893,2767.72C913.891,2767.72 956.106,2809.93 956.106,2861.93C956.106,2913.93 913.891,2956.14 861.893,2956.14C809.896,2956.14 767.681,2913.93 767.681,2861.93C767.681,2809.93 809.896,2767.72 861.893,2767.72ZM861.893,2771.3C881.079,2771.3 898.704,2777.67 913.088,2788.22C935.755,2804.84 950.308,2831.69 950.308,2861.93C950.308,2892.16 935.755,2919.02 913.088,2935.64C898.704,2946.19 881.079,2952.55 861.893,2952.55C842.708,2952.55 825.083,2946.19 810.699,2935.64C788.032,2919.02 773.479,2892.16 773.479,2861.93C773.479,2831.69 788.032,2804.84 810.699,2788.22C825.083,2777.67 842.708,2771.3 861.893,2771.3Z" style="fill:rgb(234,234,234);"/>
                        </g>
                        <g transform="matrix(0.253908,0,0,0.410348,935.693,1823.93)">
                            <circle cx="861.893" cy="2861.93" r="94.212" style="fill:rgb(234,234,234);"/>
                            <path d="M861.893,2767.72C913.891,2767.72 956.106,2809.93 956.106,2861.93C956.106,2913.93 913.891,2956.14 861.893,2956.14C809.896,2956.14 767.681,2913.93 767.681,2861.93C767.681,2809.93 809.896,2767.72 861.893,2767.72ZM861.893,2771.3C881.079,2771.3 898.704,2777.67 913.088,2788.22C935.755,2804.84 950.308,2831.69 950.308,2861.93C950.308,2892.16 935.755,2919.02 913.088,2935.64C898.704,2946.19 881.079,2952.55 861.893,2952.55C842.708,2952.55 825.083,2946.19 810.699,2935.64C788.032,2919.02 773.479,2892.16 773.479,2861.93C773.479,2831.69 788.032,2804.84 810.699,2788.22C825.083,2777.67 842.708,2771.3 861.893,2771.3Z" style="fill:rgb(234,234,234);"/>
                        </g>
                    </g>
                    <g transform="matrix(0.514864,0,0,0.730378,204.423,1247.11)">
                        <path d="M1490.42,2512.03C1502.75,2517.17 1514.19,2521.33 1526.27,2526.12C1531.29,2528.11 1535.91,2530.41 1540.64,2532.63C1608.09,2564.3 1680.03,2582.91 1753.94,2582.95C1827.88,2582.98 1899.54,2564.07 1967.4,2532.79C1972.17,2530.59 1976.89,2528.4 1981.94,2526.41C1993.96,2521.65 2005.29,2517.26 2017.45,2512.03C2034.59,2500.25 2034.92,2480.87 2018.21,2468.79C2001.49,2456.71 1974,2456.47 1956.86,2468.26C1950.51,2475.22 1945.5,2481.97 1937.97,2487.96C1934.77,2490.5 1931.46,2492.87 1927.81,2495.01C1876.82,2524.89 1814.4,2537.43 1753.94,2537.45C1693.44,2537.48 1630.74,2525.2 1579.9,2495.18C1575.04,2492.31 1570.7,2489.08 1566.57,2485.59C1560.24,2480.25 1556.32,2474.36 1551.01,2468.26C1533.88,2456.47 1506.39,2456.71 1489.67,2468.79C1472.95,2480.87 1473.29,2500.25 1490.42,2512.03Z" style="fill:rgb(234,234,234);"/>
                    </g>
                </g>
                <g transform="matrix(1.21986,0,0,0.427115,3455.05,-1127.89)">
                    <g>
                        <g transform="matrix(0.253908,0,0,0.410348,841.547,1823.93)">
                            <circle cx="861.893" cy="2861.93" r="94.212" style="fill:rgb(234,234,234);"/>
                            <path d="M861.893,2767.72C913.891,2767.72 956.106,2809.93 956.106,2861.93C956.106,2913.93 913.891,2956.14 861.893,2956.14C809.896,2956.14 767.681,2913.93 767.681,2861.93C767.681,2809.93 809.896,2767.72 861.893,2767.72ZM861.893,2771.3C881.079,2771.3 898.704,2777.67 913.088,2788.22C935.755,2804.84 950.308,2831.69 950.308,2861.93C950.308,2892.16 935.755,2919.02 913.088,2935.64C898.704,2946.19 881.079,2952.55 861.893,2952.55C842.708,2952.55 825.083,2946.19 810.699,2935.64C788.032,2919.02 773.479,2892.16 773.479,2861.93C773.479,2831.69 788.032,2804.84 810.699,2788.22C825.083,2777.67 842.708,2771.3 861.893,2771.3Z" style="fill:rgb(234,234,234);"/>
                        </g>
                        <g transform="matrix(0.253908,0,0,0.410348,935.693,1823.93)">
                            <circle cx="861.893" cy="2861.93" r="94.212" style="fill:rgb(234,234,234);"/>
                            <path d="M861.893,2767.72C913.891,2767.72 956.106,2809.93 956.106,2861.93C956.106,2913.93 913.891,2956.14 861.893,2956.14C809.896,2956.14 767.681,2913.93 767.681,2861.93C767.681,2809.93 809.896,2767.72 861.893,2767.72ZM861.893,2771.3C881.079,2771.3 898.704,2777.67 913.088,2788.22C935.755,2804.84 950.308,2831.69 950.308,2861.93C950.308,2892.16 935.755,2919.02 913.088,2935.64C898.704,2946.19 881.079,2952.55 861.893,2952.55C842.708,2952.55 825.083,2946.19 810.699,2935.64C788.032,2919.02 773.479,2892.16 773.479,2861.93C773.479,2831.69 788.032,2804.84 810.699,2788.22C825.083,2777.67 842.708,2771.3 861.893,2771.3Z" style="fill:rgb(234,234,234);"/>
                        </g>
                    </g>
                    <g transform="matrix(0.514864,0,0,0.730378,204.423,1247.11)">
                        <path d="M1490.42,2512.03C1502.75,2517.17 1514.19,2521.33 1526.27,2526.12C1531.29,2528.11 1535.91,2530.41 1540.64,2532.63C1608.09,2564.3 1680.03,2582.91 1753.94,2582.95C1827.88,2582.98 1899.54,2564.07 1967.4,2532.79C1972.17,2530.59 1976.89,2528.4 1981.94,2526.41C1993.96,2521.65 2005.29,2517.26 2017.45,2512.03C2034.59,2500.25 2034.92,2480.87 2018.21,2468.79C2001.49,2456.71 1974,2456.47 1956.86,2468.26C1950.51,2475.22 1945.5,2481.97 1937.97,2487.96C1934.77,2490.5 1931.46,2492.87 1927.81,2495.01C1876.82,2524.89 1814.4,2537.43 1753.94,2537.45C1693.44,2537.48 1630.74,2525.2 1579.9,2495.18C1575.04,2492.31 1570.7,2489.08 1566.57,2485.59C1560.24,2480.25 1556.32,2474.36 1551.01,2468.26C1533.88,2456.47 1506.39,2456.71 1489.67,2468.79C1472.95,2480.87 1473.29,2500.25 1490.42,2512.03Z" style="fill:rgb(234,234,234);"/>
                    </g>
                </g>
                <g transform="matrix(1.21986,0,0,0.427115,3455.05,-1039.28)">
                    <g>
                        <g transform="matrix(0.253908,0,0,0.410348,841.547,1823.93)">
                            <circle cx="861.893" cy="2861.93" r="94.212" style="fill:rgb(234,234,234);"/>
                            <path d="M861.893,2767.72C913.891,2767.72 956.106,2809.93 956.106,2861.93C956.106,2913.93 913.891,2956.14 861.893,2956.14C809.896,2956.14 767.681,2913.93 767.681,2861.93C767.681,2809.93 809.896,2767.72 861.893,2767.72ZM861.893,2771.3C881.079,2771.3 898.704,2777.67 913.088,2788.22C935.755,2804.84 950.308,2831.69 950.308,2861.93C950.308,2892.16 935.755,2919.02 913.088,2935.64C898.704,2946.19 881.079,2952.55 861.893,2952.55C842.708,2952.55 825.083,2946.19 810.699,2935.64C788.032,2919.02 773.479,2892.16 773.479,2861.93C773.479,2831.69 788.032,2804.84 810.699,2788.22C825.083,2777.67 842.708,2771.3 861.893,2771.3Z" style="fill:rgb(234,234,234);"/>
                        </g>
                        <g transform="matrix(0.253908,0,0,0.410348,935.693,1823.93)">
                            <circle cx="861.893" cy="2861.93" r="94.212" style="fill:rgb(234,234,234);"/>
                            <path d="M861.893,2767.72C913.891,2767.72 956.106,2809.93 956.106,2861.93C956.106,2913.93 913.891,2956.14 861.893,2956.14C809.896,2956.14 767.681,2913.93 767.681,2861.93C767.681,2809.93 809.896,2767.72 861.893,2767.72ZM861.893,2771.3C881.079,2771.3 898.704,2777.67 913.088,2788.22C935.755,2804.84 950.308,2831.69 950.308,2861.93C950.308,2892.16 935.755,2919.02 913.088,2935.64C898.704,2946.19 881.079,2952.55 861.893,2952.55C842.708,2952.55 825.083,2946.19 810.699,2935.64C788.032,2919.02 773.479,2892.16 773.479,2861.93C773.479,2831.69 788.032,2804.84 810.699,2788.22C825.083,2777.67 842.708,2771.3 861.893,2771.3Z" style="fill:rgb(234,234,234);"/>
                        </g>
                    </g>
                    <g transform="matrix(0.514864,0,0,0.730378,204.423,1247.11)">
                        <path d="M1490.42,2512.03C1502.75,2517.17 1514.19,2521.33 1526.27,2526.12C1531.29,2528.11 1535.91,2530.41 1540.64,2532.63C1608.09,2564.3 1680.03,2582.91 1753.94,2582.95C1827.88,2582.98 1899.54,2564.07 1967.4,2532.79C1972.17,2530.59 1976.89,2528.4 1981.94,2526.41C1993.96,2521.65 2005.29,2517.26 2017.45,2512.03C2034.59,2500.25 2034.92,2480.87 2018.21,2468.79C2001.49,2456.71 1974,2456.47 1956.86,2468.26C1950.51,2475.22 1945.5,2481.97 1937.97,2487.96C1934.77,2490.5 1931.46,2492.87 1927.81,2495.01C1876.82,2524.89 1814.4,2537.43 1753.94,2537.45C1693.44,2537.48 1630.74,2525.2 1579.9,2495.18C1575.04,2492.31 1570.7,2489.08 1566.57,2485.59C1560.24,2480.25 1556.32,2474.36 1551.01,2468.26C1533.88,2456.47 1506.39,2456.71 1489.67,2468.79C1472.95,2480.87 1473.29,2500.25 1490.42,2512.03Z" style="fill:rgb(234,234,234);"/>
                    </g>
                </g>
                <g transform="matrix(1.21986,0,0,0.427115,3455.05,-950.673)">
                    <g>
                        <g transform="matrix(0.253908,0,0,0.410348,841.547,1823.93)">
                            <circle cx="861.893" cy="2861.93" r="94.212" style="fill:rgb(234,234,234);"/>
                            <path d="M861.893,2767.72C913.891,2767.72 956.106,2809.93 956.106,2861.93C956.106,2913.93 913.891,2956.14 861.893,2956.14C809.896,2956.14 767.681,2913.93 767.681,2861.93C767.681,2809.93 809.896,2767.72 861.893,2767.72ZM861.893,2771.3C881.079,2771.3 898.704,2777.67 913.088,2788.22C935.755,2804.84 950.308,2831.69 950.308,2861.93C950.308,2892.16 935.755,2919.02 913.088,2935.64C898.704,2946.19 881.079,2952.55 861.893,2952.55C842.708,2952.55 825.083,2946.19 810.699,2935.64C788.032,2919.02 773.479,2892.16 773.479,2861.93C773.479,2831.69 788.032,2804.84 810.699,2788.22C825.083,2777.67 842.708,2771.3 861.893,2771.3Z" style="fill:rgb(234,234,234);"/>
                        </g>
                        <g transform="matrix(0.253908,0,0,0.410348,935.693,1823.93)">
                            <circle cx="861.893" cy="2861.93" r="94.212" style="fill:rgb(234,234,234);"/>
                            <path d="M861.893,2767.72C913.891,2767.72 956.106,2809.93 956.106,2861.93C956.106,2913.93 913.891,2956.14 861.893,2956.14C809.896,2956.14 767.681,2913.93 767.681,2861.93C767.681,2809.93 809.896,2767.72 861.893,2767.72ZM861.893,2771.3C881.079,2771.3 898.704,2777.67 913.088,2788.22C935.755,2804.84 950.308,2831.69 950.308,2861.93C950.308,2892.16 935.755,2919.02 913.088,2935.64C898.704,2946.19 881.079,2952.55 861.893,2952.55C842.708,2952.55 825.083,2946.19 810.699,2935.64C788.032,2919.02 773.479,2892.16 773.479,2861.93C773.479,2831.69 788.032,2804.84 810.699,2788.22C825.083,2777.67 842.708,2771.3 861.893,2771.3Z" style="fill:rgb(234,234,234);"/>
                        </g>
                    </g>
                    <g transform="matrix(0.514864,0,0,0.730378,204.423,1247.11)">
                        <path d="M1490.42,2512.03C1502.75,2517.17 1514.19,2521.33 1526.27,2526.12C1531.29,2528.11 1535.91,2530.41 1540.64,2532.63C1608.09,2564.3 1680.03,2582.91 1753.94,2582.95C1827.88,2582.98 1899.54,2564.07 1967.4,2532.79C1972.17,2530.59 1976.89,2528.4 1981.94,2526.41C1993.96,2521.65 2005.29,2517.26 2017.45,2512.03C2034.59,2500.25 2034.92,2480.87 2018.21,2468.79C2001.49,2456.71 1974,2456.47 1956.86,2468.26C1950.51,2475.22 1945.5,2481.97 1937.97,2487.96C1934.77,2490.5 1931.46,2492.87 1927.81,2495.01C1876.82,2524.89 1814.4,2537.43 1753.94,2537.45C1693.44,2537.48 1630.74,2525.2 1579.9,2495.18C1575.04,2492.31 1570.7,2489.08 1566.57,2485.59C1560.24,2480.25 1556.32,2474.36 1551.01,2468.26C1533.88,2456.47 1506.39,2456.71 1489.67,2468.79C1472.95,2480.87 1473.29,2500.25 1490.42,2512.03Z" style="fill:rgb(234,234,234);"/>
                    </g>
                </g>
                <g transform="matrix(1.21986,0,0,0.427115,3455.05,-862.066)">
                    <g>
                        <g transform="matrix(0.253908,0,0,0.410348,841.547,1823.93)">
                            <circle cx="861.893" cy="2861.93" r="94.212" style="fill:rgb(234,234,234);"/>
                            <path d="M861.893,2767.72C913.891,2767.72 956.106,2809.93 956.106,2861.93C956.106,2913.93 913.891,2956.14 861.893,2956.14C809.896,2956.14 767.681,2913.93 767.681,2861.93C767.681,2809.93 809.896,2767.72 861.893,2767.72ZM861.893,2771.3C881.079,2771.3 898.704,2777.67 913.088,2788.22C935.755,2804.84 950.308,2831.69 950.308,2861.93C950.308,2892.16 935.755,2919.02 913.088,2935.64C898.704,2946.19 881.079,2952.55 861.893,2952.55C842.708,2952.55 825.083,2946.19 810.699,2935.64C788.032,2919.02 773.479,2892.16 773.479,2861.93C773.479,2831.69 788.032,2804.84 810.699,2788.22C825.083,2777.67 842.708,2771.3 861.893,2771.3Z" style="fill:rgb(234,234,234);"/>
                        </g>
                        <g transform="matrix(0.253908,0,0,0.410348,935.693,1823.93)">
                            <circle cx="861.893" cy="2861.93" r="94.212" style="fill:rgb(234,234,234);"/>
                            <path d="M861.893,2767.72C913.891,2767.72 956.106,2809.93 956.106,2861.93C956.106,2913.93 913.891,2956.14 861.893,2956.14C809.896,2956.14 767.681,2913.93 767.681,2861.93C767.681,2809.93 809.896,2767.72 861.893,2767.72ZM861.893,2771.3C881.079,2771.3 898.704,2777.67 913.088,2788.22C935.755,2804.84 950.308,2831.69 950.308,2861.93C950.308,2892.16 935.755,2919.02 913.088,2935.64C898.704,2946.19 881.079,2952.55 861.893,2952.55C842.708,2952.55 825.083,2946.19 810.699,2935.64C788.032,2919.02 773.479,2892.16 773.479,2861.93C773.479,2831.69 788.032,2804.84 810.699,2788.22C825.083,2777.67 842.708,2771.3 861.893,2771.3Z" style="fill:rgb(234,234,234);"/>
                        </g>
                    </g>
                    <g transform="matrix(0.514864,0,0,0.730378,204.423,1247.11)">
                        <path d="M1490.42,2512.03C1502.75,2517.17 1514.19,2521.33 1526.27,2526.12C1531.29,2528.11 1535.91,2530.41 1540.64,2532.63C1608.09,2564.3 1680.03,2582.91 1753.94,2582.95C1827.88,2582.98 1899.54,2564.07 1967.4,2532.79C1972.17,2530.59 1976.89,2528.4 1981.94,2526.41C1993.96,2521.65 2005.29,2517.26 2017.45,2512.03C2034.59,2500.25 2034.92,2480.87 2018.21,2468.79C2001.49,2456.71 1974,2456.47 1956.86,2468.26C1950.51,2475.22 1945.5,2481.97 1937.97,2487.96C1934.77,2490.5 1931.46,2492.87 1927.81,2495.01C1876.82,2524.89 1814.4,2537.43 1753.94,2537.45C1693.44,2537.48 1630.74,2525.2 1579.9,2495.18C1575.04,2492.31 1570.7,2489.08 1566.57,2485.59C1560.24,2480.25 1556.32,2474.36 1551.01,2468.26C1533.88,2456.47 1506.39,2456.71 1489.67,2468.79C1472.95,2480.87 1473.29,2500.25 1490.42,2512.03Z" style="fill:rgb(234,234,234);"/>
                    </g>
                </g>
            </g>
        </g>
    </g>
</svg>
