<?xml version="1.0" encoding="UTF-8" standalone="no"?>
<!DOCTYPE svg PUBLIC "-//W3C//DTD SVG 1.1//EN" "http://www.w3.org/Graphics/SVG/1.1/DTD/svg11.dtd">
<svg width="100%" height="100%" viewBox="0 0 146 153" version="1.1" xmlns="http://www.w3.org/2000/svg" xmlns:xlink="http://www.w3.org/1999/xlink" xml:space="preserve" xmlns:serif="http://www.serif.com/" style="fill-rule:evenodd;clip-rule:evenodd;stroke-miterlimit:10;">
    <g transform="matrix(1,0,0,1,-44908,-6491)">
        <g transform="matrix(1,0,0,1,37719.9,5844.08)">
            <g transform="matrix(1,0,0,1,-230.076,183.227)">
                <g transform="matrix(0.63928,0,0,0.63928,-13661.9,-4355.89)">
                    <path d="M33088.7,7539.58L33108,7599.01L33158.6,7562.28L33139.3,7621.71L33201.8,7621.71L33151.2,7658.44L33201.8,7695.17L33139.3,7695.17L33158.6,7754.6L33108,7717.87L33088.7,7777.3L33069.4,7717.87L33018.8,7754.6L33038.2,7695.17L32975.7,7695.17L33026.2,7658.44L32975.7,7621.71L33038.2,7621.71L33018.8,7562.28L33069.4,7599.01L33088.7,7539.58Z" style="fill:rgb(255,234,28);"/>
                </g>
                <g transform="matrix(6.12323e-17,1,-1,6.12323e-17,8035.59,-6951.9)">
                    <g transform="matrix(1,0,0,1,-25443.1,-7033.19)">
                        <g transform="matrix(50.8464,0,0,50.8464,32917.3,7591.5)">
                            <path d="M0.111,-0.352L0.234,-0.352L0.234,-0.475L0.111,-0.475L0.111,-0.352ZM0.11,-0.065L0.233,-0.065L0.233,-0.188L0.11,-0.188L0.11,-0.065Z" style="fill:rgb(18,18,18);fill-rule:nonzero;"/>
                        </g>
                    </g>
                    <g transform="matrix(4.98618e-17,-0.814306,0.778595,4.76752e-17,1591.19,27362.8)">
                        <path d="M32917.2,7577.52C32917.2,7586.74 32924.7,7594.22 32933.9,7594.22C32943.1,7594.22 32950.6,7586.74 32950.6,7577.52" style="fill:none;stroke:rgb(18,18,18);stroke-width:6.28px;"/>
                    </g>
                </g>
            </g>
        </g>
    </g>
</svg>
