<?xml version="1.0" encoding="UTF-8" standalone="no"?><!DOCTYPE svg PUBLIC "-//W3C//DTD SVG 1.1//EN" "http://www.w3.org/Graphics/SVG/1.1/DTD/svg11.dtd"><svg width="100%" height="100%" viewBox="0 0 657 854" version="1.1" xmlns="http://www.w3.org/2000/svg" xmlns:xlink="http://www.w3.org/1999/xlink" xml:space="preserve" xmlns:serif="http://www.serif.com/" style="fill-rule:evenodd;clip-rule:evenodd;stroke-linecap:round;stroke-linejoin:round;stroke-miterlimit:10;"><path d="M8.024,67.115c213.51,-77.592 427.02,-78.635 640.529,0l0,540.795l-320.144,237.735l-320.385,-237.735l0,-540.795Z" style="fill:#fff;"/><clipPath id="_clip1"><path d="M8.024,67.115c213.51,-77.592 427.02,-78.635 640.529,0l0,540.795l-320.144,237.735l-320.385,-237.735l0,-540.795Z"/></clipPath><g clip-path="url(#_clip1)"><path d="M49.732,101.682c185.705,-68.623 371.409,-69.546 557.114,-0l-0,478.283l-278.453,210.254l-278.661,-210.254l-0,-478.283Z" style="fill:none;"/><clipPath id="_clip2"><path d="M49.732,101.682c185.705,-68.623 371.409,-69.546 557.114,-0l-0,478.283l-278.453,210.254l-278.661,-210.254l-0,-478.283Z"/></clipPath><g clip-path="url(#_clip2)"><path d="M704.305,80.186c8.302,-11.837 22.054,-19.583 37.601,-19.583c25.333,-0 45.901,90.898 45.901,116.231c-0,25.333 -20.568,45.901 -45.901,45.901c-15.547,-0 -29.299,-7.746 -37.601,-19.584c-8.303,11.838 -22.055,19.584 -37.602,19.584c-15.547,-0 -29.299,-7.746 -37.601,-19.584c-8.303,11.838 -22.055,19.584 -37.602,19.584c-15.547,-0 -29.299,-7.746 -37.602,-19.584c-8.302,11.838 -22.054,19.584 -37.601,19.584c-15.547,-0 -29.299,-7.746 -37.602,-19.584c-8.303,11.838 -22.054,19.584 -37.601,19.584c-15.547,-0 -29.299,-7.746 -37.602,-19.584c-8.303,11.838 -22.055,19.584 -37.602,19.584c-15.547,-0 -29.299,-7.746 -37.601,-19.584c-8.303,11.838 -22.055,19.584 -37.602,19.584c-15.547,-0 -29.299,-7.746 -37.601,-19.584c-8.303,11.838 -22.055,19.584 -37.602,19.584c-15.547,-0 -29.299,-7.746 -37.602,-19.584c-8.302,11.838 -22.054,19.584 -37.601,19.584c-15.547,-0 -29.299,-7.746 -37.602,-19.584c-8.303,11.838 -22.055,19.584 -37.601,19.584c-15.547,-0 -29.299,-7.746 -37.602,-19.584c-8.303,11.838 -22.055,19.584 -37.602,19.584c-15.547,-0 -29.299,-7.746 -37.601,-19.584c-8.303,11.838 -22.055,19.584 -37.602,19.584c-25.333,-0 -45.9,-20.568 -45.9,-45.901c-0,-25.333 20.567,-116.231 45.9,-116.231c15.547,-0 29.299,7.746 37.602,19.583c8.302,-11.837 22.054,-19.583 37.601,-19.583c15.547,-0 29.299,7.746 37.602,19.583c8.303,-11.837 22.055,-19.583 37.602,-19.583c15.546,-0 29.298,7.746 37.601,19.583c8.303,-11.837 22.055,-19.583 37.602,-19.583c15.547,-0 29.299,7.746 37.601,19.583c8.303,-11.837 22.055,-19.583 37.602,-19.583c15.547,-0 29.299,7.746 37.602,19.583c8.302,-11.837 22.054,-19.583 37.601,-19.583c15.547,-0 29.299,7.746 37.602,19.583c8.302,-11.837 22.054,-19.583 37.601,-19.583c15.547,-0 29.299,7.746 37.602,19.583c8.303,-11.837 22.055,-19.583 37.602,-19.583c15.547,-0 29.298,7.746 37.601,19.583c8.303,-11.837 22.055,-19.583 37.602,-19.583c15.547,-0 29.299,7.746 37.601,19.583c8.303,-11.837 22.055,-19.583 37.602,-19.583c15.547,-0 29.299,7.746 37.602,19.583c8.302,-11.837 22.054,-19.583 37.601,-19.583c15.547,-0 29.299,7.746 37.602,19.583Z" style="fill:#fff;stroke:#000;stroke-width:15.83px;"/><path d="M704.305,-0.88c8.302,-11.837 22.054,-19.583 37.601,-19.583c25.333,-0 45.901,90.898 45.901,116.231c-0,25.333 -20.568,45.901 -45.901,45.901c-15.547,-0 -29.299,-7.747 -37.601,-19.584c-8.303,11.837 -22.055,19.584 -37.602,19.584c-15.547,-0 -29.299,-7.747 -37.601,-19.584c-8.303,11.837 -22.055,19.584 -37.602,19.584c-15.547,-0 -29.299,-7.747 -37.602,-19.584c-8.302,11.837 -22.054,19.584 -37.601,19.584c-15.547,-0 -29.299,-7.747 -37.602,-19.584c-8.303,11.837 -22.054,19.584 -37.601,19.584c-15.547,-0 -29.299,-7.747 -37.602,-19.584c-8.303,11.837 -22.055,19.584 -37.602,19.584c-15.547,-0 -29.299,-7.747 -37.601,-19.584c-8.303,11.837 -22.055,19.584 -37.602,19.584c-15.547,-0 -29.299,-7.747 -37.601,-19.584c-8.303,11.837 -22.055,19.584 -37.602,19.584c-15.547,-0 -29.299,-7.747 -37.602,-19.584c-8.302,11.837 -22.054,19.584 -37.601,19.584c-15.547,-0 -29.299,-7.747 -37.602,-19.584c-8.303,11.837 -22.055,19.584 -37.601,19.584c-15.547,-0 -29.299,-7.747 -37.602,-19.584c-8.303,11.837 -22.055,19.584 -37.602,19.584c-15.547,-0 -29.299,-7.747 -37.601,-19.584c-8.303,11.837 -22.055,19.584 -37.602,19.584c-25.333,-0 -45.9,-20.568 -45.9,-45.901c-0,-25.333 20.567,-116.231 45.9,-116.231c15.547,-0 29.299,7.746 37.602,19.583c8.302,-11.837 22.054,-19.583 37.601,-19.583c15.547,-0 29.299,7.746 37.602,19.583c8.303,-11.837 22.055,-19.583 37.602,-19.583c15.546,-0 29.298,7.746 37.601,19.583c8.303,-11.837 22.055,-19.583 37.602,-19.583c15.547,-0 29.299,7.746 37.601,19.583c8.303,-11.837 22.055,-19.583 37.602,-19.583c15.547,-0 29.299,7.746 37.602,19.583c8.302,-11.837 22.054,-19.583 37.601,-19.583c15.547,-0 29.299,7.746 37.602,19.583c8.302,-11.837 22.054,-19.583 37.601,-19.583c15.547,-0 29.299,7.746 37.602,19.583c8.303,-11.837 22.055,-19.583 37.602,-19.583c15.547,-0 29.298,7.746 37.601,19.583c8.303,-11.837 22.055,-19.583 37.602,-19.583c15.547,-0 29.299,7.746 37.601,19.583c8.303,-11.837 22.055,-19.583 37.602,-19.583c15.547,-0 29.299,7.746 37.602,19.583c8.302,-11.837 22.054,-19.583 37.601,-19.583c15.547,-0 29.299,7.746 37.602,19.583Z" style="fill:#fff;stroke:#000;stroke-width:15.83px;"/><path d="M199.069,294.933c3.839,-67.997 60.269,-122.031 129.22,-122.031c71.433,-0 129.428,57.995 129.428,129.428c0,18.993 -4.1,37.036 -11.462,53.291" style="fill:#fff;stroke:#000;stroke-width:15.83px;"/><g><path d="M248.272,346.312l93.514,-93.514l158.203,158.202" style="fill:none;stroke:#000;stroke-width:15.83px;"/><path d="M348.733,296.205l20.921,20.921" style="fill:none;stroke:#000;stroke-width:15.83px;"/><path d="M387.235,334.707l61.712,61.712" style="fill:none;stroke:#000;stroke-width:15.83px;"/><path d="M508.752,353.956l69.817,69.816" style="fill:none;stroke:#000;stroke-width:15.83px;"/><path d="M294.552,392.857l-29.368,29.368" style="fill:none;stroke:#000;stroke-width:15.83px;"/><path d="M180.751,320.993l-10.906,10.906" style="fill:none;stroke:#000;stroke-width:15.83px;"/><path d="M153.619,348.126l-55.938,55.937" style="fill:none;stroke:#000;stroke-width:15.83px;"/><path d="M275.444,373.484l-91.86,-91.86l-142.148,142.148" style="fill:none;stroke:#000;stroke-width:15.83px;"/><path d="M615.142,423.772l-112.986,-112.986l-50.973,50.972" style="fill:none;stroke:#000;stroke-width:15.83px;"/><path d="M373.693,428.13l-74.174,-74.174l-77.803,77.803" style="fill:none;stroke:#000;stroke-width:15.83px;"/></g><g><g><path d="M19.203,503.396c23.678,0 50.229,-50.229 50.229,-50.229c-0,-0 26.551,50.229 50.229,50.229" style="fill:none;stroke:#000;stroke-width:16.03px;"/><path d="M19.203,553.625c23.678,0 50.229,-50.229 50.229,-50.229c-0,0 26.551,50.229 50.229,50.229" style="fill:none;stroke:#000;stroke-width:16.03px;"/><path d="M19.203,603.855c23.678,-0 50.229,-50.23 50.229,-50.23c-0,0 26.551,50.23 50.229,50.23" style="fill:none;stroke:#000;stroke-width:16.03px;"/><path d="M69.432,453.167l-0,200.917" style="fill:none;stroke:#000;stroke-width:16.03px;"/></g><g><path d="M148.631,503.396c23.678,0 50.229,-50.229 50.229,-50.229c0,-0 26.551,50.229 50.23,50.229" style="fill:none;stroke:#000;stroke-width:16.03px;"/><path d="M148.631,553.625c23.678,0 50.229,-50.229 50.229,-50.229c0,0 26.551,50.229 50.23,50.229" style="fill:none;stroke:#000;stroke-width:16.03px;"/><path d="M148.631,603.855c23.678,-0 50.229,-50.23 50.229,-50.23c0,0 26.551,50.23 50.23,50.23" style="fill:none;stroke:#000;stroke-width:16.03px;"/><path d="M198.86,453.167l0,200.917" style="fill:none;stroke:#000;stroke-width:16.03px;"/></g><g><path d="M278.059,503.396c23.679,0 50.23,-50.229 50.23,-50.229c-0,-0 26.551,50.229 50.229,50.229" style="fill:none;stroke:#000;stroke-width:16.03px;"/><path d="M278.059,553.625c23.679,0 50.23,-50.229 50.23,-50.229c-0,0 26.551,50.229 50.229,50.229" style="fill:none;stroke:#000;stroke-width:16.03px;"/><path d="M278.059,603.855c23.679,-0 50.23,-50.23 50.23,-50.23c-0,0 26.551,50.23 50.229,50.23" style="fill:none;stroke:#000;stroke-width:16.03px;"/><path d="M328.289,453.167l-0,200.917" style="fill:none;stroke:#000;stroke-width:16.03px;"/></g><g><path d="M407.488,503.396c23.678,0 50.229,-50.229 50.229,-50.229c0,-0 26.551,50.229 50.229,50.229" style="fill:none;stroke:#000;stroke-width:16.03px;"/><path d="M407.488,553.625c23.678,0 50.229,-50.229 50.229,-50.229c0,0 26.551,50.229 50.229,50.229" style="fill:none;stroke:#000;stroke-width:16.03px;"/><path d="M407.488,603.855c23.678,-0 50.229,-50.23 50.229,-50.23c0,0 26.551,50.23 50.229,50.23" style="fill:none;stroke:#000;stroke-width:16.03px;"/><path d="M457.717,453.167l0,200.917" style="fill:none;stroke:#000;stroke-width:16.03px;"/></g><g><path d="M536.916,503.396c23.679,0 50.23,-50.229 50.23,-50.229c-0,-0 26.551,50.229 50.229,50.229" style="fill:none;stroke:#000;stroke-width:16.03px;"/><path d="M536.916,553.625c23.679,0 50.23,-50.229 50.23,-50.229c-0,0 26.551,50.229 50.229,50.229" style="fill:none;stroke:#000;stroke-width:16.03px;"/><path d="M536.916,603.855c23.679,-0 50.23,-50.23 50.23,-50.23c-0,0 26.551,50.23 50.229,50.23" style="fill:none;stroke:#000;stroke-width:16.03px;"/><path d="M587.146,453.167l-0,200.917" style="fill:none;stroke:#000;stroke-width:16.03px;"/></g></g><g><path d="M133.268,692.765l149.648,-0" style="fill:none;stroke:#000;stroke-width:15.83px;"/><path d="M208.092,720.056l149.649,0" style="fill:none;stroke:#000;stroke-width:15.83px;"/><path d="M161.225,747.348l149.649,-0" style="fill:none;stroke:#000;stroke-width:15.83px;"/><path d="M317.018,692.765l201.332,-0" style="fill:none;stroke:#000;stroke-width:15.83px;"/><path d="M391.843,720.056l201.331,0" style="fill:none;stroke:#000;stroke-width:15.83px;"/><path d="M344.976,747.348l201.331,-0" style="fill:none;stroke:#000;stroke-width:15.83px;"/></g></g><path d="M49.732,101.682c185.705,-68.623 371.409,-69.546 557.114,-0l-0,478.283l-278.453,210.254l-278.661,-210.254l-0,-478.283Z" style="fill:none;stroke:#000;stroke-width:15.83px;"/></g><path d="M8.024,67.115c213.51,-77.592 427.02,-78.635 640.529,0l0,540.795l-320.144,237.735l-320.385,-237.735l0,-540.795Z" style="fill:none;stroke:#000;stroke-width:15.83px;"/></svg>