<?xml version="1.0" encoding="UTF-8" standalone="no"?><!DOCTYPE svg PUBLIC "-//W3C//DTD SVG 1.1//EN" "http://www.w3.org/Graphics/SVG/1.1/DTD/svg11.dtd"><svg width="100%" height="100%" viewBox="0 0 715 820" version="1.1" xmlns="http://www.w3.org/2000/svg" xmlns:xlink="http://www.w3.org/1999/xlink" xml:space="preserve" xmlns:serif="http://www.serif.com/" style="fill-rule:evenodd;clip-rule:evenodd;stroke-linejoin:round;stroke-miterlimit:2;"><g><g><path d="M386.629,643.762c0.103,8.252 -3.059,15.806 -8.404,21.286c-5.42,5.558 -12.917,9.143 -21.286,9.248c-8.491,0.117 -16.265,-3.129 -21.912,-8.622c-5.732,-5.575 -9.433,-13.292 -9.552,-21.912c-0.001,0.106 -0.088,-27.871 -8.917,-56.872c-3.781,-12.423 -9.114,-25.021 -16.612,-35.805c-5.68,-8.138 -12.505,-15.311 -20.781,-20.681c-7.974,-5.174 -17.207,-8.813 -27.974,-10.066c-18.734,-2.016 -34.379,-6.649 -47.571,-12.752c-10.858,-5.023 -20.033,-10.967 -27.84,-17.47c-36.319,-30.253 -42.989,-71.623 -42.989,-71.623c-0,0 0.15,19.264 10.209,42.715c5.218,12.166 13.109,25.292 24.833,37.421c11.317,11.707 26.243,22.295 45.648,30.043c10.394,4.151 22.132,7.271 35.269,9.427c7.684,1.218 14.193,4.1 19.766,8.035c6.017,4.247 10.854,9.835 14.868,16.062c7.574,11.71 12.026,25.802 14.822,38.847c4.885,22.792 4.399,42.614 4.399,42.614l-0,0.052c-0.209,15.113 5.847,28.784 15.589,38.799c9.825,10.1 23.557,16.311 38.745,16.52c15.311,0.192 29.204,-5.977 39.372,-15.894c10.246,-9.993 16.545,-23.945 16.738,-39.372l-26.42,0Z"/><g><path d="M334.592,320.942c0,0 -22.029,36.039 -30.918,74.916c-4.666,20.406 -4.862,41.143 1.535,58.783l23.823,-11.422c-7.69,-12.648 -10.066,-28.869 -9.631,-45.376c1.016,-38.558 15.191,-76.901 15.191,-76.901Z"/><path d="M270.509,224.551c0,0 -32,35.511 -69.236,55.341c-17.302,9.214 -35.663,14.961 -52.151,10.638l-3.459,17.27c20.288,2.836 41.764,-5.452 61.117,-18.888c35.412,-24.585 63.729,-64.361 63.729,-64.361Z"/><path d="M216.409,132.815c0,0 -28.85,26.877 -50.462,67.526c-12.536,23.579 -22.528,51.716 -23.396,81.928c-1.106,38.47 9.714,65.488 26.184,85.846c27.373,33.836 71.449,48.712 105.863,65.751c23.266,11.518 42.266,23.231 41.561,47.758l26.42,0c-0.998,-34.708 -25.096,-53.123 -58.901,-67.505c-33.382,-14.201 -76.129,-25.151 -103.781,-55.577c-15.922,-17.518 -26.663,-41.496 -27.663,-76.273c-0.834,-29.004 7.338,-56.489 18.052,-79.779c19.072,-41.456 46.123,-69.675 46.123,-69.675Z"/></g><g><path d="M394.616,432.216c0,0 14.175,38.343 15.191,76.901c0.435,16.507 -1.941,32.728 -9.631,45.376l23.824,11.422c6.396,-17.64 6.2,-38.377 1.534,-58.783c-8.889,-38.877 -30.918,-74.916 -30.918,-74.916Z"/><path d="M458.699,335.825c-0,-0 27.343,40.76 62.352,66.616c19.813,14.632 42.071,23.294 63.359,20.951l-5.188,-25.906c-15.594,4.58 -33.163,-0.276 -49.911,-8.575c-37.755,-18.711 -70.612,-53.086 -70.612,-53.086Z"/><path d="M512.799,244.089c-0,-0 27.052,28.219 46.123,69.675c10.714,23.289 18.886,50.775 18.052,79.779c-1,34.777 -11.741,58.755 -27.662,76.273c-27.653,30.425 -70.4,41.375 -103.782,55.577c-33.805,14.382 -57.903,32.797 -58.901,67.505l26.42,-0c-0.705,-24.527 18.295,-36.24 41.561,-47.759c34.414,-17.038 78.49,-31.914 105.863,-65.75c16.47,-20.358 27.291,-47.376 26.185,-85.846c-0.869,-30.212 -10.861,-58.35 -23.397,-81.929c-21.612,-40.648 -50.462,-67.525 -50.462,-67.525Z"/></g></g><text x="176.811px" y="818.197px" style="font-family:'LexendDeca-Regular', 'Lexend Deca';font-size:77.249px;">DEER CO<tspan x="516.089px " y="818.197px ">.</tspan></text></g></svg>